<?xml version="1.0" standalone="no"?>
<!DOCTYPE svg PUBLIC "-//W3C//DTD SVG 1.1//EN" "http://www.w3.org/Graphics/SVG/1.1/DTD/svg11.dtd" >
<svg xmlns="http://www.w3.org/2000/svg">
<metadata>
Created by FontPrep 20130207 at Mon Jun 26 14:42:56 2017
 By Chris Byrne
Copyright (c) 2016 by FontfabricLLC. All rights reserved.
</metadata>
<defs>
<font id="d75e8ed4afb5b1df9cdfa49dd8486514" horiz-adv-x='1024' >
  <font-face 
    font-family="UniNeueRegular-Italic"
    font-weight="500"
    font-style="italic"
    font-stretch="normal"
    units-per-em="2048"
    panose-1="0 0 0 0 0 0 0 0 0 0"
    ascent="1536"
    descent="-512"
    x-height="1057"
    cap-height="1464"
    bbox="-450.75 -504 2175.01 2005.02"
    underline-thickness="102"
    underline-position="-153"
    slope="-10"
    unicode-range="U+0020-25CA"
  />
<missing-glyph horiz-adv-x="448" 
 />
    <glyph glyph-name=".notdef" horiz-adv-x="448" 
 />
    <glyph glyph-name=".null" horiz-adv-x="0" 
 />
    <glyph glyph-name="nonmarkingreturn" horiz-adv-x="681" 
 />
    <glyph glyph-name="space" unicode=" " horiz-adv-x="448" 
 />
    <glyph glyph-name="exclam" unicode="!" horiz-adv-x="491" 
d="M179 213q51 0 79 -36t19 -87t-41 -80q-32 -28 -83 -28q-50 0 -78 36t-19 86q9 52 41 80t82 29zM270 362h-108q-25 0 -21 25l111 686l65 371q4 20 25 20h131q23 0 21 -24l-66 -369l-133 -688q-5 -21 -25 -21z" />
    <glyph glyph-name="quotedbl" unicode="&#x22;" horiz-adv-x="653" 
d="M575 1004h-88q-27 0 -20 22l78 420q6 18 24 18h119q29 1 19 -26l-107 -416q-6 -18 -25 -18zM315 1004h-90q-25 0 -20 22l80 420q6 18 22 18h123q25 1 19 -26l-111 -416q-2 -18 -23 -18z" />
    <glyph glyph-name="numbersign" unicode="#" horiz-adv-x="1456" 
d="M688 901l-153 -344h307l151 344h-305zM264 0h-102q-29 0 -19 27l181 395h-258q-29 0 -19 27l43 92q10 16 27 16h268l152 344h-261q-27 0 -16 25l43 94q6 16 25 16h270l184 412q6 16 27 16h102q27 0 17 -26l-180 -402h307l184 412q6 16 27 16h102q27 0 16 -26l-180 -402
h254q29 0 19 -26l-41 -92q-10 -16 -27 -17h-264l-154 -344h256q27 0 17 -25l-43 -92q-8 -18 -25 -18h-266l-182 -406q-10 -16 -27 -16h-103q-29 0 -18 27l180 395h-307l-182 -406q-11 -16 -27 -16z" />
    <glyph glyph-name="dollar" unicode="$" horiz-adv-x="1159" 
d="M696 1329q-129 0 -221 -51q-93 -51 -113 -166t54 -176t223 -105q469 -133 410 -475q-33 -188 -171 -279t-333 -100l-29 -159q-4 -20 -24 -21h-99q-25 0 -20 25l30 164q-188 23 -370 186q-14 14 0 33l73 86q14 14 33 0q180 -156 379 -156q137 0 241 68q103 68 122 187
t-86 189q-79 50 -226 95q-432 135 -370 471q31 166 155 249q125 83 312 93l28 147q0 20 23 21h100q23 0 19 -25l-27 -147q180 -21 348 -160q14 -12 2 -31l-78 -88q-12 -14 -30 -2q-158 127 -355 127z" />
    <glyph glyph-name="percent" unicode="%" horiz-adv-x="1576" 
d="M1156 94q56 0 104 42q47 42 61 116l43 225q12 70 -18 109q-32 39 -90 39t-106 -42t-63 -118l-38 -227q-13 -72 19 -108t88 -36zM1440 242q-23 -123 -107 -192q-85 -68 -191 -68t-168 76t-42 196l39 223q23 123 109 192t190 69t166 -78q62 -77 43 -195zM393 831
q57 0 104 41q46 41 60 115l43 227q12 70 -17 109q-30 39 -89 39q-58 0 -106 -42t-62 -118l-41 -227q-13 -72 19 -108t89 -36zM238 0h-95q-14 0 -17 8t5 19l1233 1415q12 12 29 12h92q30 0 12 -29l-1233 -1413q-10 -12 -26 -12zM508 1475q104 0 166 -77t43 -198l-39 -223
q-23 -123 -107 -191q-83 -68 -191 -68t-170 77q-62 76 -42 196l41 223q23 123 109 192t190 69z" />
    <glyph glyph-name="ampersand" unicode="&#x26;" horiz-adv-x="1179" 
d="M689 1339q-83 0 -143 -55t-75 -148q-16 -93 72 -253q203 108 257 186q24 35 29 72q14 78 -21 138q-36 60 -119 60zM424 139q150 0 285 150q-109 174 -228 381q-235 -141 -262 -291q-16 -102 41 -171t164 -69zM399 -20q-168 0 -269 122t-71 293q25 133 112 227t228 185
q-113 209 -86 353t138 236t261 91q150 0 224 -109q76 -109 53 -243q-31 -173 -243 -311q-48 -32 -128 -79q98 -168 199 -327q82 115 129 198q10 20 29 9l94 -54q20 -12 8 -30q-96 -152 -176 -258q117 -190 141 -228q24 -39 20 -47q-5 -8 -18 -8h-145q-17 0 -27 16t-84 136
q-166 -172 -389 -172z" />
    <glyph glyph-name="quotesingle" unicode="'" horiz-adv-x="391" 
d="M313 1004h-88q-27 0 -20 22l78 420q4 18 24 18h121q22 1 18 -26l-108 -416q-6 -18 -25 -18z" />
    <glyph glyph-name="parenleft" unicode="(" horiz-adv-x="565" 
d="M377 -238h-121q-18 0 -25 17q-365 981 332 1902q8 14 27 15h127q14 0 17 -8t-5 -19q-163 -221 -279 -470q-224 -482 -171 -958q27 -243 112 -454q11 -25 -14 -25z" />
    <glyph glyph-name="parenright" unicode=")" horiz-adv-x="565" 
d="M258 1696h121q18 0 24 -17q366 -982 -331 -1902q-8 -14 -27 -15h-127q-14 0 -17 8t5 19q164 221 279 470q224 481 171 959q-27 243 -112 453q-11 25 14 25z" />
    <glyph glyph-name="asterisk" unicode="*" horiz-adv-x="897" 
d="M555 1464h107q25 0 18 -24l-45 -248l239 74q23 6 27 -19l17 -96q0 -20 -19 -29l-254 -80l113 -198q8 -18 -6 -31l-93 -65q-20 -16 -30 6l-109 204l-176 -206q-15 -18 -33 -4l-80 63q-14 14 -2 31l174 207l-200 75q-20 8 -13 31l46 98q12 23 28 13l217 -78l49 256
q4 20 25 20z" />
    <glyph glyph-name="plus" unicode="+" horiz-adv-x="1189" 
d="M1049 760q23 0 18 -25l-18 -106q-4 -23 -25 -23h-336l-63 -358q-4 -20 -25 -21h-115q-25 0 -18 23l63 356h-335q-25 0 -21 25l21 108q4 20 24 21h336l66 358q0 23 22 23h115q25 0 18 -25l-61 -356h334z" />
    <glyph glyph-name="comma" unicode="," horiz-adv-x="428" 
d="M-72 -242q-12 0 -17 8t-1 19l178 414q6 16 25 16h131q26 0 16 -25l-203 -415q-10 -16 -28 -17h-101z" />
    <glyph glyph-name="hyphen" unicode="-" horiz-adv-x="802" 
d="M649 535h-493q-25 0 -21 24l21 117q4 20 24 20h496q23 0 18 -24l-20 -115q-5 -22 -25 -22z" />
    <glyph glyph-name="period" unicode="." horiz-adv-x="419" 
d="M127 -6q-51 0 -80 36t-19 87t42 80q33 29 84 29q50 0 80 -37q30 -36 20 -87q-10 -52 -43 -80t-84 -28z" />
    <glyph glyph-name="slash" unicode="/" horiz-adv-x="858" 
d="M115 0h-127q-29 0 -15 27l813 1423q8 14 27 14h125q30 1 16 -26l-813 -1424q-8 -14 -26 -14z" />
    <glyph glyph-name="zero" unicode="0" horiz-adv-x="1198" 
d="M526 145q130 0 233 79t130 239l96 541q29 164 -42 240t-200 75q-129 0 -231 -80t-131 -244l-96 -540q-29 -162 41 -236t200 -74zM510 -23q-196 0 -314 128t-75 370l94 539q41 236 197 354t352 119q196 0 312 -126q118 -126 75 -364l-96 -542q-41 -238 -195 -358
t-350 -120z" />
    <glyph glyph-name="one" unicode="1" horiz-adv-x="700" 
d="M412 0h-123q-25 0 -19 25l219 1230l-268 -165q-20 -14 -31 8l-40 96q-8 18 8 29l377 233q14 8 26 8h107q25 0 20 -24l-252 -1420q-4 -20 -24 -20z" />
    <glyph glyph-name="two" unicode="2" horiz-adv-x="1085" 
d="M881 0h-871q-23 0 -20 25l14 86q2 12 14 24l461 430q135 125 204 195t134 164q66 94 81 182t-33 152t-169 65q-190 0 -377 -186q-20 -16 -30 6l-58 100q-8 14 5 31q221 213 466 213q193 0 293 -111t68 -297q-25 -139 -125 -271t-317 -343q-11 -10 -137 -123t-208 -182
h629q25 0 19 -25l-19 -115q-4 -20 -24 -20z" />
    <glyph glyph-name="three" unicode="3" horiz-adv-x="1093" 
d="M461 143q127 0 226 86q99 85 124 227t-47 218t-211 76q-53 0 -125 -15q-20 -2 -27 17l-24 71q-2 18 8 29l293 291q72 72 184 164h-583q-25 0 -21 22l21 115q4 20 24 20h797q25 0 20 -24l-14 -82q-2 -16 -10 -27l-482 -459l13 2q179 2 283 -116t68 -323
q-36 -204 -186 -330t-354 -125q-152 0 -247 56t-175 163q-10 16 4 30l78 80q16 14 33 -2q67 -84 135 -124t195 -40z" />
    <glyph glyph-name="four" unicode="4" horiz-adv-x="1097" 
d="M774 0h-123q-25 0 -18 25l55 313h-641q-25 0 -20 24l16 95q0 10 8 26l686 967q8 14 27 14h143q15 0 19 -8t-4 -18l-664 -938h457l57 313q4 20 25 21h121q25 0 20 -25l-55 -309h131q25 0 18 -25l-20 -115q-4 -23 -25 -22h-133l-55 -318q-5 -20 -25 -20z" />
    <glyph glyph-name="five" unicode="5" horiz-adv-x="1124" 
d="M473 -18q-264 0 -414 211q-10 18 4 32l80 82q14 14 31 -4q121 -156 311 -156q145 1 243 93t126 254q53 301 -229 301q-172 0 -314 -117q-14 -14 -30 -6l-99 39q-23 8 -16 26l149 707q6 20 25 20h760q25 0 20 -24l-22 -119q-4 -20 -25 -21h-620l-95 -428q133 86 293 86
q205 0 307 -128t62 -355q-39 -227 -186 -360t-361 -133z" />
    <glyph glyph-name="six" unicode="6" horiz-adv-x="1157" 
d="M523 143q138 0 238 89q99 89 126 245q51 295 -240 295q-129 0 -232 -77t-128 -224l-6 -25q-23 -141 41 -222t201 -81zM750 1487q233 0 389 -152q14 -14 2 -30l-80 -93q-12 -12 -33 0q-117 113 -289 113q-129 0 -231 -84t-127 -229l-35 -211q125 133 331 133
q207 0 311 -129t65 -347t-191 -349t-356 -131t-316 138q-111 140 -73 345l98 557q39 225 189 347q151 122 346 122z" />
    <glyph glyph-name="seven" unicode="7" horiz-adv-x="1026" 
d="M248 0h-150q-29 0 -14 27l813 1276h-694q-20 0 -21 24l21 117q4 20 24 20h891q23 0 19 -24l-15 -78q-2 -14 -8 -25l-842 -1323q-8 -14 -24 -14z" />
    <glyph glyph-name="eight" unicode="8" horiz-adv-x="1198" 
d="M742 1325q-134 -1 -224 -67t-109 -178t41 -176t197 -64t229 69q91 70 109 181q16 111 -47 173q-62 62 -196 62zM629 682q-147 0 -249 -74t-124 -196q-22 -121 48 -196t220 -75t254 82t126 202q22 121 -54 189q-74 68 -221 68zM510 -23q-221 0 -339 126t-79 335
q18 111 94 202t195 134q-178 98 -137 334q29 162 172 270t342 109q198 0 312 -121t83 -285q-39 -227 -252 -317q96 -45 142 -144t26 -210q-37 -203 -187 -318t-372 -115z" />
    <glyph glyph-name="nine" unicode="9" horiz-adv-x="1161" 
d="M575 692q133 0 240 77q106 77 131 222l2 21q27 152 -38 232q-66 80 -204 79q-138 0 -234 -87t-124 -237q-49 -307 227 -307zM465 -23q-219 0 -375 203q-12 14 0 31l80 88q16 16 31 -2q121 -154 291 -154q131 0 232 83t126 227l37 211q-125 -134 -332 -134t-310 132
t-65 349q38 216 191 346t361 130t314 -138t68 -356l-96 -547q-42 -227 -188 -348t-365 -121z" />
    <glyph glyph-name="colon" unicode=":" horiz-adv-x="485" 
d="M330 1069q50 0 78 -37t19 -87t-42 -80q-33 -29 -83 -29t-78 36t-18 88t42 80q33 28 82 29zM152 -6q-48 0 -77 36q-28 36 -19 87t41 80t82 29q51 0 79 -37q28 -36 18 -87q-10 -52 -43 -80t-81 -28z" />
    <glyph glyph-name="semicolon" unicode=";" horiz-adv-x="512" 
d="M350 1071q49 0 79 -37t21 -88t-43 -80q-34 -28 -84 -28t-79 36t-19 88q10 50 43 80t82 29zM61 -242h-100q-12 0 -17 8t-1 19l180 428q10 18 27 18h131q12 0 17 -8t1 -18l-209 -428q-11 -19 -29 -19z" />
    <glyph glyph-name="less" unicode="&#x3c;" horiz-adv-x="1189" 
d="M969 348l-25 -143q-4 -27 -29 -12l-755 419q-14 6 -13 27l13 88q2 18 20 25l907 422q11 4 19 -2t6 -17l-25 -141q-2 -14 -18 -25l-704 -307l589 -305q17 -13 15 -29z" />
    <glyph glyph-name="equal" unicode="=" horiz-adv-x="1189" 
d="M989 424h-829q-27 0 -21 25l21 106q2 20 24 20h828q27 0 20 -22l-20 -109q-5 -20 -23 -20zM1057 791h-830q-25 0 -20 24l20 109q4 20 25 20h829q25 0 19 -24l-19 -109q-4 -20 -24 -20z" />
    <glyph glyph-name="greater" unicode="&#x3e;" horiz-adv-x="1189" 
d="M1063 612l-909 -419q-10 -6 -19 -2q-8 5 -6 20l25 141q2 14 18 25l705 307l-590 305q-16 12 -15 29l25 141q6 27 29 15l755 -420q14 -8 13 -27l-13 -90q-2 -13 -18 -25z" />
    <glyph glyph-name="question" unicode="?" horiz-adv-x="970" 
d="M368 -6q-50 0 -79 36t-19 87t43 80t82 29t78 -37q29 -36 21 -87q-8 -52 -42 -80t-84 -28zM475 362h-119q-27 0 -20 25l22 127q29 147 178 246q62 41 123 82q148 99 175 241q20 109 -33 183t-193 73q-172 0 -340 -131q-16 -16 -30 6l-45 89q-10 18 6 30q195 154 428 154
q185 0 291 -117t69 -307q-18 -100 -68 -174q-49 -74 -111 -117t-122 -83q-144 -95 -170 -222l-16 -84q0 -21 -25 -21z" />
    <glyph glyph-name="at" unicode="@" horiz-adv-x="1777" 
d="M843 297q87 0 147 34t91 87l82 479q-57 37 -172 37t-189 -66t-93 -176l-27 -151q-20 -119 27 -181t134 -63zM711 -219q-340 0 -496 215t-100 539l45 260q57 313 276 502t598 190q508 0 729 -363q8 -14 6 -30l-98 -572q-31 -176 -121 -267t-234 -91t-192 112
q-114 -116 -278 -116t-249 116t-56 275l28 154q29 168 140 265t282 97q86 0 174 -23t140 -53q14 -8 10 -26l-84 -512q-26 -162 115 -158q154 8 188 217l104 573q-176 285 -612 285q-326 0 -504 -157t-225 -431l-47 -260q-47 -286 81 -450t394 -164q213 0 412 94
q23 10 28 -14l19 -76q6 -17 -10 -27q-92 -45 -222 -75t-241 -29z" />
    <glyph glyph-name="A" unicode="A" horiz-adv-x="1204" 
d="M739 1272h-6l-356 -731h469zM1079 0h-131q-23 0 -24 20l-54 365h-569l-184 -369q-10 -16 -29 -16h-143q-27 0 -17 27l727 1421q8 16 29 16h160q23 0 24 -20l232 -1419q4 -25 -21 -25z" />
    <glyph glyph-name="B" unicode="B" horiz-adv-x="1251" 
d="M731 850q111 0 191 63t100 172q37 223 -217 224h-320l-82 -459h328zM596 158q147 0 246 71q98 72 121 211q39 254 -244 254h-342l-96 -536h315zM569 0h-465q-25 0 -20 25l254 1419q0 20 24 20h476q209 0 296 -112t58 -287q-39 -211 -227 -287q219 -86 170 -358
q-35 -208 -183 -314t-383 -106z" />
    <glyph glyph-name="C" unicode="C" horiz-adv-x="1148" 
d="M530 -23q-218 1 -334 143t-73 386l86 495q41 236 201 361t387 125t395 -144q20 -12 2 -30l-82 -96q-12 -16 -31 -3q-135 113 -302 113t-269 -93t-131 -257l-82 -481q-29 -158 43 -258t227 -101q203 0 379 137q20 20 31 -6l55 -104q12 -19 -4 -29q-223 -158 -498 -158z
" />
    <glyph glyph-name="D" unicode="D" horiz-adv-x="1312" 
d="M602 158q166 0 269 92t135 268l73 428q63 360 -262 361h-334l-202 -1149h321zM592 0h-488q-25 0 -20 25l250 1419q4 20 24 20h480q229 0 345 -146t70 -388l-73 -428q-90 -502 -588 -502z" />
    <glyph glyph-name="E" unicode="E" horiz-adv-x="1128" 
d="M993 825q25 0 21 -24l-21 -111q-4 -20 -24 -20h-596l-90 -512h659q20 0 21 -23l-21 -115q0 -20 -24 -20h-814q-25 0 -20 25l252 1419q4 20 24 20h789q22 1 18 -24l-18 -111q-4 -23 -25 -22h-641l-84 -482h594z" />
    <glyph glyph-name="F" unicode="F" horiz-adv-x="1095" 
d="M1145 1309h-656l-94 -525h578q25 0 20 -24l-20 -113q-4 -20 -25 -20h-579l-109 -607q-4 -20 -24 -20h-132q-25 0 -20 25l252 1419q4 20 24 20h809q21 1 21 -22l-23 -113q-4 -20 -22 -20z" />
    <glyph glyph-name="G" unicode="G" horiz-adv-x="1269" 
d="M799 1487q272 0 442 -158q14 -12 0 -31l-80 -90q-16 -16 -33 -4q-152 125 -356 125q-150 0 -255 -94t-136 -264l-86 -488q-25 -147 48 -245t228 -99q197 4 359 109l69 395h-329q-25 0 -19 25l21 110q4 23 24 23h482q25 0 18 -25l-100 -577q-3 -11 -13 -25
q-223 -195 -532 -194q-223 0 -345 148t-83 370l86 489q41 236 206 368t384 132z" />
    <glyph glyph-name="H" unicode="H" horiz-adv-x="1337" 
d="M1176 1464h127q25 0 20 -24l-252 -1420q0 -20 -24 -20h-127q-25 0 -19 25l113 643h-641l-115 -648q-4 -20 -25 -20h-129q-25 0 -20 25l252 1419q4 20 24 20h127q25 0 21 -24l-109 -617h643l109 621q0 20 25 20z" />
    <glyph glyph-name="I" unicode="I" horiz-adv-x="524" 
d="M233 0h-129q-25 0 -20 25l252 1419q4 20 24 20h127q25 1 21 -24l-250 -1420q-4 -20 -25 -20z" />
    <glyph glyph-name="J" unicode="J" horiz-adv-x="997" 
d="M334 -23q-223 0 -371 162q-14 14 0 31l70 88q12 20 30 2q127 -127 293 -127q227 0 279 277l184 1034q0 20 25 20h127q25 0 20 -24l-182 -1041q-35 -199 -161 -311t-314 -111z" />
    <glyph glyph-name="K" unicode="K" horiz-adv-x="1198" 
d="M1124 1464h172q14 0 18 -8t-7 -18l-668 -637l459 -774q14 -27 -17 -27h-149q-18 0 -25 14l-397 670l-160 -139l-92 -525q-4 -20 -25 -20h-127q-25 0 -20 25l248 1419q4 20 24 20h129q25 0 21 -24l-117 -662l705 674q12 12 28 12z" />
    <glyph glyph-name="L" unicode="L" horiz-adv-x="999" 
d="M889 158q25 0 20 -25l-20 -113q-4 -20 -25 -20h-760q-25 0 -20 25l252 1419q4 20 24 20h129q25 1 21 -24l-227 -1282h606z" />
    <glyph glyph-name="M" unicode="M" horiz-adv-x="1642" 
d="M104 0q-25 0 -20 25l250 1419q0 20 22 20h154q18 0 25 -18l167 -524q70 -221 113 -385h4q145 240 223 356l381 557q12 14 29 14h154q25 0 20 -24l-250 -1420q-4 -20 -24 -20h-127q-25 0 -21 25l99 563q59 352 106 588h-6q-84 -141 -209 -336l-328 -494q-10 -16 -24 -16
h-105q-18 0 -24 18l-162 514q-49 158 -90 312h-6q-39 -240 -103 -607l-94 -547q-4 -20 -25 -20h-129z" />
    <glyph glyph-name="N" unicode="N" horiz-adv-x="1384" 
d="M104 0q-25 0 -20 25l250 1419q4 20 24 20h150q20 0 24 -16l324 -821q20 -53 44 -115t50 -138q26 -75 43 -116h6q72 481 88 576l109 610q4 20 25 20h127q25 0 20 -24l-250 -1420q-4 -20 -24 -20h-148q-16 0 -26 16l-326 787q-61 158 -137 385h-4q-43 -303 -91 -563
l-106 -605q0 -20 -25 -20h-127z" />
    <glyph glyph-name="O" unicode="O" horiz-adv-x="1331" 
d="M595 137q167 -1 284 99t145 268l78 444q29 168 -49 274t-250 105q-172 0 -285 -99t-143 -274l-76 -432q-29 -168 50 -276t246 -109zM828 1487q252 0 371 -157q118 -157 75 -398l-74 -436q-41 -242 -210 -380t-421 -138q-253 0 -369 156q-116 157 -73 407l74 430
q41 240 208 378t419 138z" />
    <glyph glyph-name="P" unicode="P" horiz-adv-x="1220" 
d="M659 672q340 0 394 305q27 162 -47 247t-232 85h-289l-112 -637h286zM360 1464h437q225 0 346 -141t83 -358t-186 -333t-399 -116h-295l-88 -496q-4 -20 -25 -20h-129q-25 0 -20 25l252 1419q-1 20 24 20z" />
    <glyph glyph-name="Q" unicode="Q" horiz-adv-x="1341" 
d="M590 137q111 0 217 53l-148 199q-14 16 3 33l83 72q18 14 31 -5l152 -200q78 88 100 215l78 444q29 168 -49 274t-250 105q-172 0 -285 -99t-143 -274l-76 -432q-29 -166 50 -276t237 -109zM571 -23q-247 0 -367 161t-77 403l74 430q41 240 209 378t420 138t373 -160
q122 -160 81 -395l-74 -436q-37 -209 -178 -349l88 -116q12 -15 -4 -31l-84 -72q-16 -16 -31 2l-96 129q-152 -82 -334 -82z" />
    <glyph glyph-name="R" unicode="R" horiz-adv-x="1222" 
d="M666 727q156 0 250 70t116 202q49 307 -262 308h-287l-100 -580h283zM233 0h-129q-25 0 -20 25l250 1419q4 20 24 20h439q227 0 336 -136t73 -347q-28 -168 -142 -273t-292 -126l299 -555q14 -27 -16 -27h-146q-20 0 -26 14l-291 557h-238l-96 -551q-5 -20 -25 -20z" />
    <glyph glyph-name="S" unicode="S" horiz-adv-x="1175" 
d="M532 137q137 0 241 67q103 67 123 187t-87 188q-79 51 -225 95q-434 137 -375 473q33 176 173 258t347 82q133 0 235 -38t212 -124q16 -14 4 -31l-78 -90q-12 -16 -31 -4q-166 127 -360 127q-127 0 -219 -51t-114 -165t53 -175q75 -60 195 -96t189 -68q71 -32 141 -87
q148 -113 111 -329q-67 -376 -571 -378q-124 0 -230 46t-223 146q-16 14 -2 33l76 88q14 14 33 2q188 -156 382 -156z" />
    <glyph glyph-name="T" unicode="T" horiz-adv-x="1093" 
d="M209 1464h1001q25 0 21 -24l-21 -111q-4 -23 -24 -22h-418l-227 -1287q-4 -20 -25 -20h-129q-25 0 -20 25l229 1282h-412q-25 0 -20 24l20 113q5 20 25 20z" />
    <glyph glyph-name="U" unicode="U" horiz-adv-x="1347" 
d="M348 1464h129q25 0 19 -24l-164 -932q-31 -174 46 -274q78 -100 230 -99q152 0 260 94t133 263l168 952q4 20 25 20h127q25 0 20 -24l-167 -969q-39 -227 -198 -360t-390 -133t-349 154q-118 155 -75 396l162 916q4 20 24 20z" />
    <glyph glyph-name="V" unicode="V" horiz-adv-x="1204" 
d="M594 0h-170q-23 0 -23 20l-229 1420q-4 25 21 24h131q23 0 24 -20l123 -836l64 -411h10q130 261 198 405l416 846q10 16 29 16h141q27 0 17 -26l-723 -1422q-9 -16 -29 -16z" />
    <glyph glyph-name="W" unicode="W" horiz-adv-x="1841" 
d="M485 0h-155q-20 0 -23 20l-125 1420q-4 25 23 24h133q23 0 22 -22l58 -799q6 -84 22 -438h9q152 383 186 461l338 761q10 16 26 17h156q20 0 23 -21l75 -772q14 -137 31 -446h10q94 281 176 481l320 762q6 16 25 16h141q31 0 16 -26l-618 -1422q-6 -16 -25 -16h-155
q-23 0 -23 20l-74 693q-25 266 -39 479h-8q-78 -215 -194 -475l-324 -701q-11 -16 -27 -16z" />
    <glyph glyph-name="X" unicode="X" horiz-adv-x="1163" 
d="M1100 1464h151q15 0 19 -8t-4 -18l-545 -707l313 -704q6 -11 1 -19t-17 -8h-141q-18 0 -25 16l-250 582l-444 -584q-8 -14 -27 -14h-162q-14 0 -18 8t4 19l559 712l-299 699q-6 12 -1 19t17 7h140q20 0 26 -16l234 -576l440 578q9 14 29 14z" />
    <glyph glyph-name="Y" unicode="Y" horiz-adv-x="1105" 
d="M526 0h-133q-25 0 -18 25l94 526l-305 887q-6 27 18 26h137q18 0 25 -18l236 -739l479 743q8 14 24 14h152q12 0 17 -8t-3 -18l-602 -887l-96 -531q-2 -20 -25 -20z" />
    <glyph glyph-name="Z" unicode="Z" horiz-adv-x="1144" 
d="M961 0h-961q-25 0 -20 25l14 84q2 12 12 26l961 1172h-707q-27 0 -20 24l20 113q4 20 25 20h913q25 0 21 -24l-15 -80q-2 -16 -10 -27l-954 -1175h745q25 0 21 -23l-21 -115q-4 -20 -24 -20z" />
    <glyph glyph-name="bracketleft" unicode="[" horiz-adv-x="565" 
d="M369 -82q25 0 20 -22l-18 -115q-4 -20 -25 -21h-297q-25 0 -20 25l336 1890q0 20 24 21h293q25 0 20 -25l-20 -112q-4 -20 -25 -21h-153l-287 -1620h152z" />
    <glyph glyph-name="backslash" unicode="\" horiz-adv-x="815" 
d="M657 2h-98q-20 0 -27 18l-327 1420q-6 25 20 24h101q18 0 24 -18l328 -1419q6 -25 -21 -25z" />
    <glyph glyph-name="bracketright" unicode="]" horiz-adv-x="567" 
d="M266 1538q-25 0 -20 23l18 114q4 20 25 21h297q25 0 20 -25l-336 -1890q0 -20 -24 -21h-293q-25 0 -21 25l21 113q4 20 24 20h154l287 1620h-152z" />
    <glyph glyph-name="asciicircum" unicode="^" horiz-adv-x="1189" 
d="M403 1159h-165q-16 0 -20 9q-3 9 7 20l484 483q8 12 26 12h119q20 0 29 -14l317 -481q18 -29 -14 -29h-146q-14 0 -28 15l-234 356l-348 -359q-9 -12 -27 -12z" />
    <glyph glyph-name="underscore" unicode="_" horiz-adv-x="1183" 
d="M946 -184h-948q-20 0 -21 22l21 117q4 23 25 22h948q20 1 20 -24l-20 -117q-4 -20 -25 -20z" />
    <glyph glyph-name="grave" unicode="`" horiz-adv-x="428" 
d="M375 1223q-16 0 -27 16l-139 272q-14 27 16 27h121q17 0 27 -16l110 -273q10 -27 -18 -26h-90z" />
    <glyph glyph-name="a" unicode="a" horiz-adv-x="1015" 
d="M411 125q121 0 253 37l53 307q-123 25 -232 25q-261 0 -292 -168q-18 -98 39 -150q58 -51 179 -51zM404 -23q-190 1 -299 99q-110 98 -76 270q27 143 152 218q126 75 311 75q125 0 249 -27l17 88q20 118 -26 176t-192 58t-282 -80q-23 -14 -29 10l-39 88q-6 20 7 29
q163 100 367 100q204 1 297 -107t61 -284l-107 -616q-2 -13 -18 -25q-203 -72 -393 -72z" />
    <glyph glyph-name="b" unicode="b" horiz-adv-x="1081" 
d="M614 936q-135 0 -258 -88l-118 -676q98 -47 215 -47q287 0 342 297l41 231q53 283 -222 283zM319 1464h123q23 0 19 -24l-76 -430q123 72 264 71q188 0 289 -120q100 -121 63 -324l-40 -225q-39 -222 -181 -328t-340 -106t-370 85q-14 4 -15 27l242 1354q4 20 22 20z" />
    <glyph glyph-name="c" unicode="c" horiz-adv-x="925" 
d="M434 -23q-195 0 -293 118t-63 313l51 292q31 174 160 278t308 103q179 0 321 -106q14 -12 2 -31l-64 -82q-12 -16 -31 -4q-102 76 -227 76t-204 -66t-99 -176l-53 -295q-23 -129 33 -201t184 -73q128 0 266 94q20 16 31 -6l51 -90q8 -19 -8 -33q-170 -111 -365 -111z" />
    <glyph glyph-name="d" unicode="d" horiz-adv-x="1079" 
d="M474 125q144 0 239 45l125 698q-104 66 -236 66t-212 -73q-81 -73 -105 -214l-39 -231q-27 -156 28 -224q56 -68 200 -67zM458 -23q-226 0 -319 125q-92 125 -59 328l39 229q35 195 163 309t318 113q145 0 262 -65l76 428q4 20 25 20h120q25 0 21 -24l-242 -1366
q0 -15 -18 -25q-160 -72 -386 -72z" />
    <glyph glyph-name="e" unicode="e" horiz-adv-x="1038" 
d="M797 590l18 98q23 123 -39 184q-62 62 -177 62q-116 0 -198 -65t-104 -181l-18 -98h518zM618 1081q182 0 287 -105q104 -105 68 -300l-37 -205q-2 -20 -25 -20h-659l-16 -89q-25 -115 36 -177t181 -62q162 0 329 121q18 14 31 -4l53 -84q10 -23 -6 -31
q-190 -147 -428 -148q-176 1 -286 105t-74 285l59 333q35 186 170 284t317 97z" />
    <glyph glyph-name="f" unicode="f" horiz-adv-x="612" 
d="M635 1339q-186 0 -227 -215l-13 -75h248q25 0 21 -25l-19 -100q0 -23 -24 -23h-252l-156 -881q-4 -20 -25 -20h-122q-25 0 -19 25l197 1110q31 168 138 260q108 92 257 92q53 0 104 -6q23 -2 19 -25l-19 -102q-3 -23 -28 -19q-57 4 -80 4z" />
    <glyph glyph-name="g" unicode="g" horiz-adv-x="1069" 
d="M616 934q-131 0 -218 -65t-109 -197l-39 -217q-45 -268 213 -269q152 0 258 70l106 629q-80 49 -211 49zM362 -410q-212 0 -358 142q-14 14 0 30l64 82q14 20 32 4q115 -104 273 -104q266 0 313 301l8 43q-119 -53 -250 -53q-199 -1 -296 113t-62 321l37 213
q37 207 172 303t338 96t360 -98q16 -10 13 -29l-158 -929q-35 -209 -155 -322q-119 -113 -331 -113z" />
    <glyph glyph-name="h" unicode="h" horiz-adv-x="1103" 
d="M862 0h-123q-25 0 -20 25l110 622q55 289 -213 289q-133 0 -256 -74l-147 -842q0 -20 -25 -20h-120q-25 0 -21 25l252 1419q0 20 25 20h120q25 0 21 -24l-76 -424q121 66 260 65q188 0 287 -116q98 -117 57 -342l-108 -603q0 -20 -23 -20z" />
    <glyph glyph-name="i" unicode="i" horiz-adv-x="440" 
d="M346 1257q-42 0 -68 33t-18 75t37 67q29 24 72 24t69 -32t19 -74q-8 -43 -38 -68t-73 -25zM188 0h-120q-27 0 -21 25l180 1013q4 20 25 21h121q27 0 20 -25l-182 -1014q0 -20 -23 -20z" />
    <glyph glyph-name="j" unicode="j" horiz-adv-x="456" 
d="M370 1257q-42 0 -69 33t-19 75t37 67q29 24 72 24t69 -32t20 -74q-7 -43 -38 -68q-30 -25 -72 -25zM-139 -410q-33 0 -86 9q-23 2 -19 26l21 107q0 23 22 18q53 -4 76 -4q137 0 180 242l189 1050q0 20 22 21h123q25 0 21 -25l-189 -1059q-72 -385 -360 -385z" />
    <glyph glyph-name="k" unicode="k" horiz-adv-x="968" 
d="M848 1059h156q16 0 19 -9t-9 -20l-492 -430l344 -571q14 -29 -14 -29h-143q-14 0 -25 16l-283 471l-125 -104l-63 -363q-4 -20 -25 -20h-120q-25 0 -21 25l252 1419q0 20 25 20h120q25 0 21 -24l-148 -828l504 437q11 10 27 10z" />
    <glyph glyph-name="l" unicode="l" horiz-adv-x="550" 
d="M313 1464h121q25 0 21 -24l-191 -1080q-41 -231 96 -231q54 0 72 2t24 -3t3 -19l-17 -105q-2 -24 -127 -26t-187 100t-28 295l189 1071q0 20 24 20z" />
    <glyph glyph-name="m" unicode="m" horiz-adv-x="1638" 
d="M1192 1081q184 -1 278 -119q96 -118 62 -319l-113 -623q0 -20 -22 -20h-121q-25 0 -21 25l113 628q49 285 -207 281q-123 0 -237 -66q31 -90 8 -217l-113 -631q-4 -20 -24 -20h-121q-25 0 -21 25l115 639q45 270 -186 270q-115 0 -215 -45l-160 -869q-2 -20 -25 -20h-119
q-25 0 -20 25l174 956q4 16 21 25q174 76 348 76t262 -89q160 88 344 88z" />
    <glyph glyph-name="n" unicode="n" horiz-adv-x="1101" 
d="M182 0h-121q-25 0 -18 25l174 956q2 14 19 25q194 76 394 76t301 -120t62 -327l-110 -615q-4 -20 -25 -20h-121q-25 0 -20 25l110 622q55 287 -217 287q-125 0 -243 -43l-160 -871q0 -20 -25 -20z" />
    <glyph glyph-name="o" unicode="o" horiz-adv-x="1056" 
d="M452 125q128 0 210 69t100 183l53 295q20 114 -35 188t-178 74t-205 -69t-104 -181l-51 -295q-20 -119 32 -191q50 -72 178 -73zM928 367q-35 -177 -167 -283t-326 -106t-293 123q-99 124 -66 302l53 295q31 168 165 276t329 108t293 -127q98 -126 65 -296z" />
    <glyph glyph-name="p" unicode="p" horiz-adv-x="1069" 
d="M604 934q-136 0 -242 -53l-122 -688q94 -66 227 -66q268 0 315 283l41 233q27 159 -28 225t-191 66zM471 -23q-150 0 -256 68l-76 -414q-4 -20 -24 -20h-121q-25 0 -19 24l238 1332q2 16 16 24q76 41 184 66t201 24q220 0 314 -126t59 -326l-39 -230q-33 -197 -160 -309
t-317 -113z" />
    <glyph glyph-name="q" unicode="q" horiz-adv-x="1077" 
d="M466 123q130 0 253 80l121 692q-90 39 -224 39q-268 0 -329 -291l-43 -233q-27 -143 32 -215q60 -72 190 -72zM758 -389h-121q-25 0 -21 24l72 410q-121 -68 -262 -68q-182 0 -285 123q-102 123 -63 328l41 223q45 217 182 325t338 106t367 -81q18 -6 14 -26l-238 -1344
q1 -20 -24 -20z" />
    <glyph glyph-name="r" unicode="r" horiz-adv-x="729" 
d="M188 0h-122q-23 0 -19 25l166 958q2 14 20 25q170 74 340 73q92 0 195 -16q20 -2 20 -27l-20 -100q0 -23 -25 -18q-119 14 -206 14t-172 -41l-152 -873q-5 -20 -25 -20z" />
    <glyph glyph-name="s" unicode="s" horiz-adv-x="950" 
d="M395 -23q-231 0 -385 138q-14 12 -4 30l60 82q12 18 30 4q131 -109 310 -108q112 0 182 41t85 119t-51 117q-45 28 -161 61q-375 106 -328 358q25 133 145 198t298 65t331 -99q18 -8 4 -31l-65 -88q-12 -16 -31 -6q-111 76 -270 76q-102 0 -170 -36t-80 -113t67 -120
q64 -36 162 -61q162 -41 250 -126t63 -222q-26 -137 -149 -208t-293 -71z" />
    <glyph glyph-name="t" unicode="t" horiz-adv-x="600" 
d="M389 1319q25 0 21 -23l-25 -247h227q25 0 21 -25l-19 -100q1 -23 -24 -23h-228l-100 -571q-35 -207 137 -207l78 2q25 0 19 -23l-17 -100q-4 -20 -22 -20q-49 -4 -76 -5q-147 -1 -231 93t-52 274l170 954q4 20 25 21h96z" />
    <glyph glyph-name="u" unicode="u" horiz-adv-x="1091" 
d="M905 1059h123q25 0 21 -25l-175 -956q-2 -18 -20 -25q-190 -76 -389 -76t-298 121t-61 324l111 616q4 20 25 21h123q25 0 18 -25l-113 -622q-51 -287 213 -287q129 0 240 43l160 870q-1 21 22 21z" />
    <glyph glyph-name="v" unicode="v" horiz-adv-x="989" 
d="M475 0h-147q-20 0 -25 20l-186 1014q-4 25 22 25h123q20 0 25 -21l98 -592q12 -90 41 -270h4q68 147 131 273l303 593q8 16 27 17h137q29 0 16 -27l-540 -1018q-9 -14 -29 -14z" />
    <glyph glyph-name="w" unicode="w" horiz-adv-x="1472" 
d="M260 0q-23 0 -24 20l-113 1014q-2 8 4 16t16 7h123q25 0 25 -21l41 -452q14 -172 24 -396h6q72 205 158 390l209 446q6 16 25 16h135q23 0 22 -20l54 -471q18 -176 22 -361h4q78 209 166 406l201 446q6 16 24 17h127q31 0 17 -25l-471 -1016q-10 -16 -27 -16h-139
q-25 0 -25 23l-51 497q-14 150 -18 328h-4q-61 -174 -134 -330l-231 -502q-6 -16 -25 -16h-141z" />
    <glyph glyph-name="x" unicode="x" horiz-adv-x="962" 
d="M831 1059h144q14 0 17 -9t-5 -20l-401 -491l252 -512q10 -27 -19 -27h-133q-16 0 -27 16l-192 404l-334 -406q-8 -14 -27 -14h-149q-14 0 -18 8t4 19l436 512l-232 493q-10 27 19 27h131q18 0 25 -17l176 -387l307 389q10 15 26 15z" />
    <glyph glyph-name="y" unicode="y" horiz-adv-x="1095" 
d="M1026 1059q25 0 21 -25l-181 -1009q-80 -434 -483 -435q-231 0 -369 142q-10 16 0 30l70 82q14 18 33 2q117 -106 272 -106q268 0 313 299l9 43q-137 -47 -246 -47q-186 0 -288 113q-101 114 -64 311l104 579q4 20 25 21h120q25 0 19 -25l-105 -590q-52 -261 224 -261
q130 0 237 63l142 792q4 20 24 21h123z" />
    <glyph glyph-name="z" unicode="z" horiz-adv-x="919" 
d="M737 0h-743q-27 0 -21 25l11 63q2 10 14 27l686 798h-502q-23 0 -18 23l18 102q4 20 25 21h704q20 0 21 -25l-10 -57q-2 -16 -13 -27l-688 -803h541q25 0 20 -24l-20 -103q-5 -20 -25 -20z" />
    <glyph glyph-name="braceleft" unicode="{" horiz-adv-x="591" 
d="M369 -240h-54q-121 0 -168 66t-22 205l72 405q35 190 -78 211q-23 4 -21 25l17 116q4 20 24 23q129 23 164 225l70 404q27 141 89 199t185 59h60q25 0 20 -25l-20 -112q-4 -20 -23 -21h-43q-92 0 -115 -123l-75 -424q-19 -102 -71 -173t-124 -95q57 -20 87 -97t11 -177
l-75 -424q-8 -61 7 -85t60 -24h49q25 0 17 -22l-19 -115q-4 -21 -24 -21z" />
    <glyph glyph-name="bar" unicode="|" horiz-adv-x="481" 
d="M154 -285h-113q-25 0 -21 25l357 2003q0 20 24 20h111q25 0 20 -24l-354 -2003q-4 -21 -24 -21z" />
    <glyph glyph-name="braceright" unicode="}" horiz-adv-x="589" 
d="M291 1698h53q121 0 168 -66t23 -205l-72 -405q-35 -190 78 -211q23 -4 20 -25l-16 -116q-4 -20 -25 -23q-129 -23 -164 -225l-69 -404q-27 -141 -89 -199t-186 -59h-59q-25 0 -21 25l21 113q4 20 22 20h43q92 0 115 123l76 424q19 102 71 173t123 95q-57 20 -87 97
t-11 178l76 424q8 61 -7 85t-61 23h-49q-25 0 -16 23l18 114q5 21 25 21z" />
    <glyph glyph-name="asciitilde" unicode="~" horiz-adv-x="1189" 
d="M807 578q-78 0 -202 40t-175 41q-88 0 -158 -59q-18 -16 -30 2l-52 68q-10 18 3 30q98 102 237 103q84 0 202 -43t167 -43q94 0 164 59q18 12 30 -4l51 -65q12 -17 0 -29q-100 -100 -237 -100z" />
    <glyph glyph-name="exclamdown" unicode="&#xa1;" horiz-adv-x="466" 
d="M295 850q-49 0 -78 37t-19 88t42 80t82 29t78 -37q28 -36 19 -87q-9 -50 -42 -80t-82 -30zM137 -399h-131q-25 0 -20 22l65 369l133 690q4 20 25 20h108q25 0 21 -24l-111 -686l-65 -371q-5 -20 -25 -20z" />
    <glyph glyph-name="cent" unicode="&#xa2;" horiz-adv-x="976" 
d="M430 -201h-68q-23 0 -20 25l27 160q-156 24 -231 138t-44 286l51 292q29 158 142 262t274 117l27 164q4 20 24 21h68q25 0 20 -23l-26 -162q139 -14 258 -104q16 -12 4 -31l-64 -82q-12 -16 -30 -2q-104 74 -230 74t-202 -66q-78 -66 -99 -176l-53 -295q-22 -127 34 -199
t187 -73q131 0 262 94q20 14 31 -6l51 -92q8 -18 -8 -31q-158 -104 -334 -110l-26 -160q-5 -21 -25 -21z" />
    <glyph glyph-name="sterling" unicode="&#xa3;" horiz-adv-x="1058" 
d="M864 0h-835q-25 0 -21 25l15 88q0 16 22 20q141 37 172 238l55 315h-122q-25 0 -19 23l16 102q4 20 25 20h125l47 273q29 172 150 277t303 105t299 -122q10 -14 0 -31l-62 -73q-14 -18 -33 0q-86 86 -231 86q-104 0 -177 -71t-89 -181l-47 -263h354q27 0 20 -24l-18 -100
q-4 -20 -25 -21h-356l-57 -330q-31 -160 -125 -211h637q23 0 18 -24l-16 -101q-5 -20 -25 -20z" />
    <glyph glyph-name="currency" unicode="&#xa4;" horiz-adv-x="1265" 
d="M725 1067q-147 0 -259 -102t-138 -262q-27 -161 49 -257t223 -96t261 102q113 102 139 258q26 157 -51 257t-224 100zM583 215q-167 0 -272 92l-125 -108q-16 -16 -30 2l-60 69q-14 16 2 33l127 111q-70 129 -37 304t138 292l-82 98q-14 14 2 31l82 73q18 14 32 -2
l82 -100q133 90 301 90t275 -96l123 108q18 18 30 -2l62 -69q12 -14 -4 -31l-125 -111q68 -131 37 -302t-140 -294l84 -98q12 -16 -4 -33l-82 -73q-18 -18 -30 2l-82 104q-137 -90 -304 -90z" />
    <glyph glyph-name="yen" unicode="&#xa5;" horiz-adv-x="1198" 
d="M569 0h-127q-25 0 -18 25l43 237h-244q-25 0 -20 25l16 86q4 20 25 20h245l25 137h-244q-27 0 -22 23l16 88q4 20 25 21h190l-268 776q-10 27 18 26h133q16 0 23 -18l238 -746h2l483 750q12 14 27 14h145q14 0 18 -8t-4 -18l-530 -776h186q25 0 21 -25l-17 -86
q-4 -20 -24 -21h-244l-24 -137h241q25 0 21 -22l-17 -88q-4 -20 -22 -21h-248l-43 -242q-2 -20 -25 -20z" />
    <glyph glyph-name="brokenbar" unicode="&#xa6;" horiz-adv-x="487" 
d="M158 -285h-113q-25 0 -20 25l151 850q0 20 25 20h110q25 0 21 -24l-150 -850q-4 -21 -24 -21zM360 868h-112q-27 0 -21 25l152 850q4 20 24 20h113q25 0 21 -24l-152 -850q-5 -21 -25 -21z" />
    <glyph glyph-name="section" unicode="&#xa7;" horiz-adv-x="991" 
d="M268 598q-18 -102 42 -152t243 -112q74 16 127 72t68 129q14 88 -41 139t-215 117q-92 -19 -153 -71t-71 -122zM907 591q0 -239 -229 -339q125 -107 94 -281q-32 -174 -146 -262t-276 -88q-111 0 -205 51t-149 135q-8 18 4 31l76 82q18 23 30 -2q100 -137 254 -137
q96 0 168 55t88 151t-57 148q-39 29 -67 43t-100 46t-112 55t-95 67q-103 86 -74 260q16 98 85 170t171 105q-55 43 -91 121t-18 176q28 152 146 230t268 79q150 0 282 -101q16 -12 2 -30l-67 -80q-14 -14 -31 -4q-88 63 -192 63t-170 -50t-80 -139t53 -145q67 -55 172 -104
q104 -49 128 -69q25 -19 53 -42t57 -73q28 -51 28 -122z" />
    <glyph glyph-name="dieresis" unicode="&#xa8;" horiz-adv-x="583" 
d="M578 1433q30 23 72 23t64 -28t15 -73q-8 -44 -38 -69q-31 -24 -73 -24t-65 28t-15 74q8 45 40 69zM186 1433q31 23 74 23q42 0 64 -28t14 -73q-8 -44 -38 -69q-30 -24 -73 -24t-65 28t-15 74q8 45 39 69z" />
    <glyph glyph-name="copyright" unicode="&#xa9;" horiz-adv-x="1636" 
d="M813 424q90 0 201 78q18 16 28 -8l29 -58q6 -20 -6 -30q-119 -100 -281 -97q-124 0 -198 77t-49 206l47 262q23 127 116 198q94 71 213 70q156 0 242 -108q10 -16 -2 -33l-53 -53q-18 -18 -31 2q-66 80 -155 79t-141 -45t-66 -120l-48 -260q-14 -74 25 -117t129 -43z
M740 59q268 1 477 177t262 494t-93 497q-146 178 -416 178q-271 0 -483 -182q-211 -183 -264 -501t98 -490t419 -173zM732 -23q-304 0 -479 205t-114 551q57 348 294 551t543 203t477 -211t111 -559t-294 -544t-538 -196z" />
    <glyph glyph-name="guillemotleft" unicode="&#xab;" horiz-adv-x="1038" 
d="M866 145h-131q-20 0 -26 17l-199 418q-10 16 2 30l348 422q8 14 29 15h133q14 1 19 -9t-5 -18l-354 -424l201 -424q10 -27 -17 -27zM444 145h-131q-20 0 -26 17l-199 418q-10 16 2 30l348 422q8 14 29 15h133q14 1 20 -9t-6 -18l-354 -424l201 -424q10 -27 -17 -27z" />
    <glyph glyph-name="logicalnot" unicode="&#xac;" horiz-adv-x="1189" 
d="M967 377h-111q-25 0 -20 22l49 285h-695q-23 0 -18 23l21 108q4 20 24 21h827q25 0 19 -25l-72 -414q-4 -20 -24 -20z" />
    <glyph glyph-name="registered" unicode="&#xae;" horiz-adv-x="1024" 
d="M618 1077q88 0 99 72q6 33 -12 50t-52 18h-96l-25 -140h86zM481 864h-32q-14 0 -13 19l66 379q2 14 14 14h139q63 0 99 -36t24 -101q-18 -104 -127 -117l82 -143q8 -14 -10 -15h-45q-10 0 -16 10l-74 146h-68l-22 -141q-5 -15 -17 -15zM668 1423q-149 0 -265 -95
t-145 -264t52 -266q81 -98 231 -98q151 0 263 98t144 268q32 171 -50 264q-81 93 -230 93zM672 1487q174 1 276 -119t66 -316q-35 -196 -169 -307q-135 -111 -313 -111t-278 124q-100 123 -66 314t172 303t312 112z" />
    <glyph glyph-name="macron" unicode="&#xaf;" horiz-adv-x="567" 
d="M186 1425h500q25 0 19 -24l-19 -90q-2 -20 -22 -21h-500q-23 0 -19 23l17 92q4 20 24 20z" />
    <glyph glyph-name="degree" unicode="&#xb0;" horiz-adv-x="712" 
d="M442 1032q70 0 121 47t65 129t-20 126t-104 44t-124 -45t-67 -128q-14 -83 22 -128q37 -45 107 -45zM517 1487q118 0 182 -84t44 -209t-107 -196q-87 -70 -208 -70t-184 84t-43 209q23 125 111 195t205 71z" />
    <glyph glyph-name="plusminus" unicode="&#xb1;" horiz-adv-x="1189" 
d="M942 111h-829q-25 0 -21 22l21 109q6 20 24 20h830q23 0 18 -22l-18 -109q-5 -20 -25 -20zM623 391h-113q-25 0 -21 25l58 321h-332q-25 0 -18 25l20 108q6 20 25 21h331l60 332q4 20 24 20h113q23 0 18 -24l-57 -328h332q25 0 20 -25l-20 -108q-4 -20 -25 -21h-333
l-58 -325q-4 -21 -24 -21z" />
    <glyph glyph-name="two.sups" unicode="&#xb2;" horiz-adv-x="634" 
d="M608 840h-477q-27 0 -22 22l12 66q2 10 16 24l244 211q103 93 157 153t62 114q18 102 -102 102q-90 0 -185 -78q-20 -20 -32 6l-31 58q-6 20 6 30q125 96 247 96t175 -70q53 -71 39 -154q-13 -84 -73 -156q-100 -121 -337 -314h320q27 0 20 -24l-12 -66q-4 -20 -27 -20z
" />
    <glyph glyph-name="three.sups" unicode="&#xb3;" horiz-adv-x="641" 
d="M369 829q-166 0 -248 117q-8 16 4 31l47 45q16 14 33 -2q63 -78 174 -78q68 0 118 44t63 110t-17 105q-31 38 -84 38t-81 -5t-32 15l-6 35q-4 16 8 29l131 125q53 51 101 86h-299q-23 0 -21 24l14 66q4 20 25 20h438q25 0 21 -22l-8 -41q-2 -12 -17 -27l-250 -225
q111 0 160 -71q49 -72 31 -176t-102 -174t-203 -69z" />
    <glyph glyph-name="acute" unicode="&#xb4;" horiz-adv-x="479" 
d="M256 1223h-94q-14 0 -19 9q-4 9 7 17l215 275q8 14 26 14h129q14 0 18 -8t-6 -19l-249 -276q-9 -12 -27 -12z" />
    <glyph glyph-name="paragraph" unicode="&#xb6;" horiz-adv-x="1280" 
d="M473 -285h-111q-25 0 -20 25l150 825q-201 0 -293 136q-91 135 -59 321t168 314t343 128h588q25 0 21 -24l-297 -1704q-4 -20 -25 -21h-113q-25 0 -20 25l272 1565h-305l-274 -1569q0 -21 -25 -21z" />
    <glyph glyph-name="periodcentered" unicode="&#xb7;" horiz-adv-x="460" 
d="M231 516q-51 0 -79 36t-20 87q9 51 42 80t84 29q50 0 80 -36t20 -87t-43 -80t-84 -29z" />
    <glyph glyph-name="cedilla" unicode="&#xb8;" horiz-adv-x="354" 
d="M-16 -420q-63 0 -119 21q-16 6 -17 24l5 51q2 25 26 19q43 -14 84 -14q129 0 143 88q6 64 -84 66q-38 1 -51 15q-4 8 4 25l66 117q6 16 27 16h57q12 0 17 -8t-3 -20l-53 -82q78 -4 120 -47t30 -113q-31 -158 -252 -158z" />
    <glyph glyph-name="one.sups" unicode="&#xb9;" horiz-adv-x="415" 
d="M342 840h-70q-25 0 -20 24l113 623l-105 -66q-18 -10 -31 9l-26 55q-12 20 6 31l180 110q14 8 29 8h65q25 0 21 -24l-135 -750q-4 -20 -27 -20z" />
    <glyph glyph-name="guillemotright" unicode="&#xbb;" horiz-adv-x="1034" 
d="M610 1047h131q20 0 27 -17l199 -418q10 -16 -2 -30l-349 -422q-8 -14 -28 -15h-133q-13 -1 -19 9t4 18l355 424l-201 424q-11 27 16 27zM188 1047h131q20 0 27 -17l199 -418q10 -16 -2 -30l-348 -422q-8 -14 -29 -15h-133q-13 -1 -19 9t4 18l355 424l-201 424
q-11 27 16 27z" />
    <glyph glyph-name="onequarter" unicode="&#xbc;" horiz-adv-x="1703" 
d="M1581 281q23 0 18 -25l-12 -66q-2 -20 -26 -20h-52l-28 -150q0 -20 -23 -20h-72q-25 0 -20 25l25 145h-340q-25 0 -21 25l8 53q2 10 13 26l354 506q8 14 29 15h84q12 -1 17 -9t-3 -18l-340 -487h221l29 159q0 20 24 21h72q23 0 18 -25l-26 -155h51zM193 0h-78
q-14 0 -18 8q-3 8 5 19l1229 1425q8 12 27 12h78q30 1 12 -26l-1227 -1426q-8 -12 -28 -12zM338 670h-70q-25 0 -20 24l112 623l-104 -66q-18 -12 -31 9l-26 55q-12 20 6 31l180 110q14 8 29 8h65q25 0 21 -24l-135 -750q-4 -20 -27 -20z" />
    <glyph glyph-name="onehalf" unicode="&#xbd;" horiz-adv-x="1675" 
d="M1487 0h-479q-25 0 -21 23l10 65q2 10 17 25l243 211q104 90 158 151q53 61 62 115q18 102 -103 102q-92 0 -182 -78q-23 -18 -33 7l-33 57q-6 18 9 31q121 96 244 96t175 -71t39 -154q-14 -84 -73 -156q-97 -119 -336 -313h319q27 0 21 -25l-13 -66q-4 -20 -24 -20z
M184 0h-78q-14 0 -17 8t5 19l1229 1425q8 12 27 12h77q31 1 13 -26l-1227 -1426q-8 -12 -29 -12zM340 670h-70q-25 0 -20 24l112 623l-104 -66q-18 -12 -31 9l-26 55q-12 20 6 31l180 110q14 8 29 8h65q25 0 21 -24l-135 -750q-4 -20 -27 -20z" />
    <glyph glyph-name="threequarters" unicode="&#xbe;" horiz-adv-x="1867" 
d="M1745 281q23 0 18 -25l-12 -66q-2 -20 -27 -20h-51l-28 -150q0 -20 -23 -20h-72q-25 0 -20 25l24 145h-340q-25 0 -20 25l8 53q2 8 12 26l355 506q8 14 28 15h84q11 -1 17 -9t-2 -18l-340 -487h221l29 159q0 20 24 21h72q23 0 18 -25l-26 -155h51zM399 0h-77q-14 0 -18 8
q-3 8 5 19l1229 1425q10 12 27 12h77q31 1 13 -26l-1227 -1426q-10 -12 -29 -12zM369 774q69 0 119 44t62 110t-18 105q-31 38 -83 38q-51 0 -79 -5t-32 15l-6 35q-6 14 6 27l131 127q57 51 102 86h-301q-25 0 -18 24l12 66q4 20 27 20h436q27 0 21 -24l-7 -41
q-4 -12 -16 -25l-250 -227q18 4 45 -2q76 -11 120 -75t26 -168t-104 -173q-86 -70 -204 -69q-162 0 -245 114q-8 16 4 33l47 45q16 12 33 -2q63 -78 172 -78z" />
    <glyph glyph-name="questiondown" unicode="&#xbf;" horiz-adv-x="962" 
d="M653 874q-33 -28 -82 -28t-77 36t-21 87q8 51 42 80t84 29t79 -37q28 -36 18 -87t-43 -80zM492 709h118q27 0 21 -25l-23 -127q-30 -148 -177 -246q-61 -41 -123 -82q-147 -98 -175 -241q-20 -109 33 -183t192 -73q172 0 340 131q16 16 31 -6l45 -88q10 -18 -6 -31
q-195 -154 -428 -154q-184 0 -291 117q-106 117 -69 307q18 100 68 174t112 117t122 83q144 95 169 222l16 84q0 21 25 21z" />
    <glyph glyph-name="Agrave" unicode="&#xc0;" horiz-adv-x="1204" 
d="M870 1608h-100q-18 0 -27 14l-178 274q-8 10 -4 18t19 9h131q20 0 26 -16l150 -273q14 -26 -17 -26zM739 1272h-6l-356 -731h469zM1079 0h-131q-23 0 -24 20l-54 365h-569l-184 -369q-10 -16 -29 -16h-143q-27 0 -17 27l727 1421q8 16 29 16h160q23 0 24 -20l232 -1419
q4 -25 -21 -25z" />
    <glyph glyph-name="Aacute" unicode="&#xc1;" horiz-adv-x="1204" 
d="M813 1608h-106q-14 0 -19 9q-4 9 6 17l256 277q12 12 29 12h145q14 0 18 -9t-5 -18l-295 -278q-11 -10 -29 -10zM739 1272h-6l-356 -731h469zM1079 0h-131q-23 0 -24 20l-54 365h-569l-184 -369q-10 -16 -29 -16h-143q-27 0 -17 27l727 1421q8 16 29 16h160q23 0 24 -20
l232 -1419q4 -25 -21 -25z" />
    <glyph glyph-name="Acircumflex" unicode="&#xc2;" horiz-adv-x="1204" 
d="M602 1608h-125q-14 0 -18 9t6 17l287 277q10 12 26 12h111q16 0 26 -14l193 -275q8 -10 3 -18t-17 -8h-119q-16 0 -29 14l-127 184l-190 -186q-11 -12 -27 -12zM739 1272h-6l-356 -731h469zM1079 0h-131q-23 0 -24 20l-54 365h-569l-184 -369q-10 -16 -29 -16h-143
q-27 0 -17 27l727 1421q8 16 29 16h160q23 0 24 -20l232 -1419q4 -25 -21 -25z" />
    <glyph glyph-name="Atilde" unicode="&#xc3;" horiz-adv-x="1204" 
d="M940 1645q-49 0 -135 40q-86 39 -132 39t-77 -53q-12 -20 -31 -8l-59 39q-18 12 -8 31q29 57 79 93t109 36t142 -40t123 -40t79 55q12 14 31 6l59 -39q18 -10 8 -26q-76 -133 -188 -133zM739 1272h-6l-356 -731h469zM1079 0h-131q-23 0 -24 20l-54 365h-569l-184 -369
q-10 -16 -29 -16h-143q-27 0 -17 27l727 1421q8 16 29 16h160q23 0 24 -20l232 -1419q4 -25 -21 -25z" />
    <glyph glyph-name="Adieresis" unicode="&#xc4;" horiz-adv-x="1204" 
d="M1006 1675q-46 0 -67 32t-15 74q6 41 37 69t75 28t68 -30q22 -30 15 -75q-7 -44 -37 -71t-76 -27zM607 1675q-47 0 -69 32t-15 74q7 41 37 69t75 28t67 -30t17 -75q-6 -44 -36 -71t-76 -27zM739 1272h-6l-356 -731h469zM1079 0h-131q-23 0 -24 20l-54 365h-569l-184 -369
q-10 -16 -29 -16h-143q-27 0 -17 27l727 1421q8 16 29 16h160q23 0 24 -20l232 -1419q4 -25 -21 -25z" />
    <glyph glyph-name="Aring" unicode="&#xc5;" horiz-adv-x="1204" 
d="M801 1679q51 0 86 31t44 83t-16 82t-75 30t-90 -32t-48 -83q-16 -111 99 -111zM851 2005q95 1 148 -63t36 -159t-84 -149t-163 -55q-96 0 -149 61q-53 62 -38 158t85 152t165 55zM739 1272h-6l-356 -731h469zM1079 0h-131q-23 0 -24 20l-54 365h-569l-184 -369
q-10 -16 -29 -16h-143q-27 0 -17 27l727 1421q8 16 29 16h160q23 0 24 -20l232 -1419q4 -25 -21 -25z" />
    <glyph glyph-name="AE" unicode="&#xc6;" horiz-adv-x="1738" 
d="M463 545h364l136 760h-5zM1731 1311h-596l-84 -486h555q20 0 20 -24l-18 -111q-4 -20 -25 -20h-559l-90 -514h616q25 0 21 -25l-21 -111q-2 -20 -24 -20h-770q-27 0 -21 25l64 362h-437l-247 -373q-8 -14 -27 -14h-154q-12 0 -17 8t3 19l959 1423q12 14 28 14h848
q25 1 19 -24l-19 -109q0 -20 -24 -20z" />
    <glyph glyph-name="Ccedilla" unicode="&#xc7;" horiz-adv-x="1148" 
d="M444 -424q-70 0 -116 21q-20 4 -17 24l4 55q2 23 33 14t76 -9q123 0 141 81q8 35 -16 53q-25 17 -65 18t-48 12t-2 28l60 107q-201 12 -307 152q-105 140 -64 374l86 495q41 236 201 361t387 125t395 -144q20 -12 2 -30l-82 -96q-12 -16 -31 -3q-135 113 -302 113
t-269 -93t-131 -257l-82 -481q-29 -158 43 -258t227 -101q203 0 379 137q20 20 31 -6l55 -104q12 -18 -4 -29q-193 -137 -428 -155v-3l-47 -79q75 -4 117 -47t30 -111q-31 -164 -256 -164z" />
    <glyph glyph-name="Egrave" unicode="&#xc8;" horiz-adv-x="1128" 
d="M872 1608h-100q-18 0 -27 14l-178 274q-8 10 -4 18t19 9h131q20 0 26 -16l150 -273q14 -26 -17 -26zM993 825q25 0 21 -24l-21 -111q-4 -20 -24 -20h-596l-90 -512h659q20 0 21 -23l-21 -115q0 -20 -24 -20h-814q-25 0 -20 25l252 1419q4 20 24 20h789q22 1 18 -24
l-18 -111q-4 -23 -25 -22h-641l-84 -482h594z" />
    <glyph glyph-name="Eacute" unicode="&#xc9;" horiz-adv-x="1128" 
d="M786 1608h-106q-14 0 -18 9t6 17l256 277q12 12 28 12h146q14 0 18 -9t-6 -18l-295 -278q-11 -10 -29 -10zM993 825q25 0 21 -24l-21 -111q-4 -20 -24 -20h-596l-90 -512h659q20 0 21 -23l-21 -115q0 -20 -24 -20h-814q-25 0 -20 25l252 1419q4 20 24 20h789q22 1 18 -24
l-18 -111q-4 -23 -25 -22h-641l-84 -482h594z" />
    <glyph glyph-name="Ecircumflex" unicode="&#xca;" horiz-adv-x="1128" 
d="M612 1608h-125q-14 0 -18 9t6 17l287 277q8 12 26 12h111q16 0 27 -14l192 -275q8 -10 3 -18t-17 -8h-119q-16 0 -29 14l-127 184l-190 -186q-9 -12 -27 -12zM993 825q25 0 21 -24l-21 -111q-4 -20 -24 -20h-596l-90 -512h659q20 0 21 -23l-21 -115q0 -20 -24 -20h-814
q-25 0 -20 25l252 1419q4 20 24 20h789q22 1 18 -24l-18 -111q-4 -23 -25 -22h-641l-84 -482h594z" />
    <glyph glyph-name="Edieresis" unicode="&#xcb;" horiz-adv-x="1128" 
d="M1006 1634q-46 0 -67 32t-15 74t37 70t75 27t68 -31q22 -30 15 -74t-37 -71t-76 -27zM607 1634q-47 0 -69 32t-15 74t37 70t75 27t67 -31t17 -74q-6 -44 -36 -71t-76 -27zM993 825q25 0 21 -24l-21 -111q-4 -20 -24 -20h-596l-90 -512h659q20 0 21 -23l-21 -115
q0 -20 -24 -20h-814q-25 0 -20 25l252 1419q4 20 24 20h789q22 1 18 -24l-18 -111q-4 -23 -25 -22h-641l-84 -482h594z" />
    <glyph glyph-name="Igrave" unicode="&#xcc;" horiz-adv-x="524" 
d="M530 1608h-100q-18 0 -27 14l-178 274q-8 10 -4 18t19 9h131q20 0 26 -16l150 -273q14 -26 -17 -26zM233 0h-129q-25 0 -20 25l252 1419q4 20 24 20h127q25 1 21 -24l-250 -1420q-4 -20 -25 -20z" />
    <glyph glyph-name="Iacute" unicode="&#xcd;" horiz-adv-x="524" 
d="M473 1608h-106q-14 0 -19 9q-4 9 6 17l256 277q12 12 29 12h145q14 0 18 -9t-5 -18l-295 -278q-11 -10 -29 -10zM233 0h-129q-25 0 -20 25l252 1419q4 20 24 20h127q25 1 21 -24l-250 -1420q-4 -20 -25 -20z" />
    <glyph glyph-name="Icircumflex" unicode="&#xce;" horiz-adv-x="524" 
d="M233 0h-129q-25 0 -20 25l252 1419q4 20 24 20h127q25 1 21 -24l-250 -1420q-4 -20 -25 -20zM283 1608h-119q-14 0 -18 9q-3 9 6 17l270 283q12 12 29 12h100q16 0 27 -16l167 -279q14 -27 -16 -26h-115q-20 0 -26 14l-103 180l-174 -182q-8 -12 -28 -12z" />
    <glyph glyph-name="Idieresis" unicode="&#xcf;" horiz-adv-x="522" 
d="M667 1858q45 0 67 -31t16 -75t-36 -71t-76 -27t-68 33q-22 31 -16 73t38 70q31 28 75 28zM314 1858q44 0 66 -31t16 -75q-7 -44 -37 -71q-29 -27 -75 -27t-68 33q-22 31 -16 73t38 70t76 28zM231 0h-127q-25 0 -20 25l252 1419q0 20 24 20h127q25 1 21 -24l-252 -1420
q0 -20 -25 -20z" />
    <glyph glyph-name="Eth" unicode="&#xd0;" horiz-adv-x="1329" 
d="M727 819q25 0 18 -24l-12 -76q-4 -20 -24 -21h-318l-94 -540h324q164 0 267 92t136 268l74 428q61 360 -264 361h-334l-86 -488h313zM375 1464h479q229 0 345 -146t73 -388l-76 -428q-88 -502 -588 -502h-487q-25 0 -19 25l119 673h-149q-25 0 -19 25l15 76q0 20 22 20
h150l110 625q5 20 25 20z" />
    <glyph glyph-name="Ntilde" unicode="&#xd1;" horiz-adv-x="1384" 
d="M1024 1645q-49 0 -135 40q-86 39 -132 39t-77 -53q-12 -20 -31 -8l-59 39q-18 12 -8 31q29 57 78 93q50 36 110 36t142 -40q83 -40 123 -40t79 55q12 14 31 6l59 -39q18 -10 8 -26q-76 -133 -188 -133zM104 0q-25 0 -20 25l250 1419q4 20 24 20h150q20 0 24 -16l324 -821
q20 -53 44 -115t50 -138q26 -75 43 -116h6q72 481 88 576l109 610q4 20 25 20h127q25 0 20 -24l-250 -1420q-4 -20 -24 -20h-148q-16 0 -26 16l-326 787q-61 158 -137 385h-4q-43 -303 -91 -563l-106 -605q0 -20 -25 -20h-127z" />
    <glyph glyph-name="Ograve" unicode="&#xd2;" horiz-adv-x="1331" 
d="M932 1608h-101q-18 0 -26 14l-178 274q-8 10 -4 18t18 9h131q20 0 27 -16l149 -273q15 -26 -16 -26zM595 137q167 -1 284 99t145 268l78 444q29 168 -49 274t-250 105q-172 0 -285 -99t-143 -274l-76 -432q-29 -168 50 -276t246 -109zM828 1487q252 0 371 -157
q118 -157 75 -398l-74 -436q-41 -242 -210 -380t-421 -138q-253 0 -369 156q-116 157 -73 407l74 430q41 240 208 378t419 138z" />
    <glyph glyph-name="Oacute" unicode="&#xd3;" horiz-adv-x="1331" 
d="M874 1608h-106q-14 0 -18 9t6 17l256 277q12 12 28 12h146q14 0 18 -9t-6 -18l-295 -278q-11 -10 -29 -10zM595 137q167 -1 284 99t145 268l78 444q29 168 -49 274t-250 105q-172 0 -285 -99t-143 -274l-76 -432q-29 -168 50 -276t246 -109zM828 1487q252 0 371 -157
q118 -157 75 -398l-74 -436q-41 -242 -210 -380t-421 -138q-253 0 -369 156q-116 157 -73 407l74 430q41 240 208 378t419 138z" />
    <glyph glyph-name="Ocircumflex" unicode="&#xd4;" horiz-adv-x="1331" 
d="M664 1608h-125q-14 0 -19 9q-4 9 6 17l287 277q8 12 27 12h110q16 0 27 -14l192 -275q8 -10 3 -18t-17 -8h-119q-16 0 -28 14l-127 184l-191 -186q-10 -12 -26 -12zM595 137q167 -1 284 99t145 268l78 444q29 168 -49 274t-250 105q-172 0 -285 -99t-143 -274l-76 -432
q-29 -168 50 -276t246 -109zM828 1487q252 0 371 -157q118 -157 75 -398l-74 -436q-41 -242 -210 -380t-421 -138q-253 0 -369 156q-116 157 -73 407l74 430q41 240 208 378t419 138z" />
    <glyph glyph-name="Otilde" unicode="&#xd5;" horiz-adv-x="1331" 
d="M1001 1645q-49 0 -135 40q-86 39 -132 39t-77 -53q-12 -20 -30 -8l-60 39q-18 12 -8 31q29 57 79 93t110 36t142 -40q83 -40 123 -40t79 55q12 14 30 6l60 -39q18 -10 8 -26q-76 -133 -189 -133zM595 137q167 -1 284 99t145 268l78 444q29 168 -49 274t-250 105
q-172 0 -285 -99t-143 -274l-76 -432q-29 -168 50 -276t246 -109zM828 1487q252 0 371 -157q118 -157 75 -398l-74 -436q-41 -242 -210 -380t-421 -138q-253 0 -369 156q-116 157 -73 407l74 430q41 240 208 378t419 138z" />
    <glyph glyph-name="Odieresis" unicode="&#xd6;" horiz-adv-x="1331" 
d="M1090 1858q44 0 66 -31t16 -75t-36 -71t-76 -27t-68 33q-22 31 -16 73t38 70t76 28zM688 1858q46 0 68 -31t16 -75t-36 -71t-76 -27t-68 33q-24 31 -16 73t37 70q30 28 75 28zM595 137q167 -1 284 99t145 268l78 444q29 168 -49 274t-250 105q-172 0 -285 -99t-143 -274
l-76 -432q-29 -168 50 -276t246 -109zM828 1487q252 0 371 -157q118 -157 75 -398l-74 -436q-41 -242 -210 -380t-421 -138q-253 0 -369 156q-116 157 -73 407l74 430q41 240 208 378t419 138z" />
    <glyph glyph-name="multiply" unicode="&#xd7;" horiz-adv-x="1189" 
d="M1044 1126l70 -79q16 -14 -2 -33l-385 -344l264 -332q12 -18 -2 -31l-86 -74q-18 -18 -31 3l-264 331l-381 -338q-16 -16 -32 2l-72 80q-12 16 4 33l385 342l-268 334q-12 18 4 33l86 71q16 18 31 0l264 -333l383 337q16 16 32 -2z" />
    <glyph glyph-name="Oslash" unicode="&#xd8;" horiz-adv-x="1331" 
d="M807 1327q-176 0 -289 -99t-143 -274l-76 -432q-23 -127 20 -223l672 979q-70 49 -184 49zM588 137q174 -1 291 99t145 268l78 444q23 133 -21 226l-675 -986q74 -51 182 -51zM184 -106h-110q-14 0 -19 8q-4 8 4 18l144 211q-121 154 -76 410l74 430q41 240 208 378
t416 138q158 0 267 -64l86 125q8 14 26 15h111q12 -1 17 -9t-3 -18l-137 -199q127 -156 82 -405l-74 -436q-41 -242 -210 -380t-423 -139q-154 0 -262 64l-94 -135q-10 -12 -27 -12z" />
    <glyph glyph-name="Ugrave" unicode="&#xd9;" horiz-adv-x="1347" 
d="M952 1608h-100q-18 0 -27 14l-178 274q-8 10 -4 18t19 9h131q20 0 26 -16l150 -273q14 -26 -17 -26zM348 1464h129q25 0 19 -24l-164 -932q-31 -174 46 -274q78 -100 230 -99q152 0 260 94t133 263l168 952q4 20 25 20h127q25 0 20 -24l-167 -969q-39 -227 -198 -360
t-390 -133t-349 154q-118 155 -75 396l162 916q4 20 24 20z" />
    <glyph glyph-name="Uacute" unicode="&#xda;" horiz-adv-x="1347" 
d="M852 1608h-107q-14 0 -18 9t6 17l256 277q12 12 29 12h145q15 0 19 -9t-6 -18l-295 -278q-11 -10 -29 -10zM348 1464h129q25 0 19 -24l-164 -932q-31 -174 46 -274q78 -100 230 -99q152 0 260 94t133 263l168 952q4 20 25 20h127q25 0 20 -24l-167 -969
q-39 -227 -198 -360t-390 -133t-349 154q-118 155 -75 396l162 916q4 20 24 20z" />
    <glyph glyph-name="Ucircumflex" unicode="&#xdb;" horiz-adv-x="1347" 
d="M670 1608h-125q-14 0 -19 9q-4 9 6 17l287 277q8 12 27 12h110q16 0 27 -14l193 -275q8 -10 3 -18t-18 -8h-119q-16 0 -28 14l-127 184l-191 -186q-8 -12 -26 -12zM348 1464h129q25 0 19 -24l-164 -932q-31 -174 46 -274q78 -100 230 -99q152 0 260 94t133 263l168 952
q4 20 25 20h127q25 0 20 -24l-167 -969q-39 -227 -198 -360t-390 -133t-349 154q-118 155 -75 396l162 916q4 20 24 20z" />
    <glyph glyph-name="Udieresis" unicode="&#xdc;" horiz-adv-x="1347" 
d="M1102 1858q46 0 68 -31t15 -75t-37 -71t-76 -27t-68 33q-22 31 -15 73q6 42 37 70t76 28zM700 1858q44 0 68 -31q22 -31 16 -75t-36 -71t-75 -27q-46 0 -69 33q-24 31 -16 73t38 70t74 28zM348 1464h129q25 0 19 -24l-164 -932q-31 -174 46 -274q78 -100 230 -99
q152 0 260 94t133 263l168 952q4 20 25 20h127q25 0 20 -24l-167 -969q-39 -227 -198 -360t-390 -133t-349 154q-118 155 -75 396l162 916q4 20 24 20z" />
    <glyph glyph-name="Yacute" unicode="&#xdd;" horiz-adv-x="1105" 
d="M741 1608h-106q-14 0 -19 9q-4 9 7 17l256 277q12 12 28 12h146q14 0 18 -9t-6 -18l-295 -278q-11 -10 -29 -10zM526 0h-133q-25 0 -18 25l94 526l-305 887q-6 27 18 26h137q18 0 25 -18l236 -739l479 743q8 14 24 14h152q12 0 17 -8t-3 -18l-602 -887l-96 -531
q-2 -20 -25 -20z" />
    <glyph glyph-name="Thorn" unicode="&#xde;" horiz-adv-x="1226" 
d="M608 451q334 0 387 313q55 315 -268 315h-283l-110 -628h274zM752 1235q238 0 346 -138t71 -349q-80 -455 -579 -455h-285l-47 -273q-4 -20 -25 -20h-129q-25 0 -20 25l252 1419q0 20 24 20h127q27 0 21 -24l-37 -205h281z" />
    <glyph glyph-name="germandbls" unicode="&#xdf;" horiz-adv-x="1099" 
d="M708 1487q183 0 280 -117t65 -313q-13 -94 -69 -173t-150 -120q102 -43 142 -137t15 -219q-35 -195 -169 -304t-314 -108q-104 0 -191 33q-18 6 -14 28l19 95q6 23 26 16q70 -25 152 -25q125 0 217 77t111 203q18 127 -34 193t-173 66h-170q-25 0 -21 23l19 102
q4 23 24 22h164q96 0 167 72q71 71 89 185t-33 183t-158 68q-252 0 -309 -301l-180 -1016q0 -20 -25 -20h-120q-25 0 -21 25l182 1024q41 215 169 327t310 111z" />
    <glyph glyph-name="agrave" unicode="&#xe0;" horiz-adv-x="1015" 
d="M590 1223q-16 0 -27 16l-139 272q-14 27 16 27h121q17 0 27 -16l110 -273q10 -27 -18 -26h-90zM411 125q121 0 253 37l53 307q-123 25 -232 25q-261 0 -292 -168q-18 -98 39 -150q58 -51 179 -51zM404 -23q-190 1 -299 99q-110 98 -76 270q27 143 152 218q126 75 311 75
q125 0 249 -27l17 88q20 118 -26 176t-192 58t-282 -80q-23 -14 -29 10l-39 88q-6 20 7 29q163 100 367 100q204 1 297 -107t61 -284l-107 -616q-2 -13 -18 -25q-203 -72 -393 -72z" />
    <glyph glyph-name="aacute" unicode="&#xe1;" horiz-adv-x="1015" 
d="M600 1223h-94q-14 0 -19 9q-4 9 7 17l215 275q8 14 26 14h129q14 0 18 -8t-5 -19l-250 -276q-9 -12 -27 -12zM411 125q121 0 253 37l53 307q-123 25 -232 25q-261 0 -292 -168q-18 -98 39 -150q58 -51 179 -51zM404 -23q-190 1 -299 99q-110 98 -76 270q27 143 152 218
q126 75 311 75q125 0 249 -27l17 88q20 118 -26 176t-192 58t-282 -80q-23 -14 -29 10l-39 88q-6 20 7 29q163 100 367 100q204 1 297 -107t61 -284l-107 -616q-2 -13 -18 -25q-203 -72 -393 -72z" />
    <glyph glyph-name="acircumflex" unicode="&#xe2;" horiz-adv-x="1015" 
d="M801 1223q-16 0 -27 14l-117 190l-190 -192q-8 -12 -29 -12h-114q-14 0 -19 9q-4 9 6 17l281 277q12 12 29 12h100q16 0 24 -14l175 -275q14 -27 -13 -26h-106zM411 125q121 0 253 37l53 307q-123 25 -232 25q-261 0 -292 -168q-18 -98 39 -150q58 -51 179 -51zM404 -23
q-190 1 -299 99q-110 98 -76 270q27 143 152 218q126 75 311 75q125 0 249 -27l17 88q20 118 -26 176t-192 58t-282 -80q-23 -14 -29 10l-39 88q-6 20 7 29q163 100 367 100q204 1 297 -107t61 -284l-107 -616q-2 -13 -18 -25q-203 -72 -393 -72z" />
    <glyph glyph-name="atilde" unicode="&#xe3;" horiz-adv-x="1015" 
d="M754 1253q-56 0 -138 40t-122 40t-80 -55q-12 -18 -31 -6l-59 37q-18 12 -9 30q78 129 193 129q55 0 137 -40t121 -40t80 56q12 18 31 6l59 -37q16 -15 8 -29q-78 -131 -190 -131zM411 125q121 0 253 37l53 307q-123 25 -232 25q-261 0 -292 -168q-18 -98 39 -150
q58 -51 179 -51zM404 -23q-190 1 -299 99q-110 98 -76 270q27 143 152 218q126 75 311 75q125 0 249 -27l17 88q20 118 -26 176t-192 58t-282 -80q-23 -14 -29 10l-39 88q-6 20 7 29q163 100 367 100q204 1 297 -107t61 -284l-107 -616q-2 -13 -18 -25q-203 -72 -393 -72z
" />
    <glyph glyph-name="adieresis" unicode="&#xe4;" horiz-adv-x="1015" 
d="M772 1433q31 23 73 23q43 0 65 -28t14 -73q-8 -44 -38 -69q-30 -24 -73 -24t-65 28t-15 74q8 45 39 69zM381 1433q31 23 74 23t64 -28t13 -73q-8 -44 -38 -69q-30 -24 -72 -24q-43 0 -66 28q-22 28 -14 74q8 45 39 69zM411 125q121 0 253 37l53 307q-123 25 -232 25
q-261 0 -292 -168q-18 -98 39 -150q58 -51 179 -51zM404 -23q-190 1 -299 99q-110 98 -76 270q27 143 152 218q126 75 311 75q125 0 249 -27l17 88q20 118 -26 176t-192 58t-282 -80q-23 -14 -29 10l-39 88q-6 20 7 29q163 100 367 100q204 1 297 -107t61 -284l-107 -616
q-2 -13 -18 -25q-203 -72 -393 -72z" />
    <glyph glyph-name="aring" unicode="&#xe5;" horiz-adv-x="1015" 
d="M627 1290q49 0 84 32t44 82t-16 83t-75 33t-88 -32t-46 -83t20 -83t77 -32zM675 1616q93 0 146 -64t37 -155t-84 -147t-159 -56t-146 62t-40 156t84 150q69 54 162 54zM411 125q121 0 253 37l53 307q-123 25 -232 25q-261 0 -292 -168q-18 -98 39 -150q58 -51 179 -51z
M404 -23q-190 1 -299 99q-110 98 -76 270q27 143 152 218q126 75 311 75q125 0 249 -27l17 88q20 118 -26 176t-192 58t-282 -80q-23 -14 -29 10l-39 88q-6 20 7 29q163 100 367 100q204 1 297 -107t61 -284l-107 -616q-2 -13 -18 -25q-203 -72 -393 -72z" />
    <glyph glyph-name="ae" unicode="&#xe6;" horiz-adv-x="1638" 
d="M1206 934q-115 0 -197 -68t-102 -180l-14 -86h512l16 86q23 120 -39 184t-176 64zM414 129q166 0 282 102q-18 68 -6 146l17 96q-106 18 -205 19q-272 0 -307 -164q-18 -98 43 -148t176 -51zM508 633q115 0 223 -23l19 113q37 211 -199 211q-162 0 -301 -80
q-23 -10 -31 10l-41 92q-6 20 10 29q172 96 377 96q233 0 301 -170q135 170 355 170q180 -1 284 -113t72 -288l-37 -201q-4 -18 -24 -18h-648l-16 -90q-39 -242 211 -242q174 0 321 115q20 14 31 -8l47 -78q10 -20 -4 -31q-86 -70 -198 -109t-211 -38q-171 -1 -275 120
q-186 -120 -372 -120t-297 102q-110 102 -72 268q31 139 157 211q127 72 318 72z" />
    <glyph glyph-name="ccedilla" unicode="&#xe7;" horiz-adv-x="925" 
d="M334 -420q-63 0 -119 21q-16 6 -16 24l4 51q2 25 26 19q43 -14 84 -14q129 0 144 88q7 64 -85 66q-38 1 -50 15q-4 8 4 25l57 105q-170 16 -254 132t-51 296l51 292q31 174 160 278t308 103q179 0 321 -106q14 -12 2 -31l-64 -82q-12 -16 -31 -4q-102 76 -227 76
t-204 -66t-99 -176l-53 -295q-23 -129 33 -201t184 -73q128 0 266 94q20 16 31 -6l51 -90q8 -18 -8 -33q-147 -94 -310 -108l-53 -82q78 -4 120 -47t30 -113q-31 -158 -252 -158z" />
    <glyph glyph-name="egrave" unicode="&#xe8;" horiz-adv-x="1038" 
d="M614 1223q-16 0 -26 16l-139 272q-14 27 16 27h121q16 0 26 -16l111 -273q10 -27 -18 -26h-91zM797 590l18 98q23 123 -39 184q-62 62 -177 62q-116 0 -198 -65t-104 -181l-18 -98h518zM618 1081q182 0 287 -105q104 -105 68 -300l-37 -205q-2 -20 -25 -20h-659l-16 -89
q-25 -115 36 -177t181 -62q162 0 329 121q18 14 31 -4l53 -84q10 -23 -6 -31q-190 -147 -428 -148q-176 1 -286 105t-74 285l59 333q35 186 170 284t317 97z" />
    <glyph glyph-name="eacute" unicode="&#xe9;" horiz-adv-x="1038" 
d="M641 1223h-94q-14 0 -19 9q-4 9 7 17l215 275q8 14 26 14h129q15 0 19 -8t-6 -19l-250 -276q-9 -12 -27 -12zM797 590l18 98q23 123 -39 184q-62 62 -177 62q-116 0 -198 -65t-104 -181l-18 -98h518zM618 1081q182 0 287 -105q104 -105 68 -300l-37 -205q-2 -20 -25 -20
h-659l-16 -89q-25 -115 36 -177t181 -62q162 0 329 121q18 14 31 -4l53 -84q10 -23 -6 -31q-190 -147 -428 -148q-176 1 -286 105t-74 285l59 333q35 186 170 284t317 97z" />
    <glyph glyph-name="ecircumflex" unicode="&#xea;" horiz-adv-x="1038" 
d="M831 1223q-16 0 -26 14l-117 190l-190 -192q-10 -12 -29 -12h-115q-14 0 -18 9t6 17l281 277q12 12 28 12h101q16 0 24 -14l174 -275q14 -27 -12 -26h-107zM797 590l18 98q23 123 -39 184q-62 62 -177 62q-116 0 -198 -65t-104 -181l-18 -98h518zM618 1081
q182 0 287 -105q104 -105 68 -300l-37 -205q-2 -20 -25 -20h-659l-16 -89q-25 -115 36 -177t181 -62q162 0 329 121q18 14 31 -4l53 -84q10 -23 -6 -31q-190 -147 -428 -148q-176 1 -286 105t-74 285l59 333q35 186 170 284t317 97z" />
    <glyph glyph-name="edieresis" unicode="&#xeb;" horiz-adv-x="1038" 
d="M811 1433q31 23 73 23t64 -28t15 -73q-8 -44 -38 -69q-30 -24 -73 -24t-66 28q-22 28 -14 74q8 45 39 69zM420 1433q32 23 74 23t64 -28t13 -73q-7 -44 -37 -69q-30 -24 -73 -24t-66 28t-15 74q8 45 40 69zM797 590l18 98q23 123 -39 184q-62 62 -177 62q-116 0 -198 -65
t-104 -181l-18 -98h518zM618 1081q182 0 287 -105q104 -105 68 -300l-37 -205q-2 -20 -25 -20h-659l-16 -89q-25 -115 36 -177t181 -62q162 0 329 121q18 14 31 -4l53 -84q10 -23 -6 -31q-190 -147 -428 -148q-176 1 -286 105t-74 285l59 333q35 186 170 284t317 97z" />
    <glyph glyph-name="igrave" unicode="&#xec;" horiz-adv-x="440" 
d="M305 1223q-16 0 -26 16l-140 272q-14 27 17 27h120q17 0 27 -16l111 -273q10 -27 -19 -26h-90zM188 0h-120q-25 0 -21 25l182 1013q0 20 23 21h121q25 0 20 -25l-182 -1014q0 -20 -23 -20z" />
    <glyph glyph-name="iacute" unicode="&#xed;" horiz-adv-x="440" 
d="M348 1223h-94q-14 0 -18 9t6 17l215 275q8 14 26 14h129q14 0 18 -8t-5 -19l-250 -276q-11 -12 -27 -12zM188 0h-120q-25 0 -21 25l182 1013q0 20 23 21h121q25 0 20 -25l-182 -1014q0 -20 -23 -20z" />
    <glyph glyph-name="icircumflex" unicode="&#xee;" horiz-adv-x="438" 
d="M178 1223h-108q-14 0 -19 8q-4 8 6 18l260 277q12 12 29 12h98q18 0 27 -14l156 -275q14 -27 -15 -26h-112q-16 0 -27 14l-98 188l-168 -190q-13 -12 -29 -12zM186 0h-120q-25 0 -19 25l180 1013q4 20 25 21h119q27 0 20 -25l-180 -1014q-5 -20 -25 -20z" />
    <glyph glyph-name="idieresis" unicode="&#xef;" horiz-adv-x="440" 
d="M559 1456q43 0 65 -28t14 -73q-9 -44 -39 -69q-30 -24 -73 -24q-42 0 -64 28t-14 74q18 93 111 92zM142 1433q30 23 73 23t65 -28t13 -73q-8 -44 -38 -69q-30 -24 -73 -24q-42 0 -64 28t-14 74q8 45 38 69zM188 0h-120q-25 0 -21 25l182 1013q0 20 23 21h121q25 0 20 -25
l-182 -1014q0 -20 -23 -20z" />
    <glyph glyph-name="eth" unicode="&#xf0;" horiz-adv-x="1095" 
d="M238 367q-42 -244 220 -244q130 1 214 69t104 187l41 211q25 123 -33 201q-58 77 -185 77q-128 0 -212 -70t-104 -190zM445 -23q-202 0 -303 113t-70 295l43 236q33 182 161 287q128 106 314 106t282 -129q14 205 -116 329l-215 -141q-18 -10 -31 14l-25 46q-12 23 2 32
l175 115q-92 49 -216 63q-35 4 -26 33l18 99q4 16 19 16q207 -16 350 -115l174 115q18 14 31 -14l26 -47q10 -23 -6 -33l-141 -94q180 -199 121 -551l-68 -379q-31 -180 -164 -288t-335 -108z" />
    <glyph glyph-name="ntilde" unicode="&#xf1;" horiz-adv-x="1101" 
d="M813 1253q-55 0 -137 40t-123 40t-80 -55q-12 -18 -31 -6l-59 37q-18 12 -8 30q78 129 192 129q55 0 137 -40t122 -40q38 0 79 56q12 18 31 6l59 -37q17 -15 9 -29q-78 -131 -191 -131zM182 0h-121q-25 0 -18 25l174 956q2 14 19 25q194 76 394 76t301 -120t62 -327
l-110 -615q-4 -20 -25 -20h-121q-25 0 -20 25l110 622q55 287 -217 287q-125 0 -243 -43l-160 -871q0 -20 -25 -20z" />
    <glyph glyph-name="ograve" unicode="&#xf2;" horiz-adv-x="1056" 
d="M641 1223q-16 0 -27 16l-139 272q-14 27 17 27h120q17 0 27 -16l111 -273q10 -27 -19 -26h-90zM452 125q128 0 210 69t100 183l53 295q20 114 -35 188t-178 74t-205 -69t-104 -181l-51 -295q-20 -119 32 -191q50 -72 178 -73zM928 367q-35 -177 -167 -283t-326 -106
t-293 123q-99 124 -66 302l53 295q31 168 165 276t329 108t293 -127q98 -126 65 -296z" />
    <glyph glyph-name="oacute" unicode="&#xf3;" horiz-adv-x="1056" 
d="M643 1223h-94q-14 0 -19 9q-4 9 7 17l215 275q8 14 26 14h129q15 0 19 -8t-6 -19l-250 -276q-11 -12 -27 -12zM452 125q128 0 210 69t100 183l53 295q20 114 -35 188t-178 74t-205 -69t-104 -181l-51 -295q-20 -119 32 -191q50 -72 178 -73zM928 367q-35 -177 -167 -283
t-326 -106t-293 123q-99 124 -66 302l53 295q31 168 165 276t329 108t293 -127q98 -126 65 -296z" />
    <glyph glyph-name="ocircumflex" unicode="&#xf4;" horiz-adv-x="1056" 
d="M836 1223q-16 0 -27 14l-117 190l-190 -192q-10 -12 -29 -12h-115q-14 0 -18 9t6 17l281 277q12 12 28 12h101q16 0 24 -14l174 -275q14 -27 -12 -26h-106zM452 125q128 0 210 69t100 183l53 295q20 114 -35 188t-178 74t-205 -69t-104 -181l-51 -295q-20 -119 32 -191
q50 -72 178 -73zM928 367q-35 -177 -167 -283t-326 -106t-293 123q-99 124 -66 302l53 295q31 168 165 276t329 108t293 -127q98 -126 65 -296z" />
    <glyph glyph-name="otilde" unicode="&#xf5;" horiz-adv-x="1056" 
d="M791 1253q-55 0 -137 40t-124 40q-40 0 -79 -55q-12 -18 -31 -6l-60 37q-18 12 -8 30q78 129 193 129q55 0 137 -40t121 -40t80 56q12 18 30 6l60 -37q16 -15 8 -29q-78 -131 -190 -131zM452 125q128 0 210 69t100 183l53 295q20 114 -35 188t-178 74t-205 -69t-104 -181
l-51 -295q-20 -119 32 -191q50 -72 178 -73zM928 367q-35 -177 -167 -283t-326 -106t-293 123q-99 124 -66 302l53 295q31 168 165 276t329 108t293 -127q98 -126 65 -296z" />
    <glyph glyph-name="odieresis" unicode="&#xf6;" horiz-adv-x="1056" 
d="M815 1433q31 23 73 23t64 -28t15 -73q-8 -44 -38 -69q-30 -24 -73 -24q-44 0 -66 28t-14 74q8 45 39 69zM424 1433q31 23 74 23t64 -28t13 -73q-7 -44 -37 -69q-30 -24 -73 -24t-66 28t-15 74q8 45 40 69zM452 125q128 0 210 69t100 183l53 295q20 114 -35 188t-178 74
t-205 -69t-104 -181l-51 -295q-20 -119 32 -191q50 -72 178 -73zM928 367q-35 -177 -167 -283t-326 -106t-293 123q-99 124 -66 302l53 295q31 168 165 276t329 108t293 -127q98 -126 65 -296z" />
    <glyph glyph-name="divide" unicode="&#xf7;" horiz-adv-x="1189" 
d="M696 1151q49 0 79 -36t20 -86t-43 -78q-33 -27 -83 -27t-78 34t-19 86q9 50 42 78t82 29zM543 207q-49 0 -77 36t-18 86t41 78q33 27 82 27t78 -36t20 -85t-43 -77t-83 -29zM1022 606h-829q-25 0 -19 25l21 108q2 20 24 21h828q25 0 18 -25l-18 -108q-5 -21 -25 -21z" />
    <glyph glyph-name="oslash" unicode="&#xf8;" horiz-adv-x="1058" 
d="M604 934q-123 0 -205 -69t-104 -181l-51 -295q-16 -82 6 -141l473 659q-53 27 -119 27zM451 125q131 0 213 69t100 183l53 295q12 82 -10 141l-477 -663q49 -25 121 -25zM23 -117q-11 0 -17 9t2 18l135 190q-100 123 -65 303l51 295q31 168 166 276t328 107
q106 0 192 -43l100 140q14 14 29 14h98q14 0 18 -9t-3 -20l-146 -202q104 -123 72 -302l-53 -292q-35 -177 -167 -283t-327 -107q-113 0 -196 46l-90 -125q-8 -14 -29 -15h-98z" />
    <glyph glyph-name="ugrave" unicode="&#xf9;" horiz-adv-x="1091" 
d="M645 1223q-16 0 -27 16l-139 272q-14 27 17 27h120q17 0 27 -16l111 -273q10 -27 -19 -26h-90zM905 1059h123q25 0 21 -25l-175 -956q-2 -18 -20 -25q-190 -76 -389 -76t-298 121t-61 324l111 616q4 20 25 21h123q25 0 18 -25l-113 -622q-51 -287 213 -287q129 0 240 43
l160 870q-1 21 22 21z" />
    <glyph glyph-name="uacute" unicode="&#xfa;" horiz-adv-x="1091" 
d="M653 1223h-94q-14 0 -18 9t6 17l215 275q8 14 26 14h130q14 0 18 -8t-6 -19l-250 -276q-9 -12 -27 -12zM905 1059h123q25 0 21 -25l-175 -956q-2 -18 -20 -25q-190 -76 -389 -76t-298 121t-61 324l111 616q4 20 25 21h123q25 0 18 -25l-113 -622q-51 -287 213 -287
q129 0 240 43l160 870q-1 21 22 21z" />
    <glyph glyph-name="ucircumflex" unicode="&#xfb;" horiz-adv-x="1091" 
d="M850 1223q-16 0 -27 14l-116 190l-191 -192q-8 -12 -29 -12h-114q-14 0 -19 9q-4 9 6 17l281 277q12 12 29 12h100q17 0 25 -14l174 -275q14 -27 -13 -26h-106zM905 1059h123q25 0 21 -25l-175 -956q-2 -18 -20 -25q-190 -76 -389 -76t-298 121t-61 324l111 616
q4 20 25 21h123q25 0 18 -25l-113 -622q-51 -287 213 -287q129 0 240 43l160 870q-1 21 22 21z" />
    <glyph glyph-name="udieresis" unicode="&#xfc;" horiz-adv-x="1091" 
d="M825 1433q31 23 73 23t64 -28t15 -73q-8 -44 -38 -69q-30 -24 -73 -24q-44 0 -66 28t-14 74q8 45 39 69zM434 1433q31 23 74 23q42 0 64 -28t14 -73q-8 -44 -38 -69q-30 -24 -73 -24t-65 28t-15 74q8 45 39 69zM905 1059h123q25 0 21 -25l-175 -956q-2 -18 -20 -25
q-190 -76 -389 -76t-298 121t-61 324l111 616q4 20 25 21h123q25 0 18 -25l-113 -622q-51 -287 213 -287q129 0 240 43l160 870q-1 21 22 21z" />
    <glyph glyph-name="yacute" unicode="&#xfd;" horiz-adv-x="1095" 
d="M653 1223h-94q-14 0 -18 9t6 17l215 275q8 14 26 14h130q14 0 18 -8t-6 -19l-250 -276q-9 -12 -27 -12zM1026 1059q25 0 21 -25l-181 -1009q-80 -434 -483 -435q-231 0 -369 142q-10 16 0 30l70 82q14 18 33 2q117 -106 272 -106q268 0 313 299l9 43q-137 -47 -246 -47
q-186 0 -288 113q-101 114 -64 311l104 579q4 20 25 21h120q25 0 19 -25l-105 -590q-52 -261 224 -261q130 0 237 63l142 792q4 20 24 21h123z" />
    <glyph glyph-name="thorn" unicode="&#xfe;" horiz-adv-x="1081" 
d="M608 934q-140 0 -248 -80l-116 -659q100 -70 233 -70q269 0 318 285l39 233q26 151 -30 221t-196 70zM635 1081q217 0 307 -126t55 -326l-36 -232q-33 -195 -162 -307t-322 -113q-145 0 -260 68l-74 -414q-4 -20 -24 -20h-121q-25 0 -21 24l322 1809q0 20 25 20h120
q25 0 21 -24l-74 -422q123 63 244 63z" />
    <glyph glyph-name="ydieresis" unicode="&#xff;" horiz-adv-x="1095" 
d="M836 1433q30 23 72 23t64 -28t15 -73q-8 -44 -38 -69q-31 -24 -73 -24t-65 28t-15 74q8 45 40 69zM444 1433q31 23 74 23q42 0 64 -28t14 -73q-8 -44 -38 -69q-30 -24 -73 -24t-65 28t-14 74q8 45 38 69zM1026 1059q25 0 21 -25l-181 -1009q-80 -434 -483 -435
q-231 0 -369 142q-10 16 0 30l70 82q14 18 33 2q117 -106 272 -106q268 0 313 299l9 43q-137 -47 -246 -47q-186 0 -288 113q-101 114 -64 311l104 579q4 20 25 21h120q25 0 19 -25l-105 -590q-52 -261 224 -261q130 0 237 63l142 792q4 20 24 21h123z" />
    <glyph glyph-name="Amacron" unicode="&#x100;" horiz-adv-x="1204" 
d="M1075 1645h-538q-25 0 -21 22l19 96q4 20 24 21h541q25 0 18 -23l-18 -96q-5 -20 -25 -20zM739 1272h-6l-356 -731h469zM1079 0h-131q-23 0 -24 20l-54 365h-569l-184 -369q-10 -16 -29 -16h-143q-27 0 -17 27l727 1421q8 16 29 16h160q23 0 24 -20l232 -1419
q4 -25 -21 -25z" />
    <glyph glyph-name="amacron" unicode="&#x101;" horiz-adv-x="1015" 
d="M406 1425h499q25 0 19 -24l-19 -90q-2 -20 -22 -21h-500q-22 0 -18 23l16 92q4 20 25 20zM411 125q121 0 253 37l53 307q-123 25 -232 25q-261 0 -292 -168q-18 -98 39 -150q58 -51 179 -51zM404 -23q-190 1 -299 99q-110 98 -76 270q27 143 152 218q126 75 311 75
q125 0 249 -27l17 88q20 118 -26 176t-192 58t-282 -80q-23 -14 -29 10l-39 88q-6 20 7 29q163 100 367 100q204 1 297 -107t61 -284l-107 -616q-2 -13 -18 -25q-203 -72 -393 -72z" />
    <glyph glyph-name="Abreve" unicode="&#x102;" horiz-adv-x="1204" 
d="M786 1593q-130 0 -206 80t-70 205q0 18 22 23l97 24q10 2 17 -4t5 -16q-4 -170 154 -170q166 0 221 176q6 20 27 14l90 -24q24 -7 18 -23q-78 -285 -375 -285zM739 1272h-6l-356 -731h469zM1079 0h-131q-23 0 -24 20l-54 365h-569l-184 -369q-10 -16 -29 -16h-143
q-27 0 -17 27l727 1421q8 16 29 16h160q23 0 24 -20l232 -1419q4 -25 -21 -25z" />
    <glyph glyph-name="abreve" unicode="&#x103;" horiz-adv-x="1015" 
d="M612 1223q-128 0 -194 83t-62 193q0 20 23 25l84 12q23 0 24 -23q0 -158 146 -157q154 0 209 164q6 20 26 16l88 -12q27 -4 17 -27q-84 -274 -361 -274zM411 125q121 0 253 37l53 307q-123 25 -232 25q-261 0 -292 -168q-18 -98 39 -150q58 -51 179 -51zM404 -23
q-190 1 -299 99q-110 98 -76 270q27 143 152 218q126 75 311 75q125 0 249 -27l17 88q20 118 -26 176t-192 58t-282 -80q-23 -14 -29 10l-39 88q-6 20 7 29q163 100 367 100q204 1 297 -107t61 -284l-107 -616q-2 -13 -18 -25q-203 -72 -393 -72z" />
    <glyph glyph-name="Aogonek" unicode="&#x104;" horiz-adv-x="1204" 
d="M727 1272l-354 -731h469l-107 731h-8zM899 -410q-88 0 -132 48t-32 122q11 74 67 136t144 106h-4q-18 4 -22 29l-54 354h-569l-184 -369q-10 -16 -29 -16h-143q-27 0 -15 27l727 1421q8 16 27 16h162q23 0 24 -20l232 -1421q4 -20 -15 -25q-84 -37 -139 -91
q-55 -55 -61 -97t9 -56t56 -14t92 18q23 8 27 -16l10 -86q2 -21 -14 -27q-76 -39 -164 -39z" />
    <glyph glyph-name="aogonek" unicode="&#x105;" horiz-adv-x="1028" 
d="M417 123q120 0 255 37l53 309q-127 25 -233 25q-264 0 -297 -168q-18 -98 42 -150t180 -53zM581 -408q-87 0 -130 50t-32 120q22 140 189 236q-109 -20 -211 -21q-177 1 -289 99t-81 256t157 232q127 75 287 75t279 -29l16 90q20 118 -26 176t-196 58t-288 -82
q-20 -10 -31 10l-37 90q-8 16 5 27q167 102 375 102q208 1 300 -107t62 -284l-107 -616q-2 -18 -20 -25q-94 -47 -162 -115t-76 -132t62 -62q47 0 98 18q25 6 27 -16l10 -86q2 -21 -14 -27q-80 -37 -167 -37z" />
    <glyph glyph-name="Cacute" unicode="&#x106;" horiz-adv-x="1148" 
d="M834 1608h-107q-14 0 -18 9t6 17l256 277q12 12 28 12h146q14 0 18 -9t-6 -18l-295 -278q-10 -10 -28 -10zM530 -23q-218 1 -334 143t-73 386l86 495q41 236 201 361t387 125t395 -144q20 -12 2 -30l-82 -96q-12 -16 -31 -3q-135 113 -302 113t-269 -93t-131 -257
l-82 -481q-29 -158 43 -258t227 -101q203 0 379 137q20 20 31 -6l55 -104q12 -19 -4 -29q-223 -158 -498 -158z" />
    <glyph glyph-name="cacute" unicode="&#x107;" horiz-adv-x="925" 
d="M612 1223h-94q-14 0 -18 9t6 17l215 275q8 14 27 14h129q14 0 18 -8t-6 -19l-250 -276q-9 -12 -27 -12zM434 -23q-195 0 -293 118t-63 313l51 292q31 174 160 278t308 103q179 0 321 -106q14 -12 2 -31l-64 -82q-12 -16 -31 -4q-102 76 -227 76t-204 -66t-99 -176
l-53 -295q-23 -129 33 -201t184 -73q128 0 266 94q20 16 31 -6l51 -90q8 -19 -8 -33q-170 -111 -365 -111z" />
    <glyph glyph-name="Cdotaccent" unicode="&#x10a;" horiz-adv-x="1148" 
d="M946 1739q-18 -102 -123 -103q-55 0 -79 37t-16 81t42 73q33 29 84 29t76 -35q24 -35 16 -82zM530 -23q-218 1 -334 143t-73 386l86 495q41 236 201 361t387 125t395 -144q20 -12 2 -30l-82 -96q-12 -16 -31 -3q-135 113 -302 113t-269 -93t-131 -257l-82 -481
q-29 -158 43 -258t227 -101q203 0 379 137q20 20 31 -6l55 -104q12 -19 -4 -29q-223 -158 -498 -158z" />
    <glyph glyph-name="cdotaccent" unicode="&#x10b;" horiz-adv-x="925" 
d="M620 1257q-42 0 -69 33t-19 76t38 68q30 24 74 24t70 -32t19 -76q-8 -43 -39 -68q-32 -25 -74 -25zM434 -23q-195 0 -293 118t-63 313l51 292q31 174 160 278t308 103q179 0 321 -106q14 -12 2 -31l-64 -82q-12 -16 -31 -4q-102 76 -227 76t-204 -66t-99 -176l-53 -295
q-23 -129 33 -201t184 -73q128 0 266 94q20 16 31 -6l51 -90q8 -19 -8 -33q-170 -111 -365 -111z" />
    <glyph glyph-name="Ccaron" unicode="&#x10c;" horiz-adv-x="1148" 
d="M1030 1923h125q15 0 19 -9t-7 -18l-286 -276q-10 -12 -27 -12h-111q-16 0 -26 14l-193 274q-8 10 -3 18t18 9h118q16 0 29 -14l127 -185l191 187q8 12 26 12zM530 -23q-218 1 -334 143t-73 386l86 495q41 236 201 361t387 125t395 -144q20 -12 2 -30l-82 -96
q-12 -16 -31 -3q-135 113 -302 113t-269 -93t-131 -257l-82 -481q-29 -158 43 -258t227 -101q203 0 379 137q20 20 31 -6l55 -104q12 -19 -4 -29q-223 -158 -498 -158z" />
    <glyph glyph-name="ccaron" unicode="&#x10d;" horiz-adv-x="925" 
d="M385 1538h107q16 0 26 -14l117 -191l190 193q8 12 29 12h115q14 0 18 -9t-6 -18l-281 -276q-12 -12 -28 -12h-101q-16 0 -24 14l-174 274q-14 27 12 27zM434 -23q-195 0 -293 118t-63 313l51 292q31 174 160 278t308 103q179 0 321 -106q14 -12 2 -31l-64 -82
q-12 -16 -31 -4q-102 76 -227 76t-204 -66t-99 -176l-53 -295q-23 -129 33 -201t184 -73q128 0 266 94q20 16 31 -6l51 -90q8 -19 -8 -33q-170 -111 -365 -111z" />
    <glyph glyph-name="Dcaron" unicode="&#x10e;" horiz-adv-x="1312" 
d="M1030 1923h125q15 0 19 -9t-7 -18l-286 -276q-10 -12 -27 -12h-111q-16 0 -26 14l-193 274q-8 10 -3 18t18 9h118q16 0 29 -14l127 -185l191 187q8 12 26 12zM602 158q166 0 269 92t135 268l73 428q63 360 -262 361h-334l-202 -1149h321zM592 0h-488q-25 0 -20 25
l250 1419q4 20 24 20h480q229 0 345 -146t70 -388l-73 -428q-90 -502 -588 -502z" />
    <glyph glyph-name="dcaron" unicode="&#x10f;" horiz-adv-x="1103" 
d="M1214 1120h-75q-29 0 -17 27l127 301q6 16 25 16h104q27 0 15 -26l-152 -301q-7 -17 -27 -17zM464 125q138 0 230 43l123 698q-92 66 -225 66q-258 0 -307 -285l-39 -231q-25 -156 28 -224q52 -68 190 -67zM450 -23q-220 0 -312 126q-91 126 -56 327l39 229
q31 195 158 309t313 113q145 0 252 -67l76 430q4 20 24 20h121q25 0 20 -24l-239 -1368q-3 -15 -21 -25q-155 -70 -375 -70z" />
    <glyph glyph-name="Dcroat" unicode="&#x110;" horiz-adv-x="1329" 
d="M727 819q25 0 18 -24l-12 -76q-4 -20 -24 -21h-318l-94 -540h324q164 0 267 92t136 268l74 428q61 360 -264 361h-334l-86 -488h313zM375 1464h479q229 0 345 -146t73 -388l-76 -428q-88 -502 -588 -502h-487q-25 0 -19 25l119 673h-149q-25 0 -19 25l15 76q0 20 22 20
h150l110 625q5 20 25 20z" />
    <glyph glyph-name="dcroat" unicode="&#x111;" horiz-adv-x="1069" 
d="M468 125q142 0 234 43l119 676q-96 63 -229 63q-262 0 -309 -278l-39 -213q-29 -156 26 -224q56 -68 198 -67zM453 -23q-225 0 -319 126q-93 126 -56 327l39 211q35 193 161 305t314 111q145 0 256 -66l37 213h-281q-25 0 -20 23l14 67q0 20 23 21h284l23 129q0 20 24 20
h121q25 0 19 -24l-21 -125h156q25 0 20 -23l-12 -67q-2 -20 -25 -21h-159l-199 -1132q0 -15 -18 -25q-156 -70 -381 -70z" />
    <glyph glyph-name="Emacron" unicode="&#x112;" horiz-adv-x="1128" 
d="M1071 1645h-539q-25 0 -20 22l18 96q4 20 25 21h541q25 0 18 -23l-18 -96q-5 -20 -25 -20zM993 825q25 0 21 -24l-21 -111q-4 -20 -24 -20h-596l-90 -512h659q20 0 21 -23l-21 -115q0 -20 -24 -20h-814q-25 0 -20 25l252 1419q4 20 24 20h789q22 1 18 -24l-18 -111
q-4 -23 -25 -22h-641l-84 -482h594z" />
    <glyph glyph-name="emacron" unicode="&#x113;" horiz-adv-x="1038" 
d="M436 1425h500q25 0 18 -24l-18 -90q-2 -20 -23 -21h-499q-23 0 -19 23l17 92q4 20 24 20zM797 590l18 98q23 123 -39 184q-62 62 -177 62q-116 0 -198 -65t-104 -181l-18 -98h518zM618 1081q182 0 287 -105q104 -105 68 -300l-37 -205q-2 -20 -25 -20h-659l-16 -89
q-25 -115 36 -177t181 -62q162 0 329 121q18 14 31 -4l53 -84q10 -23 -6 -31q-190 -147 -428 -148q-176 1 -286 105t-74 285l59 333q35 186 170 284t317 97z" />
    <glyph glyph-name="Edotaccent" unicode="&#x116;" horiz-adv-x="1128" 
d="M926 1739q-18 -102 -123 -103q-55 0 -79 37t-16 81t42 73t84 29t75 -36q25 -34 17 -81zM993 825q25 0 21 -24l-21 -111q-4 -20 -24 -20h-596l-90 -512h659q20 0 21 -23l-21 -115q0 -20 -24 -20h-814q-25 0 -20 25l252 1419q4 20 24 20h789q22 1 18 -24l-18 -111
q-4 -23 -25 -22h-641l-84 -482h594z" />
    <glyph glyph-name="edotaccent" unicode="&#x117;" horiz-adv-x="1038" 
d="M655 1257q-43 0 -69 33t-19 76q8 43 38 68q30 24 74 24q45 0 71 -32t18 -76q-8 -43 -39 -68t-74 -25zM797 590l18 98q23 123 -39 184q-62 62 -177 62q-116 0 -198 -65t-104 -181l-18 -98h518zM618 1081q182 0 287 -105q104 -105 68 -300l-37 -205q-2 -20 -25 -20h-659
l-16 -89q-25 -115 36 -177t181 -62q162 0 329 121q18 14 31 -4l53 -84q10 -23 -6 -31q-190 -147 -428 -148q-176 1 -286 105t-74 285l59 333q35 186 170 284t317 97z" />
    <glyph glyph-name="Eogonek" unicode="&#x118;" horiz-adv-x="1128" 
d="M993 825q25 0 21 -24l-21 -111q-4 -20 -24 -20h-596l-90 -512h659q20 0 21 -23l-21 -119q0 -16 -20 -22q-78 -39 -129 -92q-51 -54 -57 -94t8 -54t60 -14t89 18q25 6 27 -16l10 -86q2 -20 -15 -27q-79 -37 -165 -37t-129 48t-31 133q25 135 201 227h-687q-25 0 -20 25
l252 1419q0 20 24 20h789q22 1 18 -24l-18 -111q-4 -23 -25 -22h-641l-84 -482h594z" />
    <glyph glyph-name="eogonek" unicode="&#x119;" horiz-adv-x="1021" 
d="M297 692l-18 -102h501l19 108q20 117 -37 176q-57 60 -170 60t-194 -64t-101 -178zM503 -408q-91 0 -134 50t-27 150q16 98 133 188q-14 -2 -41 -3q-178 1 -286 105t-74 285l57 338q33 182 169 279t313 97t277 -104t66 -293l-36 -213q-4 -20 -25 -20h-641l-16 -89
q-20 -115 38 -177t177 -62q154 0 313 121q18 14 31 -4l53 -84q10 -20 -6 -33q-86 -66 -160 -96q-84 -45 -138 -105t-60 -104q-6 -46 8 -62q16 -16 61 -16t88 18q23 8 27 -16l12 -86q2 -21 -16 -27q-72 -37 -163 -37z" />
    <glyph glyph-name="Ecaron" unicode="&#x11a;" horiz-adv-x="1128" 
d="M1014 1923h125q14 0 18 -9t-6 -18l-287 -276q-8 -12 -26 -12h-111q-16 0 -27 14l-192 274q-8 10 -3 18t17 9h119q16 0 29 -14l127 -185l190 187q9 12 27 12zM993 825q25 0 21 -24l-21 -111q-4 -20 -24 -20h-596l-90 -512h659q20 0 21 -23l-21 -115q0 -20 -24 -20h-814
q-25 0 -20 25l252 1419q4 20 24 20h789q22 1 18 -24l-18 -111q-4 -23 -25 -22h-641l-84 -482h594z" />
    <glyph glyph-name="ecaron" unicode="&#x11b;" horiz-adv-x="1038" 
d="M414 1538h106q16 0 27 -14l117 -191l190 193q10 12 29 12h114q15 0 19 -9t-6 -18l-281 -276q-12 -12 -29 -12h-100q-17 0 -25 14l-174 274q-14 27 13 27zM797 590l18 98q23 123 -39 184q-62 62 -177 62q-116 0 -198 -65t-104 -181l-18 -98h518zM618 1081q182 0 287 -105
q104 -105 68 -300l-37 -205q-2 -20 -25 -20h-659l-16 -89q-25 -115 36 -177t181 -62q162 0 329 121q18 14 31 -4l53 -84q10 -23 -6 -31q-190 -147 -428 -148q-176 1 -286 105t-74 285l59 333q35 186 170 284t317 97z" />
    <glyph glyph-name="Gbreve" unicode="&#x11e;" horiz-adv-x="1269" 
d="M803 1593q-131 0 -207 80t-70 205q0 18 23 23l96 24q9 2 17 -4t6 -16q-4 -170 153 -170q166 0 221 176q6 20 27 14l90 -24q25 -7 19 -23q-78 -285 -375 -285zM799 1487q272 0 442 -158q14 -12 0 -31l-80 -90q-16 -16 -33 -4q-152 125 -356 125q-150 0 -255 -94t-136 -264
l-86 -488q-25 -147 48 -245t228 -99q197 4 359 109l69 395h-329q-25 0 -19 25l21 110q4 23 24 23h482q25 0 18 -25l-100 -577q-3 -11 -13 -25q-223 -195 -532 -194q-223 0 -345 148t-83 370l86 489q41 236 206 368t384 132z" />
    <glyph glyph-name="gbreve" unicode="&#x11f;" horiz-adv-x="1069" 
d="M655 1223q-127 0 -193 83t-63 193q0 20 23 25l84 12q23 0 24 -23q0 -158 146 -157q154 0 209 164q6 20 26 16l88 -12q27 -4 17 -27q-84 -274 -361 -274zM616 934q-131 0 -218 -65t-109 -197l-39 -217q-45 -268 213 -269q152 0 258 70l106 629q-80 49 -211 49zM362 -410
q-212 0 -358 142q-14 14 0 30l64 82q14 20 32 4q115 -104 273 -104q266 0 313 301l8 43q-119 -53 -250 -53q-199 -1 -296 113t-62 321l37 213q37 207 172 303t338 96t360 -98q16 -10 13 -29l-158 -929q-35 -209 -155 -322q-119 -113 -331 -113z" />
    <glyph glyph-name="Gdotaccent" unicode="&#x120;" horiz-adv-x="1269" 
d="M942 1739q-18 -102 -123 -103q-55 0 -79 37t-16 81t42 73q33 29 84 29t76 -35q24 -35 16 -82zM799 1487q272 0 442 -158q14 -12 0 -31l-80 -90q-16 -16 -33 -4q-152 125 -356 125q-150 0 -255 -94t-136 -264l-86 -488q-25 -147 48 -245t228 -99q197 4 359 109l69 395
h-329q-25 0 -19 25l21 110q4 23 24 23h482q25 0 18 -25l-100 -577q-3 -11 -13 -25q-223 -195 -532 -194q-223 0 -345 148t-83 370l86 489q41 236 206 368t384 132z" />
    <glyph glyph-name="gdotaccent" unicode="&#x121;" horiz-adv-x="1069" 
d="M666 1257q-42 0 -70 33q-26 33 -18 76t37 68q30 24 74 24q45 0 71 -32t18 -76q-8 -43 -39 -68t-73 -25zM616 934q-131 0 -218 -65t-109 -197l-39 -217q-45 -268 213 -269q152 0 258 70l106 629q-80 49 -211 49zM362 -410q-212 0 -358 142q-14 14 0 30l64 82q14 20 32 4
q115 -104 273 -104q266 0 313 301l8 43q-119 -53 -250 -53q-199 -1 -296 113t-62 321l37 213q37 207 172 303t338 96t360 -98q16 -10 13 -29l-158 -929q-35 -209 -155 -322q-119 -113 -331 -113z" />
    <glyph glyph-name="uni0122" unicode="&#x122;" horiz-adv-x="1269" 
d="M434 -504h-86q-23 0 -16 27l127 305q10 16 26 16h119q31 0 17 -26l-160 -305q-7 -17 -27 -17zM799 1487q272 0 442 -158q14 -12 0 -31l-80 -90q-16 -16 -33 -4q-152 125 -356 125q-150 0 -255 -94t-136 -264l-86 -488q-25 -147 48 -245t228 -99q197 4 359 109l69 395
h-329q-25 0 -19 25l21 110q4 23 24 23h482q25 0 18 -25l-100 -577q-3 -11 -13 -25q-223 -195 -532 -194q-223 0 -345 148t-83 370l86 489q41 236 206 368t384 132z" />
    <glyph glyph-name="uni0123" unicode="&#x123;" horiz-adv-x="1069" 
d="M690 1223h-104q-29 0 -15 26l152 301q10 16 29 17h75q27 0 17 -27l-127 -301q-13 -16 -27 -16zM616 934q-131 0 -218 -65t-109 -197l-39 -217q-45 -268 213 -269q152 0 258 70l106 629q-80 49 -211 49zM362 -410q-212 0 -358 142q-14 14 0 30l64 82q14 20 32 4
q115 -104 273 -104q266 0 313 301l8 43q-119 -53 -250 -53q-199 -1 -296 113t-62 321l37 213q37 207 172 303t338 96t360 -98q16 -10 13 -29l-158 -929q-35 -209 -155 -322q-119 -113 -331 -113z" />
    <glyph glyph-name="Hbar" unicode="&#x126;" horiz-adv-x="1357" 
d="M410 823h641l55 312h-643zM1405 1255q27 0 20 -24l-14 -76q-4 -20 -25 -20h-108l-197 -1115q-4 -20 -24 -20h-127q-25 0 -19 25l113 643h-643l-115 -648q0 -20 -24 -20h-127q-25 0 -21 25l197 1110h-137q-25 0 -21 24l14 76q4 20 25 20h141l33 189q0 20 25 20h127
q25 0 20 -24l-33 -185h641l33 189q4 20 25 20h129q25 0 20 -24l-35 -185h107z" />
    <glyph glyph-name="hbar" unicode="&#x127;" horiz-adv-x="1099" 
d="M647 1057q185 0 281 -117t57 -342l-102 -578q-4 -20 -25 -20h-121q-25 0 -20 25l106 596q51 291 -209 290q-135 0 -258 -77l-143 -814q0 -20 -25 -20h-120q-25 0 -21 25l209 1179h-154q-25 0 -18 23l12 67q2 20 25 21h155l23 129q0 20 23 20h122q25 0 19 -24l-23 -125
h285q25 0 20 -23l-12 -67q-2 -20 -24 -21h-287l-37 -215q125 68 262 68z" />
    <glyph glyph-name="Imacron" unicode="&#x12a;" horiz-adv-x="526" 
d="M233 0h-129q-25 0 -20 25l252 1419q4 20 24 20h127q25 1 21 -24l-250 -1420q-4 -20 -25 -20zM688 1667h-457q-25 0 -20 25l16 96q2 20 25 20h457q25 0 20 -24l-16 -96q-2 -21 -25 -21z" />
    <glyph glyph-name="imacron" unicode="&#x12b;" horiz-adv-x="440" 
d="M188 0h-120q-25 0 -21 25l182 1015q0 20 23 21h121q25 0 20 -25l-182 -1016q0 -20 -23 -20zM547 1286h-387q-25 0 -21 25l19 92q0 20 22 20h389q25 0 19 -24l-17 -92q-4 -21 -24 -21z" />
    <glyph glyph-name="Iogonek" unicode="&#x12e;" horiz-adv-x="526" 
d="M70 -408q-86 0 -129 48t-31 133q20 133 194 227h-2q-23 0 -18 25l250 1419q4 20 24 20h131q25 0 21 -24l-250 -1420q0 -18 -24 -26q-76 -37 -125 -89t-56 -98q-10 -68 60 -67q47 0 98 18q23 8 27 -16l10 -86q2 -21 -14 -27q-80 -37 -166 -37z" />
    <glyph glyph-name="iogonek" unicode="&#x12f;" horiz-adv-x="438" 
d="M341 1257q-42 0 -68 33q-25 33 -17 75t38 67q30 24 72 24t69 -32q26 -32 18 -74q-8 -43 -39 -68t-73 -25zM22 -408q-88 0 -132 48t-32 122q12 72 63 136q52 64 130 104h-2q-8 0 -2 25l180 1013q0 20 23 21h121q25 0 20 -25l-182 -1016q-4 -20 -14 -22q-77 -37 -131 -91
q-54 -55 -60 -97t9 -56t55 -14t96 18q23 10 26 -16l11 -86q1 -19 -15 -27q-76 -37 -164 -37z" />
    <glyph glyph-name="Idotaccent" unicode="&#x130;" horiz-adv-x="524" 
d="M586 1739q-18 -102 -123 -103q-55 0 -79 37t-16 81t42 73t84 29t75 -36q25 -34 17 -81zM233 0h-129q-25 0 -20 25l252 1419q4 20 24 20h127q25 1 21 -24l-250 -1420q-4 -20 -25 -20z" />
    <glyph glyph-name="dotlessi" unicode="&#x131;" horiz-adv-x="440" 
d="M188 0h-120q-25 0 -21 25l182 1013q0 20 23 21h121q25 0 20 -25l-182 -1014q0 -20 -23 -20z" />
    <glyph glyph-name="IJ" unicode="&#x132;" horiz-adv-x="1525" 
d="M862 -23q-223 0 -370 162q-14 14 0 31l69 88q12 20 31 2q127 -127 293 -127q227 0 278 277l185 1034q0 20 24 20h127q25 0 21 -24l-183 -1041q-35 -199 -161 -311t-314 -111zM233 0h-129q-25 0 -20 25l252 1419q4 20 24 20h127q25 1 21 -24l-250 -1420q-4 -20 -25 -20z
" />
    <glyph glyph-name="ij" unicode="&#x133;" horiz-adv-x="993" 
d="M906 1257q-42 0 -68 33t-19 75q8 42 37 67q29 24 72 24q44 0 70 -32t19 -74q-7 -43 -38 -68t-73 -25zM397 -410q-33 0 -86 9q-23 2 -18 26l20 107q0 23 23 18q53 -4 76 -4q137 0 180 242l188 1050q0 20 23 21h123q25 0 20 -25l-188 -1059q-72 -385 -361 -385zM346 1257
q-42 0 -68 33t-18 75t37 67q29 24 72 24t69 -32t19 -74q-8 -43 -38 -68t-73 -25zM188 0h-120q-27 0 -21 25l180 1013q4 20 25 21h121q27 0 20 -25l-182 -1014q0 -20 -23 -20z" />
    <glyph glyph-name="uni0136" unicode="&#x136;" horiz-adv-x="1198" 
d="M430 -504h-86q-23 0 -16 27l127 305q10 16 26 16h119q31 0 16 -26l-159 -305q-7 -17 -27 -17zM1124 1464h172q14 0 18 -8t-7 -18l-668 -637l459 -774q14 -27 -17 -27h-149q-18 0 -25 14l-397 670l-160 -139l-92 -525q-4 -20 -25 -20h-127q-25 0 -20 25l248 1419
q4 20 24 20h129q25 0 21 -24l-117 -662l705 674q12 12 28 12z" />
    <glyph glyph-name="uni0137" unicode="&#x137;" horiz-adv-x="968" 
d="M307 -481h-76q-31 0 -16 26l121 283q10 18 26 18h105q29 0 14 -26l-147 -285q-7 -16 -27 -16zM848 1059h156q16 0 19 -9t-9 -20l-492 -430l344 -571q14 -29 -14 -29h-143q-14 0 -25 16l-283 471l-125 -104l-63 -363q-4 -20 -25 -20h-120q-25 0 -21 25l252 1419
q0 20 25 20h120q25 0 21 -24l-148 -828l504 437q11 10 27 10z" />
    <glyph glyph-name="Lacute" unicode="&#x139;" horiz-adv-x="999" 
d="M492 1608h-107q-14 0 -18 9t6 17l256 277q12 12 28 12h146q14 0 18 -9t-6 -18l-295 -278q-10 -10 -28 -10zM889 158q25 0 20 -25l-20 -113q-4 -20 -25 -20h-760q-25 0 -20 25l252 1419q4 20 24 20h129q25 1 21 -24l-227 -1282h606z" />
    <glyph glyph-name="lacute" unicode="&#x13a;" horiz-adv-x="550" 
d="M440 1608h-106q-14 0 -19 9q-4 9 7 17l256 277q12 12 28 12h146q14 0 18 -9t-6 -18l-295 -278q-11 -10 -29 -10zM313 1464h121q25 0 21 -24l-191 -1080q-41 -231 96 -231q54 0 72 2t24 -3t3 -19l-17 -105q-2 -24 -127 -26t-187 100t-28 295l189 1071q0 20 24 20z" />
    <glyph glyph-name="uni013B" unicode="&#x13b;" horiz-adv-x="999" 
d="M387 -504h-86q-23 0 -16 27l127 305q10 16 26 16h119q29 0 16 -26l-159 -305q-7 -17 -27 -17zM889 158q25 0 20 -25l-20 -113q-4 -20 -25 -20h-760q-25 0 -20 25l252 1419q4 20 24 20h129q25 1 21 -24l-227 -1282h606z" />
    <glyph glyph-name="uni013C" unicode="&#x13c;" horiz-adv-x="550" 
d="M123 -481h-76q-31 0 -16 26l121 283q10 18 26 18h105q29 0 14 -26l-147 -285q-7 -16 -27 -16zM315 1464h121q25 0 21 -24l-191 -1080q-41 -231 96 -231q54 0 72 2t24 -3t3 -19l-17 -105q-2 -24 -127 -26t-187 100t-28 295l189 1071q0 20 24 20z" />
    <glyph glyph-name="Lcaron" unicode="&#x13d;" horiz-adv-x="999" 
d="M723 1102h-82q-10 0 -15 8t-1 18l139 320q6 16 24 16h117q29 0 15 -26l-170 -320q-11 -16 -27 -16zM864 0h-760q-25 0 -20 25l252 1419q4 20 24 20h129q25 0 21 -24l-227 -1282h606q25 0 20 -25l-20 -113q-5 -20 -25 -20z" />
    <glyph glyph-name="lcaron" unicode="&#x13e;" horiz-adv-x="583" 
d="M602 1126h-76q-12 0 -17 8t1 19l127 295q10 16 27 16h104q31 0 14 -26l-151 -295q-9 -17 -29 -17zM315 1464h121q25 0 21 -24l-191 -1082q-37 -223 96 -223q20 0 78 4q23 0 23 -24l-19 -111q-4 -20 -24 -22q-61 -4 -86 -5q-301 0 -232 396l189 1071q4 20 24 20z" />
    <glyph glyph-name="Ldot" unicode="&#x13f;" horiz-adv-x="999" 
d="M731 602q-51 0 -80 36t-19 87t42 80q33 29 84 29q50 0 80 -36t20 -87t-43 -80t-84 -29zM889 158q25 0 20 -25l-20 -113q-4 -20 -25 -20h-760q-25 0 -20 25l252 1419q4 20 24 20h129q25 1 21 -24l-227 -1282h606z" />
    <glyph glyph-name="ldot" unicode="&#x140;" horiz-adv-x="610" 
d="M549 639q-53 0 -77 33t-16 81q8 47 39 73q29 26 75 26t70 -34t15 -85q-14 -94 -106 -94zM334 -20q-145 0 -206 100q-60 100 -26 297l189 1067q0 20 22 20h123q23 0 19 -24l-189 -1075q-37 -227 94 -228q37 0 80 6q27 0 23 -24l-19 -113q-4 -20 -24 -22q-61 -4 -86 -4z
" />
    <glyph glyph-name="Lslash" unicode="&#x141;" horiz-adv-x="1046" 
d="M936 158q20 0 20 -25l-20 -113q-4 -20 -25 -20h-759q-25 0 -21 25l96 544l-192 -114q-12 -8 -20 -3q-7 5 -5 21l21 113q4 16 16 24l211 125l125 709q0 20 25 20h129q25 0 20 -24l-106 -588l301 182q12 6 20 2t6 -18l-18 -115q-2 -14 -19 -26l-319 -193l-92 -526h606z" />
    <glyph glyph-name="lslash" unicode="&#x142;" horiz-adv-x="681" 
d="M432 129q54 0 72 2t23 -3t3 -19l-16 -105q-2 -16 -22 -20q-45 -6 -89 -7q-143 -1 -204 101t-27 295l29 170l-135 -92q-14 -8 -23 -5q-8 4 -4 21l20 113q2 14 19 24l151 103l131 737q0 20 23 20h123q25 0 20 -24l-108 -609l246 162q12 10 20 4t4 -20l-18 -111
q-3 -12 -19 -24l-262 -174l-53 -308q-41 -231 96 -231z" />
    <glyph glyph-name="Nacute" unicode="&#x143;" horiz-adv-x="1384" 
d="M895 1608h-107q-14 0 -18 9t6 17l256 277q12 12 29 12h145q14 0 18 -9t-5 -18l-295 -278q-11 -10 -29 -10zM104 0q-25 0 -20 25l250 1419q4 20 24 20h150q20 0 24 -16l324 -821q20 -53 44 -115t50 -138q26 -75 43 -116h6q72 481 88 576l109 610q4 20 25 20h127
q25 0 20 -24l-250 -1420q-4 -20 -24 -20h-148q-16 0 -26 16l-326 787q-61 158 -137 385h-4q-43 -303 -91 -563l-106 -605q0 -20 -25 -20h-127z" />
    <glyph glyph-name="nacute" unicode="&#x144;" horiz-adv-x="1101" 
d="M655 1223h-94q-14 0 -18 9t6 17l215 275q8 14 27 14h129q14 0 18 -8t-6 -19l-250 -276q-11 -12 -27 -12zM182 0h-121q-25 0 -18 25l174 956q2 14 19 25q194 76 394 76t301 -120t62 -327l-110 -615q-4 -20 -25 -20h-121q-25 0 -20 25l110 622q55 287 -217 287
q-125 0 -243 -43l-160 -871q0 -20 -25 -20z" />
    <glyph glyph-name="uni0145" unicode="&#x145;" horiz-adv-x="1384" 
d="M483 -504h-86q-23 0 -16 27l127 305q10 16 27 16h118q31 0 17 -26l-160 -305q-7 -17 -27 -17zM104 0q-25 0 -20 25l250 1419q4 20 24 20h150q20 0 24 -16l324 -821q20 -53 44 -115t50 -138q26 -75 43 -116h6q72 481 88 576l109 610q4 20 25 20h127q25 0 20 -24
l-250 -1420q-4 -20 -24 -20h-148q-16 0 -26 16l-326 787q-61 158 -137 385h-4q-43 -303 -91 -563l-106 -605q0 -20 -25 -20h-127z" />
    <glyph glyph-name="uni0146" unicode="&#x146;" horiz-adv-x="1101" 
d="M352 -481h-76q-31 0 -16 26l121 283q10 18 27 18h104q29 0 14 -26l-147 -285q-7 -16 -27 -16zM182 0h-121q-25 0 -18 25l174 956q2 14 19 25q194 76 394 76t301 -120t62 -327l-110 -615q-4 -20 -25 -20h-121q-25 0 -20 25l110 622q55 287 -217 287q-125 0 -243 -43
l-160 -871q0 -20 -25 -20z" />
    <glyph glyph-name="Ncaron" unicode="&#x147;" horiz-adv-x="1384" 
d="M1094 1923h125q14 0 18 -9t-6 -18l-287 -276q-10 -12 -26 -12h-111q-16 0 -27 14l-192 274q-8 10 -3 18t17 9h119q16 0 29 -14l127 -185l190 187q11 12 27 12zM104 0q-25 0 -20 25l250 1419q4 20 24 20h150q20 0 24 -16l324 -821q20 -53 44 -115t50 -138q26 -75 43 -116
h6q72 481 88 576l109 610q4 20 25 20h127q25 0 20 -24l-250 -1420q-4 -20 -24 -20h-148q-16 0 -26 16l-326 787q-61 158 -137 385h-4q-43 -303 -91 -563l-106 -605q0 -20 -25 -20h-127z" />
    <glyph glyph-name="ncaron" unicode="&#x148;" horiz-adv-x="1101" 
d="M422 1538h106q16 0 27 -14l117 -191l190 193q8 12 29 12h115q14 0 18 -9t-6 -18l-281 -276q-12 -12 -28 -12h-101q-16 0 -24 14l-174 274q-14 27 12 27zM182 0h-121q-25 0 -18 25l174 956q2 14 19 25q194 76 394 76t301 -120t62 -327l-110 -615q-4 -20 -25 -20h-121
q-25 0 -20 25l110 622q55 287 -217 287q-125 0 -243 -43l-160 -871q0 -20 -25 -20z" />
    <glyph glyph-name="Eng" unicode="&#x14a;" horiz-adv-x="1394" 
d="M760 -248q80 0 126 55t70 173l-385 876q-53 123 -114 326h-8q-45 -340 -64 -434l-125 -728q-4 -20 -24 -20h-130q-25 0 -20 25l248 1419q4 20 24 20h146q20 0 26 -16l359 -881q59 -147 112 -317h9q33 258 69 479l125 715q4 20 25 20h129q25 0 20 -24l-254 -1450
q-37 -211 -122 -305t-232 -95q-37 0 -90 9q-20 2 -18 26l12 111q0 25 24 20q53 -4 62 -4z" />
    <glyph glyph-name="eng" unicode="&#x14b;" horiz-adv-x="1095" 
d="M518 -252q143 0 189 250l114 649q55 287 -215 287q-129 0 -239 -45l-160 -869q-2 -20 -25 -20h-119q-25 0 -18 25l172 956q2 14 21 25q188 76 388 76t299 -120t60 -327l-115 -649q-70 -395 -374 -396q-31 0 -76 9q-20 2 -21 26l21 109q2 20 24 17t74 -3z" />
    <glyph glyph-name="Omacron" unicode="&#x14c;" horiz-adv-x="1331" 
d="M1137 1645h-539q-25 0 -20 22l18 96q4 20 25 21h540q25 0 19 -23l-19 -96q-4 -20 -24 -20zM595 137q167 -1 284 99t145 268l78 444q29 168 -49 274t-250 105q-172 0 -285 -99t-143 -274l-76 -432q-29 -168 50 -276t246 -109zM828 1487q252 0 371 -157q118 -157 75 -398
l-74 -436q-41 -242 -210 -380t-421 -138q-253 0 -369 156q-116 157 -73 407l74 430q41 240 208 378t419 138z" />
    <glyph glyph-name="omacron" unicode="&#x14d;" horiz-adv-x="1056" 
d="M444 1425h500q25 0 19 -24l-19 -90q-2 -20 -22 -21h-500q-23 0 -19 23l17 92q4 20 24 20zM452 125q128 0 210 69t100 183l53 295q20 114 -35 188t-178 74t-205 -69t-104 -181l-51 -295q-20 -119 32 -191q50 -72 178 -73zM928 367q-35 -177 -167 -283t-326 -106t-293 123
q-99 124 -66 302l53 295q31 168 165 276t329 108t293 -127q98 -126 65 -296z" />
    <glyph glyph-name="Ohungarumlaut" unicode="&#x150;" horiz-adv-x="1331" 
d="M1032 1608h-106q-14 0 -19 8q-4 8 6 18l267 277q12 12 28 12h140q14 0 17 -9t-7 -18l-299 -278q-11 -10 -27 -10zM676 1608h-109q-14 0 -18 9t6 17l254 277q12 12 29 12h135q14 0 18 -9t-6 -18l-283 -276q-10 -12 -26 -12zM595 137q167 -1 284 99t145 268l78 444
q29 168 -49 274t-250 105q-172 0 -285 -99t-143 -274l-76 -432q-29 -168 50 -276t246 -109zM828 1487q252 0 371 -157q118 -157 75 -398l-74 -436q-41 -242 -210 -380t-421 -138q-253 0 -369 156q-116 157 -73 407l74 430q41 240 208 378t419 138z" />
    <glyph glyph-name="ohungarumlaut" unicode="&#x151;" horiz-adv-x="1056" 
d="M797 1223h-74q-14 0 -18 9t4 17l213 275q8 14 26 14h103q14 0 17 -8t-5 -19l-240 -276q-8 -12 -26 -12zM504 1223h-74q-14 0 -18 8t4 18l194 275q8 14 27 14h102q15 0 19 -9t-4 -18l-224 -274q-10 -14 -26 -14zM452 125q128 0 210 69t100 183l53 295q20 114 -35 188
t-178 74t-205 -69t-104 -181l-51 -295q-20 -119 32 -191q50 -72 178 -73zM928 367q-35 -177 -167 -283t-326 -106t-293 123q-99 124 -66 302l53 295q31 168 165 276t329 108t293 -127q98 -126 65 -296z" />
    <glyph glyph-name="OE" unicode="&#x152;" horiz-adv-x="1912" 
d="M967 436l94 551q27 150 -52 244t-227 95t-258 -87q-111 -88 -139 -248l-84 -477q-31 -166 41 -270t214 -104t265 79q123 80 146 217zM1905 1307h-615l-82 -480h570q20 0 20 -24l-18 -115q-4 -20 -25 -20h-575l-88 -504h632q25 0 21 -23l-23 -121q-4 -20 -24 -20h-783
q-27 0 -22 25l22 110q-63 -74 -164 -116t-219 -42q-208 0 -330 158t-79 391l86 478q43 229 208 356t383 127t318 -182l23 139q4 20 24 20h764q23 1 19 -24l-19 -113q-4 -20 -24 -20z" />
    <glyph glyph-name="oe" unicode="&#x153;" horiz-adv-x="1710" 
d="M977 688l-19 -98h510l19 98q23 123 -37 184q-60 62 -176 62q-115 0 -197 -64t-100 -182zM446 125q125 0 207 69t101 183l53 299q20 110 -35 184t-176 74t-202 -70t-101 -180l-51 -295q-20 -119 30 -191t174 -73zM426 -23q-186 0 -285 124q-98 124 -65 302l53 295
q29 168 161 276t318 107q227 0 314 -174q135 174 364 174q188 0 292 -106t67 -299l-37 -205q-2 -20 -25 -20h-647l-16 -91q-20 -106 41 -172t169 -65q156 0 324 121q20 14 31 -4l53 -84q10 -23 -6 -31q-188 -147 -422 -148q-104 0 -187 44t-124 126q-137 -170 -373 -170z
" />
    <glyph glyph-name="Racute" unicode="&#x154;" horiz-adv-x="1222" 
d="M797 1608h-107q-14 0 -18 9t6 17l256 277q12 12 29 12h145q14 0 18 -9t-6 -18l-295 -278q-10 -10 -28 -10zM666 727q156 0 250 70t116 202q49 307 -262 308h-287l-100 -580h283zM233 0h-129q-25 0 -20 25l250 1419q4 20 24 20h439q227 0 336 -136t73 -347
q-28 -168 -142 -273t-292 -126l299 -555q14 -27 -16 -27h-146q-20 0 -26 14l-291 557h-238l-96 -551q-5 -20 -25 -20z" />
    <glyph glyph-name="racute" unicode="&#x155;" horiz-adv-x="729" 
d="M549 1223h-94q-14 0 -19 9q-4 9 6 17l215 275q8 14 27 14h129q14 0 18 -8t-6 -19l-250 -276q-10 -12 -26 -12zM188 0h-122q-23 0 -19 25l166 958q2 14 20 25q170 74 340 73q92 0 195 -16q20 -2 20 -27l-20 -100q0 -23 -25 -18q-119 14 -206 14t-172 -41l-152 -873
q-5 -20 -25 -20z" />
    <glyph glyph-name="uni0156" unicode="&#x156;" horiz-adv-x="1222" 
d="M430 -504h-86q-23 0 -16 27l127 305q10 16 26 16h119q31 0 16 -26l-159 -305q-7 -17 -27 -17zM666 727q156 0 250 70t116 202q49 307 -262 308h-287l-100 -580h283zM233 0h-129q-25 0 -20 25l250 1419q4 20 24 20h439q227 0 336 -136t73 -347q-28 -168 -142 -273
t-292 -126l299 -555q14 -27 -16 -27h-146q-20 0 -26 14l-291 557h-238l-96 -551q-5 -20 -25 -20z" />
    <glyph glyph-name="uni0157" unicode="&#x157;" horiz-adv-x="729" 
d="M8 -481h-76q-31 0 -16 26l121 283q10 18 26 18h105q29 0 14 -26l-147 -285q-7 -16 -27 -16zM188 0h-122q-23 0 -19 25l166 958q2 14 20 25q170 74 340 73q92 0 195 -16q20 -2 20 -27l-20 -100q0 -23 -25 -18q-119 14 -206 14t-172 -41l-152 -873q-5 -20 -25 -20z" />
    <glyph glyph-name="Rcaron" unicode="&#x158;" horiz-adv-x="1222" 
d="M1016 1923h125q14 0 18 -9t-6 -18l-287 -276q-10 -12 -26 -12h-111q-16 0 -27 14l-192 274q-8 10 -3 18t17 9h119q16 0 29 -14l127 -185l190 187q11 12 27 12zM666 727q156 0 250 70t116 202q49 307 -262 308h-287l-100 -580h283zM233 0h-129q-25 0 -20 25l250 1419
q4 20 24 20h439q227 0 336 -136t73 -347q-28 -168 -142 -273t-292 -126l299 -555q14 -27 -16 -27h-146q-20 0 -26 14l-291 557h-238l-96 -551q-5 -20 -25 -20z" />
    <glyph glyph-name="rcaron" unicode="&#x159;" horiz-adv-x="729" 
d="M305 1538h107q16 0 26 -14l117 -191l190 193q8 12 29 12h115q14 0 18 -9t-6 -18l-280 -276q-12 -12 -29 -12h-100q-17 0 -25 14l-174 274q-14 27 12 27zM188 0h-122q-23 0 -19 25l166 958q2 14 20 25q170 74 340 73q92 0 195 -16q20 -2 20 -27l-20 -100q0 -23 -25 -18
q-119 14 -206 14t-172 -41l-152 -873q-5 -20 -25 -20z" />
    <glyph glyph-name="Sacute" unicode="&#x15a;" horiz-adv-x="1175" 
d="M778 1608h-106q-14 0 -19 9q-4 9 6 17l256 277q12 12 29 12h146q14 0 18 -9t-6 -18l-295 -278q-11 -10 -29 -10zM532 137q137 0 241 67q103 67 123 187t-87 188q-79 51 -225 95q-434 137 -375 473q33 176 173 258t347 82q133 0 235 -38t212 -124q16 -14 4 -31l-78 -90
q-12 -16 -31 -4q-166 127 -360 127q-127 0 -219 -51t-114 -165t53 -175q75 -60 195 -96t189 -68q71 -32 141 -87q148 -113 111 -329q-67 -376 -571 -378q-124 0 -230 46t-223 146q-16 14 -2 33l76 88q14 14 33 2q188 -156 382 -156z" />
    <glyph glyph-name="sacute" unicode="&#x15b;" horiz-adv-x="950" 
d="M592 1223h-94q-14 0 -19 9q-4 9 6 17l215 275q8 14 27 14h129q14 0 18 -8t-6 -19l-250 -276q-8 -12 -26 -12zM395 -23q-231 0 -385 138q-14 12 -4 30l60 82q12 18 30 4q131 -109 310 -108q112 0 182 41t85 119t-51 117q-45 28 -161 61q-375 106 -328 358q25 133 145 198
t298 65t331 -99q18 -8 4 -31l-65 -88q-12 -16 -31 -6q-111 76 -270 76q-102 0 -170 -36t-80 -113t67 -120q64 -36 162 -61q162 -41 250 -126t63 -222q-26 -137 -149 -208t-293 -71z" />
    <glyph glyph-name="Scedilla" unicode="&#x15e;" horiz-adv-x="1175" 
d="M428 -424q-70 0 -117 21q-20 4 -16 24l4 55q2 23 33 14t76 -9q123 0 141 81q8 34 -17 52q-26 18 -66 19t-47 12t-1 28l59 107q-131 6 -229 51t-205 139q-16 14 -2 33l76 88q14 14 33 2q188 -156 382 -156q137 0 241 67q103 67 123 187t-87 188q-79 51 -225 95
q-434 137 -375 473q33 176 173 258t347 82q133 0 235 -38t212 -124q16 -14 4 -31l-78 -90q-12 -16 -31 -4q-166 127 -360 127q-127 0 -219 -51t-114 -165t53 -175q75 -60 195 -96t189 -68q71 -32 141 -87q150 -115 111 -329q-33 -182 -165 -272t-318 -104v-3l-47 -79
q75 -4 117 -47t30 -111q-31 -164 -256 -164z" />
    <glyph glyph-name="scedilla" unicode="&#x15f;" horiz-adv-x="950" 
d="M295 -420q-63 0 -119 21q-16 6 -16 24l4 51q2 25 26 19q43 -14 84 -14q129 0 144 88q8 64 -84 66q-38 1 -51 15q-4 8 4 25l57 105q-199 12 -334 135q-14 12 -4 30l60 82q12 18 30 4q131 -109 310 -108q112 0 182 41t85 119t-51 117q-45 28 -161 61q-375 106 -328 358
q25 133 145 198t298 65t331 -99q18 -8 4 -31l-65 -88q-12 -16 -31 -6q-111 76 -270 76q-102 0 -170 -36t-80 -113t67 -120q64 -36 162 -61q162 -41 250 -126t64 -216t-130 -201q-105 -70 -257 -81l-54 -82q78 -4 120 -47t30 -113q-31 -158 -252 -158z" />
    <glyph glyph-name="Scaron" unicode="&#x160;" horiz-adv-x="1175" 
d="M975 1923h125q14 0 18 -9t-6 -18l-287 -276q-10 -12 -26 -12h-111q-16 0 -26 14l-193 274q-8 10 -3 18t17 9h119q16 0 29 -14l127 -185l190 187q9 12 27 12zM532 137q137 0 241 67q103 67 123 187t-87 188q-79 51 -225 95q-434 137 -375 473q33 176 173 258t347 82
q133 0 235 -38t212 -124q16 -14 4 -31l-78 -90q-12 -16 -31 -4q-166 127 -360 127q-127 0 -219 -51t-114 -165t53 -175q75 -60 195 -96t189 -68q71 -32 141 -87q148 -113 111 -329q-67 -376 -571 -378q-124 0 -230 46t-223 146q-16 14 -2 33l76 88q14 14 33 2
q188 -156 382 -156z" />
    <glyph glyph-name="scaron" unicode="&#x161;" horiz-adv-x="950" 
d="M367 1538h106q16 0 27 -14l116 -191l191 193q8 12 29 12h114q14 0 18 -9t-5 -18l-281 -276q-12 -12 -29 -12h-100q-17 0 -25 14l-174 274q-14 27 13 27zM395 -23q-231 0 -385 138q-14 12 -4 30l60 82q12 18 30 4q131 -109 310 -108q112 0 182 41t85 119t-51 117
q-45 28 -161 61q-375 106 -328 358q25 133 145 198t298 65t331 -99q18 -8 4 -31l-65 -88q-12 -16 -31 -6q-111 76 -270 76q-102 0 -170 -36t-80 -113t67 -120q64 -36 162 -61q162 -41 250 -126t63 -222q-26 -137 -149 -208t-293 -71z" />
    <glyph glyph-name="uni0162" unicode="&#x162;" horiz-adv-x="1093" 
d="M209 1464h1001q25 0 21 -24l-21 -111q-4 -23 -24 -22h-418l-227 -1287q-4 -20 -25 -20h-129q-25 0 -20 25l229 1282h-412q-25 0 -20 24l20 113q5 20 25 20zM324 -504h-86q-23 0 -17 27l127 305q10 16 27 16h119q31 0 16 -26l-160 -305q-6 -17 -26 -17z" />
    <glyph glyph-name="uni0163" unicode="&#x163;" horiz-adv-x="600" 
d="M387 1319q25 0 21 -23l-25 -247h227q25 0 21 -25l-19 -100q1 -23 -24 -23h-228l-100 -571q-35 -207 137 -207l78 2q25 0 19 -23l-17 -100q-4 -20 -22 -20q-49 -4 -76 -5q-147 -1 -231 93t-52 274l170 954q4 20 25 21h96zM156 -481h-76q-31 0 -17 26l121 283q10 18 27 18
h104q29 0 15 -26l-148 -285q-6 -16 -26 -16z" />
    <glyph glyph-name="Tcaron" unicode="&#x164;" horiz-adv-x="1093" 
d="M952 1923h125q15 0 19 -9t-6 -18l-287 -276q-8 -12 -27 -12h-110q-16 0 -27 14l-193 274q-8 10 -3 18t18 9h119q16 0 28 -14l127 -185l191 187q8 12 26 12zM209 1464h1001q25 0 21 -24l-21 -111q-4 -23 -24 -22h-418l-227 -1287q-4 -20 -25 -20h-129q-25 0 -20 25
l229 1282h-412q-25 0 -20 24l20 113q5 20 25 20z" />
    <glyph glyph-name="tcaron" unicode="&#x165;" horiz-adv-x="600" 
d="M629 1194h-80q-27 0 -17 25l109 278q10 18 27 19h106q29 0 17 -27l-136 -281q-6 -14 -26 -14zM387 1317q23 0 21 -21l-25 -247h229q25 0 21 -25l-19 -100q-4 -20 -24 -21h-228l-100 -573q-35 -207 137 -207l76 2q13 2 19 -4t2 -17l-17 -102q-4 -20 -22 -20q-49 -4 -76 -5
q-147 -1 -231 93t-52 274l168 952q4 20 25 21h96z" />
    <glyph glyph-name="Tbar" unicode="&#x166;" horiz-adv-x="1118" 
d="M909 752q25 0 19 -23l-13 -78q-4 -20 -24 -20h-229l-109 -611q-4 -20 -25 -20h-129q-25 0 -20 25l108 606h-225q-23 0 -18 24l12 76q4 20 25 21h227l100 555h-411q-25 0 -21 24l21 113q4 20 24 20h998q24 1 20 -24l-20 -111q0 -23 -23 -22h-416l-98 -555h227z" />
    <glyph glyph-name="tbar" unicode="&#x167;" horiz-adv-x="614" 
d="M53 516q-25 0 -18 23l14 77q0 23 25 23h86l116 655q4 20 25 21h96q25 0 21 -23l-23 -254h234q25 0 18 -24l-18 -99q0 -20 -23 -20h-235l-45 -256h176q25 0 20 -25l-14 -77q-4 -20 -25 -21h-178l-33 -182q-35 -209 138 -209q49 0 75 2q27 0 21 -23l-17 -102
q-4 -16 -22 -20q-49 -4 -76 -5q-147 1 -231 95t-51 274l30 170h-86z" />
    <glyph glyph-name="Umacron" unicode="&#x16a;" horiz-adv-x="1347" 
d="M1143 1645h-539q-25 0 -20 22l18 96q4 20 25 21h540q25 0 19 -23l-19 -96q-4 -20 -24 -20zM348 1464h129q25 0 19 -24l-164 -932q-31 -174 46 -274q78 -100 230 -99q152 0 260 94t133 263l168 952q4 20 25 20h127q25 0 20 -24l-167 -969q-39 -227 -198 -360t-390 -133
t-349 154q-118 155 -75 396l162 916q4 20 24 20z" />
    <glyph glyph-name="umacron" unicode="&#x16b;" horiz-adv-x="1091" 
d="M451 1425h499q25 0 19 -24l-19 -90q-2 -20 -22 -21h-500q-22 0 -18 23l16 92q4 20 25 20zM905 1059h123q25 0 21 -25l-175 -956q-2 -18 -20 -25q-190 -76 -389 -76t-298 121t-61 324l111 616q4 20 25 21h123q25 0 18 -25l-113 -622q-51 -287 213 -287q129 0 240 43
l160 870q-1 21 22 21z" />
    <glyph glyph-name="Uring" unicode="&#x16e;" horiz-adv-x="1347" 
d="M868 1679q51 0 86 31t44 83t-15 82q-25 30 -76 30t-90 -32t-47 -83q-16 -111 98 -111zM919 2005q95 1 148 -63t36 -159t-84 -149t-163 -55q-96 0 -149 61q-53 62 -38 158t85 152t165 55zM348 1464h129q25 0 19 -24l-164 -932q-31 -174 46 -274q78 -100 230 -99
q152 0 260 94t133 263l168 952q4 20 25 20h127q25 0 20 -24l-167 -969q-39 -227 -198 -360t-390 -133t-349 154q-118 155 -75 396l162 916q4 20 24 20z" />
    <glyph glyph-name="uring" unicode="&#x16f;" horiz-adv-x="1091" 
d="M676 1290q49 0 84 32t44 82t-16 83q-24 33 -74 33t-88 -32t-46 -83t20 -83t76 -32zM724 1616q93 0 146 -64t37 -155t-84 -147t-159 -56t-146 62t-40 156t84 150q69 54 162 54zM905 1059h123q25 0 21 -25l-175 -956q-2 -18 -20 -25q-190 -76 -389 -76t-298 121t-61 324
l111 616q4 20 25 21h123q25 0 18 -25l-113 -622q-51 -287 213 -287q129 0 240 43l160 870q-1 21 22 21z" />
    <glyph glyph-name="Uhungarumlaut" unicode="&#x170;" horiz-adv-x="1347" 
d="M1040 1608h-106q-14 0 -19 8q-4 8 7 18l266 277q12 12 29 12h139q14 0 17 -9t-7 -18l-299 -278q-11 -10 -27 -10zM684 1608h-109q-14 0 -18 9t6 17l254 277q12 12 29 12h135q14 0 18 -9t-6 -18l-282 -276q-11 -12 -27 -12zM348 1464h129q25 0 19 -24l-164 -932
q-31 -174 46 -274q78 -100 230 -99q152 0 260 94t133 263l168 952q4 20 25 20h127q25 0 20 -24l-167 -969q-39 -227 -198 -360t-390 -133t-349 154q-118 155 -75 396l162 916q4 20 24 20z" />
    <glyph glyph-name="uhungarumlaut" unicode="&#x171;" horiz-adv-x="1091" 
d="M807 1223h-74q-14 0 -18 9t4 17l213 275q8 14 26 14h103q14 0 17 -8t-5 -19l-239 -276q-11 -12 -27 -12zM514 1223h-74q-14 0 -18 8t4 18l195 275q8 14 26 14h103q14 0 18 -9t-4 -18l-223 -274q-11 -14 -27 -14zM905 1059h123q25 0 21 -25l-175 -956q-2 -18 -20 -25
q-190 -76 -389 -76t-298 121t-61 324l111 616q4 20 25 21h123q25 0 18 -25l-113 -622q-51 -287 213 -287q129 0 240 43l160 870q-1 21 22 21z" />
    <glyph glyph-name="Uogonek" unicode="&#x172;" horiz-adv-x="1351" 
d="M648 -408q-85 0 -129 50t-30 135q18 115 158 211q-27 -8 -67 -8q-227 0 -344 152t-74 396l162 916q4 20 24 20h133q25 0 19 -24l-164 -934q-31 -170 46 -267q78 -97 228 -97t258 92q108 93 136 255l165 955q4 20 25 20h131q25 0 21 -24l-168 -971q-55 -315 -332 -438
q-88 -43 -146 -105t-65 -107q-8 -47 8 -63t55 -16t95 18q23 10 26 -16l10 -86q2 -21 -14 -29q-82 -35 -167 -35z" />
    <glyph glyph-name="uogonek" unicode="&#x173;" horiz-adv-x="1075" 
d="M563 -408q-88 0 -133 50t-31 135q18 125 193 219l14 8q-72 -27 -145 -27q-193 0 -294 114t-63 327l111 620q4 20 25 21h118q25 0 21 -25l-113 -626q-49 -279 205 -279q121 0 238 45l157 864q4 20 25 21h119q25 0 20 -25l-174 -956q-2 -14 -18 -25q-270 -113 -295 -233
q-12 -80 65 -80q51 0 103 20q25 10 24 -16l10 -86q2 -19 -18 -29q-76 -37 -164 -37z" />
    <glyph glyph-name="Wcircumflex" unicode="&#x174;" horiz-adv-x="1841" 
d="M920 1608h-125q-14 0 -19 9q-4 9 6 17l287 277q8 12 27 12h110q16 0 27 -14l192 -275q8 -10 3 -18t-17 -8h-119q-16 0 -28 14l-127 184l-191 -186q-8 -12 -26 -12zM485 0h-155q-20 0 -23 20l-125 1420q-4 25 23 24h133q23 0 22 -22l58 -799q6 -84 22 -438h9
q152 383 186 461l338 761q10 16 26 17h156q20 0 23 -21l75 -772q14 -137 31 -446h10q94 281 176 481l320 762q6 16 25 16h141q31 0 16 -26l-618 -1422q-6 -16 -25 -16h-155q-23 0 -23 20l-74 693q-25 266 -39 479h-8q-78 -215 -194 -475l-324 -701q-11 -16 -27 -16z" />
    <glyph glyph-name="wcircumflex" unicode="&#x175;" horiz-adv-x="1472" 
d="M1024 1221q-16 0 -27 14l-116 190l-191 -192q-10 -12 -28 -12h-115q-14 0 -19 8q-4 8 7 18l280 277q12 12 29 12h100q17 0 25 -14l174 -275q14 -27 -13 -26h-106zM260 0q-23 0 -24 20l-113 1014q-2 8 4 16t16 7h123q25 0 25 -21l41 -452q14 -172 24 -396h6
q72 205 158 390l209 446q6 16 25 16h135q23 0 22 -20l54 -471q18 -176 22 -361h4q78 209 166 406l201 446q6 16 24 17h127q31 0 17 -25l-471 -1016q-10 -16 -27 -16h-139q-25 0 -25 23l-51 497q-14 150 -18 328h-4q-61 -174 -134 -330l-231 -502q-6 -16 -25 -16h-141z" />
    <glyph glyph-name="Ycircumflex" unicode="&#x176;" horiz-adv-x="1105" 
d="M551 1608h-125q-14 0 -18 9t6 17l286 277q8 12 27 12h111q16 0 26 -14l193 -275q8 -10 3 -18t-18 -8h-118q-16 0 -29 14l-127 184l-190 -186q-9 -12 -27 -12zM526 0h-133q-25 0 -18 25l94 526l-305 887q-6 27 18 26h137q18 0 25 -18l236 -739l479 743q8 14 24 14h152
q12 0 17 -8t-3 -18l-602 -887l-96 -531q-2 -20 -25 -20z" />
    <glyph glyph-name="ycircumflex" unicode="&#x177;" horiz-adv-x="1095" 
d="M856 1223q-16 0 -27 14l-116 190l-191 -192q-10 -12 -28 -12h-115q-14 0 -19 9q-4 9 7 17l280 277q12 12 29 12h100q17 0 25 -14l174 -275q14 -27 -12 -26h-107zM1026 1059q25 0 21 -25l-181 -1009q-80 -434 -483 -435q-231 0 -369 142q-10 16 0 30l70 82q14 18 33 2
q117 -106 272 -106q268 0 313 299l9 43q-137 -47 -246 -47q-186 0 -288 113q-101 114 -64 311l104 579q4 20 25 21h120q25 0 19 -25l-105 -590q-52 -261 224 -261q130 0 237 63l142 792q4 20 24 21h123z" />
    <glyph glyph-name="Ydieresis" unicode="&#x178;" horiz-adv-x="1105" 
d="M955 1675q-45 0 -67 32t-16 74q6 41 37 69t76 28t67 -30t16 -75q-7 -44 -37 -71t-76 -27zM556 1675q-46 0 -69 32t-15 74q8 41 37 69q30 28 75 28q46 0 68 -30t16 -75q-6 -44 -36 -71t-76 -27zM526 0h-133q-25 0 -18 25l94 526l-305 887q-6 27 18 26h137q18 0 25 -18
l236 -739l479 743q8 14 24 14h152q12 0 17 -8t-3 -18l-602 -887l-96 -531q-2 -20 -25 -20z" />
    <glyph glyph-name="Zacute" unicode="&#x179;" horiz-adv-x="1144" 
d="M723 1608h-107q-14 0 -18 9t6 17l256 277q12 12 29 12h145q14 0 18 -9t-5 -18l-295 -278q-11 -10 -29 -10zM961 0h-961q-25 0 -20 25l14 84q2 12 12 26l961 1172h-707q-27 0 -20 24l20 113q4 20 25 20h913q25 0 21 -24l-15 -80q-2 -16 -10 -27l-954 -1175h745
q25 0 21 -23l-21 -115q-4 -20 -24 -20z" />
    <glyph glyph-name="zacute" unicode="&#x17a;" horiz-adv-x="919" 
d="M557 1223h-94q-14 0 -19 9q-4 9 7 17l215 275q8 14 26 14h129q15 0 19 -8t-6 -19l-250 -276q-11 -12 -27 -12zM737 0h-743q-27 0 -21 25l11 63q2 10 14 27l686 798h-502q-23 0 -18 23l18 102q4 20 25 21h704q20 0 21 -25l-10 -57q-2 -16 -13 -27l-688 -803h541
q25 0 20 -24l-20 -103q-5 -20 -25 -20z" />
    <glyph glyph-name="Zdotaccent" unicode="&#x17b;" horiz-adv-x="1144" 
d="M868 1739q-18 -102 -123 -103q-55 0 -79 37t-15 81q8 44 41 73t84 29t76 -35q24 -35 16 -82zM961 0h-961q-25 0 -20 25l14 84q2 12 12 26l961 1172h-707q-27 0 -20 24l20 113q4 20 25 20h913q25 0 21 -24l-15 -80q-2 -16 -10 -27l-954 -1175h745q25 0 21 -23l-21 -115
q-4 -20 -24 -20z" />
    <glyph glyph-name="zdotaccent" unicode="&#x17c;" horiz-adv-x="919" 
d="M582 1257q-42 0 -70 33q-26 33 -18 76t37 68q30 24 74 24q45 0 71 -32t18 -76q-8 -43 -39 -68t-73 -25zM737 0h-743q-27 0 -21 25l11 63q2 10 14 27l686 798h-502q-23 0 -18 23l18 102q4 20 25 21h704q20 0 21 -25l-10 -57q-2 -16 -13 -27l-688 -803h541q25 0 20 -24
l-20 -103q-5 -20 -25 -20z" />
    <glyph glyph-name="Zcaron" unicode="&#x17d;" horiz-adv-x="1144" 
d="M977 1923h125q14 0 18 -9t-6 -18l-287 -276q-8 -12 -26 -12h-111q-16 0 -26 14l-193 274q-8 10 -3 18t17 9h119q16 0 29 -14l127 -185l190 187q9 12 27 12zM961 0h-961q-25 0 -20 25l14 84q2 12 12 26l961 1172h-707q-27 0 -20 24l20 113q4 20 25 20h913q25 0 21 -24
l-15 -80q-2 -16 -10 -27l-954 -1175h745q25 0 21 -23l-21 -115q-4 -20 -24 -20z" />
    <glyph glyph-name="zcaron" unicode="&#x17e;" horiz-adv-x="919" 
d="M344 1538h107q16 0 26 -14l117 -191l190 193q10 12 29 12h115q14 0 18 -9t-6 -18l-281 -276q-12 -12 -28 -12h-101q-16 0 -24 14l-174 274q-14 27 12 27zM737 0h-743q-27 0 -21 25l11 63q2 10 14 27l686 798h-502q-23 0 -18 23l18 102q4 20 25 21h704q20 0 21 -25
l-10 -57q-2 -16 -13 -27l-688 -803h541q25 0 20 -24l-20 -103q-5 -20 -25 -20z" />
    <glyph glyph-name="florin" unicode="&#x192;" horiz-adv-x="847" 
d="M152 659q-23 0 -17 27l31 98q2 18 24 19h185l129 403q45 129 118 205t199 76q72 0 146 -25q18 -6 12 -26l-27 -88q-4 -23 -34 -13q-30 11 -90 11q-115 1 -181 -191l-110 -352h200q29 0 19 -25l-31 -100q-6 -18 -25 -19h-208l-207 -639q-90 -283 -310 -282q-59 0 -125 24
q-20 8 -10 29l33 90q6 20 27 17q24 -8 74 -8t86 41q36 42 69 137l199 591h-176z" />
    <glyph glyph-name="uni0218" unicode="&#x218;" horiz-adv-x="1175" 
d="M391 -504h-86q-23 0 -16 27l127 305q10 16 26 16h119q29 0 17 -26l-160 -305q-7 -17 -27 -17zM532 137q137 0 241 67q103 67 123 187t-87 188q-79 51 -225 95q-434 137 -375 473q33 176 173 258t347 82q133 0 235 -38t212 -124q16 -14 4 -31l-78 -90q-12 -16 -31 -4
q-166 127 -360 127q-127 0 -219 -51t-114 -165t53 -175q75 -60 195 -96t189 -68q71 -32 141 -87q148 -113 111 -329q-67 -376 -571 -378q-124 0 -230 46t-223 146q-16 14 -2 33l76 88q14 14 33 2q188 -156 382 -156z" />
    <glyph glyph-name="uni0219" unicode="&#x219;" horiz-adv-x="950" 
d="M297 -481h-76q-29 0 -16 26l121 283q10 18 26 18h105q27 0 14 -26l-147 -285q-7 -16 -27 -16zM395 -23q-231 0 -385 138q-14 12 -4 30l60 82q12 18 30 4q131 -109 310 -108q112 0 182 41t85 119t-51 117q-45 28 -161 61q-375 106 -328 358q25 133 145 198t298 65t331 -99
q18 -8 4 -31l-65 -88q-12 -16 -31 -6q-111 76 -270 76q-102 0 -170 -36t-80 -113t67 -120q64 -36 162 -61q162 -41 250 -126t63 -222q-26 -137 -149 -208t-293 -71z" />
    <glyph glyph-name="uni021A" unicode="&#x21a;" horiz-adv-x="1093" 
d="M324 -504h-86q-23 0 -17 27l127 305q10 16 27 16h119q31 0 16 -26l-160 -305q-6 -17 -26 -17zM209 1464h1001q25 0 21 -24l-21 -111q-4 -23 -24 -22h-418l-227 -1287q-4 -20 -25 -20h-129q-25 0 -20 25l229 1282h-412q-25 0 -20 24l20 113q5 20 25 20z" />
    <glyph glyph-name="uni021B" unicode="&#x21b;" horiz-adv-x="600" 
d="M156 -481h-76q-31 0 -17 26l121 283q10 18 27 18h104q29 0 15 -26l-148 -285q-6 -16 -26 -16zM387 1319q25 0 21 -23l-25 -247h227q25 0 21 -25l-19 -100q1 -23 -24 -23h-228l-100 -571q-35 -207 137 -207l78 2q25 0 19 -23l-17 -100q-4 -20 -22 -20q-49 -4 -76 -5
q-147 -1 -231 93t-52 274l170 954q4 20 25 21h96z" />
    <glyph glyph-name="uni0237" unicode="&#x237;" horiz-adv-x="456" 
d="M-139 -410q-33 0 -86 9q-23 2 -19 26l21 107q0 23 22 18q53 -4 76 -4q66 0 113 61t67 181l189 1050q0 20 22 21h123q25 0 21 -25l-189 -1059q-72 -385 -360 -385z" />
    <glyph glyph-name="circumflex" unicode="&#x2c6;" horiz-adv-x="620" 
d="M621 1223q-16 0 -27 14l-117 190l-190 -192q-10 -12 -29 -12h-115q-14 0 -18 9t6 17l281 277q12 12 28 12h101q16 0 24 -14l174 -275q14 -27 -12 -26h-106z" />
    <glyph glyph-name="caron" unicode="&#x2c7;" horiz-adv-x="618" 
d="M188 1538h107q16 0 27 -14l116 -191l191 193q10 12 28 12h115q14 0 18 -9t-6 -18l-280 -276q-12 -12 -29 -12h-100q-17 0 -25 14l-174 274q-14 27 12 27z" />
    <glyph glyph-name="breve" unicode="&#x2d8;" horiz-adv-x="616" 
d="M426 1223q-127 0 -194 83t-62 193q0 20 23 25l83 12q23 0 25 -23q0 -158 145 -157q154 0 209 164q6 20 27 16l88 -12q26 -4 16 -27q-84 -274 -360 -274z" />
    <glyph glyph-name="dotaccent" unicode="&#x2d9;" horiz-adv-x="202" 
d="M236 1257q-42 0 -70 33q-27 33 -19 76t38 68q30 24 74 24q45 0 71 -32t18 -76q-8 -43 -39 -68t-73 -25z" />
    <glyph glyph-name="ring" unicode="&#x2da;" horiz-adv-x="448" 
d="M358 1290q48 0 84 32q35 32 44 82t-15 83q-25 33 -75 33t-88 -32t-46 -83t20 -83t76 -32zM407 1616q93 0 146 -64t37 -155t-84 -147t-159 -56t-146 62t-40 156t84 150q69 54 162 54z" />
    <glyph glyph-name="ogonek" unicode="&#x2db;" horiz-adv-x="540" 
d="M96 -410q-94 0 -132 56t-23 131q33 145 200 217q14 6 29 6h76q16 0 16 -7t-14 -16q-133 -78 -154 -170q-6 -35 12 -51t62 -16t98 18q25 6 25 -18l2 -88q1 -17 -17 -27q-86 -35 -180 -35z" />
    <glyph glyph-name="tilde" unicode="&#x2dc;" horiz-adv-x="657" 
d="M606 1253q-55 0 -137 40t-123 40t-80 -55q-12 -18 -30 -6l-60 37q-18 12 -8 30q78 129 192 129q56 0 138 -40t120 -40t80 56q12 18 31 6l59 -37q17 -15 9 -29q-78 -131 -191 -131z" />
    <glyph glyph-name="hungarumlaut" unicode="&#x2dd;" horiz-adv-x="608" 
d="M512 1223h-74q-14 0 -18 9t4 17l213 275q8 14 27 14h102q14 0 17 -8t-5 -19l-239 -276q-11 -12 -27 -12zM219 1223h-74q-14 0 -18 8t4 18l195 275q8 14 26 14h103q14 0 18 -9t-4 -18l-223 -274q-11 -14 -27 -14z" />
    <glyph glyph-name="gravecomb" unicode="&#x300;" horiz-adv-x="364" 
d="M360 1223q-16 0 -26 16l-139 272q-14 27 16 27h121q16 0 26 -16l111 -273q10 -27 -18 -26h-91z" />
    <glyph glyph-name="acutecomb" unicode="&#x301;" horiz-adv-x="374" 
d="M256 1223h-94q-14 0 -19 9q-4 9 7 17l215 275q8 14 26 14h129q14 0 18 -8t-6 -19l-249 -276q-9 -12 -27 -12z" />
    <glyph glyph-name="uni0302" unicode="&#x302;" horiz-adv-x="653" 
d="M643 1223q-16 0 -27 14l-116 190l-191 -192q-10 -12 -28 -12h-115q-14 0 -19 9q-4 9 7 17l280 277q12 12 29 12h100q17 0 25 -14l174 -275q14 -27 -12 -26h-107z" />
    <glyph glyph-name="tildecomb" unicode="&#x303;" horiz-adv-x="657" 
d="M606 1253q-55 0 -137 40t-123 40t-80 -55q-12 -18 -30 -6l-60 37q-18 12 -8 30q78 129 192 129q56 0 138 -40t120 -40t80 56q12 18 31 6l59 -37q17 -15 9 -29q-78 -131 -191 -131z" />
    <glyph glyph-name="uni0304" unicode="&#x304;" horiz-adv-x="542" 
d="M186 1425h500q25 0 19 -24l-19 -90q-2 -20 -22 -21h-500q-23 0 -19 23l17 92q4 20 24 20z" />
    <glyph glyph-name="uni0306" unicode="&#x306;" horiz-adv-x="620" 
d="M428 1223q-127 0 -194 83t-62 193q0 20 23 25l84 12q23 0 24 -23q0 -158 146 -157q154 0 208 164q6 20 27 16l88 -12q26 -4 16 -27q-84 -274 -360 -274z" />
    <glyph glyph-name="uni0307" unicode="&#x307;" horiz-adv-x="243" 
d="M256 1257q-43 0 -70 33q-26 33 -18 76t38 68q30 24 74 24t70 -32q27 -32 19 -76q-8 -43 -39 -68t-74 -25z" />
    <glyph glyph-name="uni0308" unicode="&#x308;" horiz-adv-x="563" 
d="M567 1433q31 23 73 23t64 -28t15 -73q-8 -44 -38 -69q-30 -24 -73 -24q-44 0 -66 28t-14 74q8 45 39 69zM176 1433q31 23 74 23q42 0 64 -28t14 -73q-8 -44 -38 -69q-30 -24 -73 -24t-65 28t-15 74q8 45 39 69z" />
    <glyph glyph-name="uni030A" unicode="&#x30a;" horiz-adv-x="430" 
d="M354 1290q48 0 84 32q35 32 44 82t-15 83q-25 33 -75 33t-88 -32t-46 -83t20 -83t76 -32zM403 1616q93 0 146 -64t37 -155t-84 -147t-159 -56t-146 62t-40 156t84 150q69 54 162 54z" />
    <glyph glyph-name="uni030B" unicode="&#x30b;" horiz-adv-x="602" 
d="M510 1223h-74q-14 0 -18 9t4 17l213 275q8 14 27 14h102q14 0 17 -8t-5 -19l-239 -276q-9 -12 -27 -12zM217 1223h-74q-14 0 -18 8t4 18l195 275q8 14 26 14h103q14 0 18 -9t-4 -18l-223 -274q-11 -14 -27 -14z" />
    <glyph glyph-name="uni030C" unicode="&#x30c;" horiz-adv-x="653" 
d="M209 1538h106q16 0 27 -14l117 -191l190 193q10 12 29 12h115q14 0 18 -9t-6 -18l-281 -276q-12 -12 -28 -12h-101q-16 0 -24 14l-174 274q-14 27 12 27z" />
    <glyph glyph-name="uni0312" unicode="&#x312;" horiz-adv-x="288" 
d="M283 1223h-105q-27 0 -14 26l151 301q10 16 29 17h76q27 0 16 -27l-127 -301q-12 -16 -26 -16z" />
    <glyph glyph-name="uni0326" unicode="&#x326;" horiz-adv-x="235" 
d="M-76 -481h-76q-29 0 -16 26l121 283q10 18 27 18h104q27 0 14 -26l-147 -285q-7 -16 -27 -16z" />
    <glyph glyph-name="uni0327" unicode="&#x327;" horiz-adv-x="339" 
d="M-16 -420q-63 0 -119 21q-16 6 -17 24l5 51q2 25 26 19q43 -14 84 -14q129 0 143 88q6 64 -84 66q-38 1 -51 15q-4 8 4 25l66 117q6 16 27 16h57q12 0 17 -8t-3 -20l-53 -82q78 -4 120 -47t30 -113q-31 -158 -252 -158z" />
    <glyph glyph-name="uni0328" unicode="&#x328;" horiz-adv-x="540" 
d="M96 -410q-94 0 -132 56t-23 131q33 145 200 217q14 6 29 6h76q16 0 16 -7t-14 -16q-133 -78 -154 -170q-6 -35 12 -51t62 -16t98 18q25 6 25 -18l2 -88q1 -17 -17 -27q-86 -35 -180 -35z" />
    <glyph glyph-name="uni0335" unicode="&#x335;" horiz-adv-x="667" 
d="M766 1198h-625q-23 0 -18 23l14 77q0 23 25 23h622q23 0 19 -25l-12 -77q-5 -21 -25 -21z" />
    <glyph glyph-name="uni0336" unicode="&#x336;" horiz-adv-x="1046" 
d="M37 602h999q25 0 21 -24l-15 -78q-4 -20 -24 -21h-1002q-22 0 -18 23l14 80q4 20 25 20z" />
    <glyph glyph-name="uni0337" unicode="&#x337;" horiz-adv-x="559" 
d="M39 668l606 479q13 8 21 3t6 -20l-21 -110q-4 -16 -16 -25l-606 -479q-12 -8 -22 -3q-9 5 -5 19l21 109q2 17 16 27z" />
    <glyph glyph-name="uni0338" unicode="&#x338;" horiz-adv-x="1077" 
d="M74 -84h-107q-14 0 -18 8t4 19l1100 1579q8 14 26 14h109q12 0 16 -8t-4 -19l-1100 -1581q-10 -12 -26 -12z" />
    <glyph glyph-name="tonos" unicode="&#x384;" horiz-adv-x="366" 
d="M274 1223h-94q-14 0 -18 9t6 17l215 275q8 14 27 14h129q14 0 18 -8t-6 -19l-250 -276q-11 -12 -27 -12z" />
    <glyph glyph-name="dieresistonos" unicode="&#x385;" horiz-adv-x="673" 
d="M756 1450q41 0 60 -26t12 -66q-8 -41 -36 -67q-28 -25 -68 -25t-60 26t-15 66q8 40 37 66t70 26zM259 1450q41 0 61 -26t12 -67q-8 -42 -37 -67q-29 -24 -68 -24t-61 26t-12 66q8 40 36 66t69 26zM446 1223h-71q-27 0 -15 26l158 275q6 14 27 14h102q11 0 17 -8t-2 -19
l-189 -274q-9 -14 -27 -14z" />
    <glyph glyph-name="Alphatonos" unicode="&#x386;" horiz-adv-x="1271" 
d="M807 1272h-6l-357 -731h469zM1147 0h-131q-23 0 -25 20l-53 365h-569l-185 -369q-10 -16 -28 -16h-144q-27 0 -16 27l727 1421q8 16 29 16h159q23 0 25 -20l231 -1419q5 -25 -20 -25zM293 1149h-94q-15 0 -19 9t6 18l215 274q8 14 27 14h129q14 0 18 -8t-6 -18l-250 -277
q-8 -12 -26 -12z" />
    <glyph glyph-name="Epsilontonos" unicode="&#x388;" horiz-adv-x="1406" 
d="M1270 825q25 0 20 -24l-20 -111q-4 -20 -25 -20h-596l-90 -512h660q20 0 20 -23l-20 -115q0 -20 -25 -20h-813q-25 0 -21 25l252 1419q4 20 25 20h788q23 1 19 -24l-19 -111q-4 -23 -24 -22h-641l-84 -482h594zM236 1149h-95q-14 0 -18 9t6 18l215 274q8 14 27 14h129
q14 0 18 -8t-6 -18l-250 -277q-10 -12 -26 -12z" />
    <glyph glyph-name="Etatonos" unicode="&#x389;" horiz-adv-x="1654" 
d="M1491 1464h127q25 0 20 -24l-252 -1420q0 -20 -24 -20h-127q-25 0 -18 25l112 643h-641l-115 -648q-4 -20 -24 -20h-129q-25 0 -21 25l252 1419q4 20 25 20h127q25 0 20 -24l-108 -617h643l108 621q0 20 25 20zM236 1149h-95q-14 0 -18 9t6 18l215 274q8 14 27 14h129
q14 0 18 -8t-6 -18l-250 -277q-10 -12 -26 -12z" />
    <glyph glyph-name="Iotatonos" unicode="&#x38a;" horiz-adv-x="794" 
d="M502 0h-129q-25 0 -21 25l252 1419q4 20 25 20h127q24 1 20 -24l-250 -1420q-4 -20 -24 -20zM236 1149h-95q-14 0 -18 9t6 18l215 274q8 14 27 14h129q14 0 18 -8t-6 -18l-250 -277q-10 -12 -26 -12z" />
    <glyph glyph-name="Omicrontonos" unicode="&#x38c;" horiz-adv-x="1558" 
d="M820 137q167 -1 284 99t145 268l78 444q29 168 -49 274t-250 105q-172 0 -285 -99t-143 -274l-76 -432q-29 -168 50 -276t246 -109zM1054 1487q252 0 370 -157t75 -398l-74 -436q-41 -242 -210 -380t-421 -138t-368 156q-117 157 -74 407l74 430q41 240 208 378t420 138z
M238 1149h-95q-14 0 -18 9t6 18l215 274q8 14 27 14h129q14 0 18 -8t-6 -18l-250 -277q-10 -12 -26 -12z" />
    <glyph glyph-name="Upsilontonos" unicode="&#x38e;" horiz-adv-x="1585" 
d="M1004 0h-134q-25 0 -18 25l94 526l-305 887q-6 27 18 26h138q18 0 24 -18l236 -739l479 743q8 14 25 14h151q12 0 18 -8t-4 -18l-602 -887l-96 -531q-1 -20 -24 -20zM260 1149h-94q-14 0 -18 9t6 18l215 274q8 14 26 14h129q14 0 18 -8t-5 -18l-250 -277q-11 -12 -27 -12
z" />
    <glyph glyph-name="Omegatonos" unicode="&#x38f;" horiz-adv-x="1542" 
d="M244 1149h-94q-14 0 -18 9t5 18l215 274q8 14 27 14h129q14 0 18 -8t-6 -18l-250 -277q-8 -12 -26 -12zM662 0h-392q-27 0 -20 25l20 110q2 20 25 21h164q-150 178 -105 446l60 332q51 279 219 416t399 137t353 -150t69 -446l-57 -326q-23 -117 -91 -225t-165 -184h155
q25 0 21 -25l-21 -111q-2 -20 -24 -20h-391q-25 0 -21 25l10 71q0 18 21 25q131 51 218 175t120 302l55 320q39 221 -34 315q-72 94 -238 95t-278 -100t-150 -323l-56 -311q-66 -354 152 -475q18 -6 14 -27l-10 -72q-2 -20 -22 -20z" />
    <glyph glyph-name="iotadieresistonos" unicode="&#x390;" horiz-adv-x="438" 
d="M604 1450q40 0 58 -26q20 -26 14 -66q-6 -41 -36 -67q-30 -25 -69 -25t-61 26t-12 66q8 40 37 66t69 26zM305 1223h-63q-27 0 -17 26l160 275q8 14 27 14h96q31 0 16 -27l-190 -274q-13 -14 -29 -14zM149 1450q40 0 60 -26t12 -66q-8 -41 -37 -67q-30 -25 -68 -25t-60 26
t-13 66q8 40 37 66t69 26zM184 0h-118q-27 0 -21 25l180 1013q4 20 25 21h121q25 0 20 -25l-182 -1014q-5 -20 -25 -20z" />
    <glyph glyph-name="Alpha" unicode="&#x391;" horiz-adv-x="1204" 
d="M739 1272h-6l-356 -731h469zM1079 0h-131q-23 0 -24 20l-54 365h-569l-184 -369q-10 -16 -29 -16h-143q-27 0 -17 27l727 1421q8 16 29 16h160q23 0 24 -20l232 -1419q4 -25 -21 -25z" />
    <glyph glyph-name="Beta" unicode="&#x392;" horiz-adv-x="1251" 
d="M731 850q111 0 191 63t100 172q37 223 -217 224h-320l-82 -459h328zM596 158q147 0 246 71q98 72 121 211q39 254 -244 254h-342l-96 -536h315zM569 0h-465q-25 0 -20 25l254 1419q0 20 24 20h476q209 0 296 -112t58 -287q-39 -211 -227 -287q219 -86 170 -358
q-35 -208 -183 -314t-383 -106z" />
    <glyph glyph-name="Gamma" unicode="&#x393;" horiz-adv-x="1001" 
d="M231 0h-127q-25 0 -20 25l250 1419q4 20 24 20h756q25 0 21 -24l-21 -113q-4 -20 -24 -20h-607l-227 -1287q-5 -20 -25 -20z" />
    <glyph glyph-name="uni0394" unicode="&#x394;" horiz-adv-x="1236" 
d="M756 1270l-574 -1116h760l-121 755q-45 291 -57 361h-8zM700 1464h174q23 0 25 -20l236 -1419q4 -25 -21 -25h-1171q-29 0 -17 27l750 1421q6 16 24 16z" />
    <glyph glyph-name="Epsilon" unicode="&#x395;" horiz-adv-x="1128" 
d="M993 825q25 0 21 -24l-21 -111q-4 -20 -24 -20h-596l-90 -512h659q20 0 21 -23l-21 -115q0 -20 -24 -20h-814q-25 0 -20 25l252 1419q4 20 24 20h789q22 1 18 -24l-18 -111q-4 -23 -25 -22h-641l-84 -482h594z" />
    <glyph glyph-name="Zeta" unicode="&#x396;" horiz-adv-x="1144" 
d="M961 0h-961q-25 0 -20 25l14 84q2 12 12 26l961 1172h-707q-27 0 -20 24l20 113q4 20 25 20h913q25 0 21 -24l-15 -80q-2 -16 -10 -27l-954 -1175h745q25 0 21 -23l-21 -115q-4 -20 -24 -20z" />
    <glyph glyph-name="Eta" unicode="&#x397;" horiz-adv-x="1337" 
d="M1176 1464h127q25 0 20 -24l-252 -1420q0 -20 -24 -20h-127q-25 0 -19 25l113 643h-641l-115 -648q-4 -20 -25 -20h-129q-25 0 -20 25l252 1419q4 20 24 20h127q25 0 21 -24l-109 -617h643l109 621q0 20 25 20z" />
    <glyph glyph-name="Theta" unicode="&#x398;" horiz-adv-x="1331" 
d="M595 137q167 -1 284 99t145 268l78 444q29 168 -49 274t-250 105q-172 0 -285 -99t-143 -274l-76 -432q-29 -168 50 -276t246 -109zM828 1487q252 0 371 -157q118 -157 75 -398l-74 -436q-41 -242 -210 -380t-421 -138q-253 0 -369 156q-116 157 -73 407l74 430
q41 240 208 378t419 138zM463 817h502q25 0 20 -24l-20 -103q-4 -20 -25 -20h-502q-24 -1 -18 24l18 103q2 20 25 20z" />
    <glyph glyph-name="Iota" unicode="&#x399;" horiz-adv-x="524" 
d="M233 0h-129q-25 0 -20 25l252 1419q4 20 24 20h127q25 1 21 -24l-250 -1420q-4 -20 -25 -20z" />
    <glyph glyph-name="Kappa" unicode="&#x39a;" horiz-adv-x="1198" 
d="M1124 1464h172q14 0 18 -8t-7 -18l-668 -637l459 -774q14 -27 -17 -27h-149q-18 0 -25 14l-397 670l-160 -139l-92 -525q-4 -20 -25 -20h-127q-25 0 -20 25l248 1419q4 20 24 20h129q25 0 21 -24l-117 -662l705 674q12 12 28 12z" />
    <glyph glyph-name="Lambda" unicode="&#x39b;" horiz-adv-x="1236" 
d="M84 0h-145q-29 0 -15 27l748 1421q10 16 26 16h172q25 0 25 -20l238 -1419q4 -25 -21 -25h-131q-23 0 -25 20l-196 1250h-6l-641 -1254q-11 -16 -29 -16z" />
    <glyph glyph-name="Mu" unicode="&#x39c;" horiz-adv-x="1642" 
d="M104 0q-25 0 -20 25l250 1419q0 20 22 20h154q18 0 25 -18l167 -524q70 -221 113 -385h4q145 240 223 356l381 557q12 14 29 14h154q25 0 20 -24l-250 -1420q-4 -20 -24 -20h-127q-25 0 -21 25l99 563q59 352 106 588h-6q-84 -141 -209 -336l-328 -494q-10 -16 -24 -16
h-105q-18 0 -24 18l-162 514q-49 158 -90 312h-6q-39 -240 -103 -607l-94 -547q-4 -20 -25 -20h-129z" />
    <glyph glyph-name="Nu" unicode="&#x39d;" horiz-adv-x="1384" 
d="M104 0q-25 0 -20 25l250 1419q4 20 24 20h150q20 0 24 -16l324 -821q20 -53 44 -115t50 -138q26 -75 43 -116h6q72 481 88 576l109 610q4 20 25 20h127q25 0 20 -24l-250 -1420q-4 -20 -24 -20h-148q-16 0 -26 16l-326 787q-61 158 -137 385h-4q-43 -303 -91 -563
l-106 -605q0 -20 -25 -20h-127z" />
    <glyph glyph-name="Xi" unicode="&#x39e;" horiz-adv-x="1079" 
d="M881 0h-863q-27 0 -20 25l25 112q4 20 24 21h860q25 0 19 -25l-21 -113q-4 -20 -24 -20zM934 670h-725q-25 0 -21 24l21 113q0 20 24 20h725q25 0 21 -24l-21 -113q-4 -20 -24 -20zM1087 1307h-811q-25 0 -20 24l25 113q4 20 24 20h809q27 0 21 -24l-23 -111
q-5 -22 -25 -22z" />
    <glyph glyph-name="Omicron" unicode="&#x39f;" horiz-adv-x="1331" 
d="M595 137q167 -1 284 99t145 268l78 444q29 168 -49 274t-250 105q-172 0 -285 -99t-143 -274l-76 -432q-29 -168 50 -276t246 -109zM828 1487q252 0 371 -157q118 -157 75 -398l-74 -436q-41 -242 -210 -380t-421 -138q-253 0 -369 156q-116 157 -73 407l74 430
q41 240 208 378t419 138z" />
    <glyph glyph-name="Pi" unicode="&#x3a0;" horiz-adv-x="1333" 
d="M229 0h-129q-25 0 -18 25l258 1419q2 20 25 20h940q25 0 18 -24l-260 -1420q0 -20 -25 -20h-129q-25 0 -18 25l235 1280h-637l-235 -1285q-2 -20 -25 -20z" />
    <glyph glyph-name="Rho" unicode="&#x3a1;" horiz-adv-x="1220" 
d="M659 672q340 0 394 305q27 162 -47 247t-232 85h-289l-112 -637h286zM360 1464h437q225 0 346 -141t83 -358t-186 -333t-399 -116h-295l-88 -496q-4 -20 -25 -20h-129q-25 0 -20 25l252 1419q-1 20 24 20z" />
    <glyph glyph-name="Sigma" unicode="&#x3a3;" horiz-adv-x="1081" 
d="M879 0h-875q-25 0 -20 25l12 73q2 10 14 27l543 625l-317 598q-6 12 -5 28l11 68q4 20 24 20h875q25 0 20 -24l-22 -113q-4 -20 -23 -20h-661q41 -59 92 -168l203 -371q10 -20 -2 -33l-363 -430q-59 -72 -139 -147h661q23 0 19 -25l-23 -113q-4 -20 -24 -20z" />
    <glyph glyph-name="Tau" unicode="&#x3a4;" horiz-adv-x="1093" 
d="M209 1464h1001q25 0 21 -24l-21 -111q-4 -23 -24 -22h-418l-227 -1287q-4 -20 -25 -20h-129q-25 0 -20 25l229 1282h-412q-25 0 -20 24l20 113q5 20 25 20z" />
    <glyph glyph-name="Upsilon" unicode="&#x3a5;" horiz-adv-x="1105" 
d="M526 0h-133q-25 0 -18 25l94 526l-305 887q-6 27 18 26h137q18 0 25 -18l236 -739l479 743q8 14 24 14h152q12 0 17 -8t-3 -18l-602 -887l-96 -531q-2 -20 -25 -20z" />
    <glyph glyph-name="Phi" unicode="&#x3a6;" horiz-adv-x="1675" 
d="M1176 1251h-123l-187 -1048h115q139 1 257 99t151 288l51 282q35 199 -44 289t-220 90zM571 203h123l187 1048h-115q-141 0 -258 -95t-152 -284l-51 -288q-35 -190 46 -286t220 -95zM1217 1409q195 0 319 -142t76 -409l-51 -280q-25 -134 -85 -240t-142 -168
q-162 -124 -349 -125h-147l-29 -160q-4 -20 -25 -20h-127q-25 0 -20 22l29 158h-140q-190 0 -315 143t-80 408l53 289q45 258 213 391t365 133h147l27 150q0 20 22 20h129q25 0 21 -25l-27 -145h136z" />
    <glyph glyph-name="Chi" unicode="&#x3a7;" horiz-adv-x="1163" 
d="M1100 1464h151q15 0 19 -8t-4 -18l-545 -707l313 -704q6 -11 1 -19t-17 -8h-141q-18 0 -25 16l-250 582l-444 -584q-8 -14 -27 -14h-162q-14 0 -18 8t4 19l559 712l-299 699q-6 12 -1 19t17 7h140q20 0 26 -16l234 -576l440 578q9 14 29 14z" />
    <glyph glyph-name="Psi" unicode="&#x3a8;" horiz-adv-x="1622" 
d="M1516 1464h124q25 0 21 -24l-111 -629q-41 -229 -207 -356t-370 -127h-115l-53 -308q-4 -20 -25 -20h-129q-25 0 -20 25l55 303h-104q-203 0 -327 138t-85 357l109 621q4 20 24 20h127q25 0 21 -24l-111 -625q-29 -164 50 -248t231 -84h92l170 961q4 20 24 20h127
q25 0 21 -24l-170 -957h90q150 0 263 89t142 251l111 621q0 20 25 20z" />
    <glyph glyph-name="uni03A9" unicode="&#x3a9;" horiz-adv-x="1343" 
d="M465 0h-391q-27 0 -21 25l21 110q2 20 24 21h164q-150 178 -104 446l59 332q51 279 219 416t400 137t353 -150q122 -150 68 -446l-57 -326q-24 -117 -92 -225t-164 -184h156q25 0 20 -25l-20 -111q-2 -20 -25 -20h-391q-25 0 -20 25l10 71q0 18 20 25q131 51 218 175
t120 302l55 320q39 221 -33 315q-73 94 -239 95q-353 2 -428 -423l-55 -311q-66 -354 151 -475q18 -6 15 -27l-11 -72q-2 -20 -22 -20z" />
    <glyph glyph-name="Iotadieresis" unicode="&#x3aa;" horiz-adv-x="522" 
d="M667 1858q45 0 67 -31t16 -75t-36 -71t-76 -27t-68 33q-22 31 -16 73t38 70q31 28 75 28zM314 1858q44 0 66 -31t16 -75q-7 -44 -37 -71q-29 -27 -75 -27t-68 33q-22 31 -16 73t38 70t76 28zM231 0h-127q-25 0 -20 25l252 1419q0 20 24 20h127q25 1 21 -24l-252 -1420
q0 -20 -25 -20z" />
    <glyph glyph-name="Upsilondieresis" unicode="&#x3ab;" horiz-adv-x="1105" 
d="M526 0h-133q-25 0 -18 25l94 526l-305 887q-6 27 18 26h137q18 0 25 -18l236 -739l479 743q8 14 24 14h152q12 0 17 -8t-3 -18l-602 -887l-96 -531q-2 -20 -25 -20zM983 1858q45 0 67 -31t16 -75q-7 -44 -37 -71t-76 -27q-45 0 -67 33q-22 31 -16 73t37 70t76 28z
M582 1858q46 0 68 -31t16 -75t-36 -71t-76 -27t-69 33q-23 31 -15 73t37 70q30 28 75 28z" />
    <glyph glyph-name="alphatonos" unicode="&#x3ac;" horiz-adv-x="1071" 
d="M662 1223h-95q-14 0 -18 9t6 17l215 275q8 14 27 14h129q14 0 18 -8t-6 -19l-250 -276q-8 -12 -26 -12zM426 127q166 0 301 152l109 610q-106 43 -220 43t-206 -73t-115 -193l-53 -283q-23 -123 25 -189t159 -67zM630 1081q172 0 371 -80q18 -8 15 -26l-168 -955
q-4 -20 -25 -20h-98q-20 0 -20 23l6 92q-154 -137 -322 -137t-257 118q-89 119 -56 303l53 281q37 190 183 296t318 105z" />
    <glyph glyph-name="epsilontonos" unicode="&#x3ad;" horiz-adv-x="960" 
d="M623 1223h-95q-14 0 -18 9t6 17l215 275q8 14 27 14h129q14 0 18 -8t-6 -19l-250 -276q-10 -12 -26 -12zM397 -23q-178 1 -276 99t-74 246q33 182 217 241q-129 80 -96 250q23 119 138 194q116 75 284 74q209 0 352 -139q12 -14 0 -31l-76 -80q-14 -16 -30 0
q-102 102 -261 103q-95 0 -165 -44t-83 -119t29 -117t131 -42h195q27 0 18 -22l-14 -88q-4 -20 -24 -21h-193q-106 0 -175 -46t-83 -132t40 -133t165 -47q172 0 336 139q20 16 32 -6l58 -82q10 -19 -2 -31q-176 -166 -443 -166z" />
    <glyph glyph-name="etatonos" unicode="&#x3ae;" horiz-adv-x="1101" 
d="M182 0h-121q-25 0 -18 25l174 956q2 14 19 25q194 76 394 76t301 -120t62 -327l-110 -615q-4 -20 -25 -20h-121q-25 0 -20 25l110 622q55 287 -217 287q-125 0 -243 -43l-160 -871q0 -20 -25 -20zM668 1223h-95q-14 0 -18 9t6 17l215 275q8 14 27 14h129q14 0 18 -8
t-6 -19l-250 -276q-10 -12 -26 -12z" />
    <glyph glyph-name="iotatonos" unicode="&#x3af;" horiz-adv-x="438" 
d="M186 0h-120q-25 0 -21 25l182 1013q0 20 23 21h121q25 0 20 -25l-182 -1014q0 -20 -23 -20zM358 1223h-94q-14 0 -18 9t6 17l215 275q8 14 27 14h129q14 0 18 -8t-6 -19l-250 -276q-11 -12 -27 -12z" />
    <glyph glyph-name="upsilondieresistonos" unicode="&#x3b0;" horiz-adv-x="1081" 
d="M961 1450q41 0 60 -26t12 -66q-7 -41 -36 -67q-29 -25 -69 -25t-60 25q-20 26 -14 67q8 40 37 66t70 26zM464 1450q40 0 60 -26t13 -67q-8 -42 -37 -67q-29 -24 -68 -24q-38 0 -60 26t-14 66t37 66t69 26zM651 1223h-71q-27 0 -15 26l158 275q6 14 27 14h102q12 0 17 -8
t-3 -19l-188 -274q-9 -14 -27 -14zM446 -23q-180 0 -279 119t-71 279l123 663q4 20 25 21h121q25 0 18 -25l-123 -676q-20 -111 36 -172t166 -61t189 68q80 68 101 178l122 667q4 20 25 21h121q25 0 20 -25l-122 -672q-33 -170 -163 -278q-129 -108 -309 -107z" />
    <glyph glyph-name="alpha" unicode="&#x3b1;" horiz-adv-x="1071" 
d="M426 127q166 0 301 152l109 610q-106 43 -220 43t-206 -73t-115 -193l-53 -283q-23 -123 25 -189t159 -67zM630 1081q172 0 371 -80q18 -8 15 -26l-168 -955q-4 -20 -25 -20h-98q-20 0 -20 23l6 92q-154 -137 -322 -137t-257 118q-89 119 -56 303l53 281q37 190 183 296
t318 105z" />
    <glyph glyph-name="beta" unicode="&#x3b2;" horiz-adv-x="1060" 
d="M455 125q285 0 333 287q23 132 -30 198t-193 66h-119q-25 0 -20 24l18 99q0 20 23 20h115q104 0 181 79t97 200t-32 182t-158 61q-106 -1 -181 -75q-74 -74 -94 -193l-157 -891q88 -57 217 -57zM115 -391h-117q-25 0 -21 24l259 1457q34 196 156 296t296 100t268 -113
q94 -114 64 -294q-20 -109 -82 -191t-156 -126q100 -43 146 -139t22 -228q-37 -205 -164 -309t-325 -109q-141 -4 -248 62l-74 -410q-4 -20 -24 -20z" />
    <glyph glyph-name="gamma" unicode="&#x3b3;" horiz-adv-x="978" 
d="M385 -389h-119q-25 0 -20 24l67 385l-196 1014q-6 25 18 25h127q18 0 23 -21l82 -475q37 -233 53 -383h4q158 338 186 391l246 471q10 16 29 17h133q31 0 18 -27l-557 -1020l-69 -381q-5 -20 -25 -20z" />
    <glyph glyph-name="delta" unicode="&#x3b4;" horiz-adv-x="1028" 
d="M436 127q107 1 195 65t110 185l33 188q37 217 -203 279q-117 -16 -201 -89t-102 -190l-35 -200q-20 -115 38 -177t165 -61zM686 1487q182 0 320 -90q20 -14 6 -31l-66 -96q-16 -18 -31 -6q-115 78 -230 78t-183 -38t-81 -110t65 -131t198 -107q301 -125 254 -395
l-35 -196q-33 -187 -171 -287t-311 -100t-280 107q-106 108 -73 292l36 209q23 127 106 220t202 134q-86 57 -126 122t-24 155q20 119 131 195t293 75z" />
    <glyph glyph-name="epsilon" unicode="&#x3b5;" horiz-adv-x="960" 
d="M397 -23q-178 1 -276 99t-74 246q33 182 217 241q-129 80 -96 250q23 119 138 194q116 75 284 74q209 0 352 -139q12 -14 0 -31l-76 -80q-14 -16 -30 0q-102 102 -261 103q-95 0 -165 -44t-83 -119t29 -117t131 -42h195q27 0 18 -22l-14 -88q-4 -20 -24 -21h-193
q-106 0 -175 -46t-83 -132t40 -133t165 -47q172 0 336 139q20 16 32 -6l58 -82q10 -19 -2 -31q-176 -166 -443 -166z" />
    <glyph glyph-name="zeta" unicode="&#x3b6;" horiz-adv-x="905" 
d="M774 1317h-477q-25 0 -18 24l18 103q4 20 25 20h720q25 0 21 -24l-12 -72q-2 -14 -17 -25q-340 -203 -549 -431t-243 -433q-20 -111 24 -187t118 -112q75 -38 152 -68q185 -73 169 -193q-15 -120 -173 -290q-16 -16 -32 0l-78 70q-14 16 0 31q96 100 117 174
q10 34 -26 60t-95 46t-127 58t-124 83q-56 46 -84 132t-7 198q37 203 220 426t478 408v2z" />
    <glyph glyph-name="eta" unicode="&#x3b7;" horiz-adv-x="1101" 
d="M182 0h-121q-25 0 -18 25l174 956q2 14 19 25q194 76 394 76t301 -120t62 -327l-110 -615q-4 -20 -25 -20h-121q-25 0 -20 25l110 622q55 287 -217 287q-125 0 -243 -43l-160 -871q0 -20 -25 -20z" />
    <glyph glyph-name="theta" unicode="&#x3b8;" horiz-adv-x="1140" 
d="M383 1044l-41 -223h555l41 232q26 145 -36 218t-188 73t-217 -81q-91 -80 -114 -219zM268 399q-47 -272 221 -276q135 0 224 75q88 75 112 214l45 260h-553zM991 412q-39 -217 -171 -327t-336 -109t-308 120t-70 328l113 633q37 207 172 319t335 112q200 1 305 -121
t69 -331z" />
    <glyph glyph-name="iota" unicode="&#x3b9;" horiz-adv-x="438" 
d="M186 0h-120q-25 0 -21 25l182 1013q0 20 23 21h121q25 0 20 -25l-182 -1014q0 -20 -23 -20z" />
    <glyph glyph-name="kappa" unicode="&#x3ba;" horiz-adv-x="970" 
d="M856 1059h152q14 0 18 -9t-6 -20l-496 -440l342 -563q14 -27 -14 -27h-141q-18 0 -25 14l-280 465l-134 -119l-61 -340q0 -20 -25 -20h-120q-25 0 -21 25l180 1013q4 20 25 21h121q25 0 20 -25l-80 -448l516 463q15 10 29 10z" />
    <glyph glyph-name="lambda" unicode="&#x3bb;" horiz-adv-x="1101" 
d="M695 1487q198 1 298 -105t68 -303l-189 -1059q0 -20 -22 -20h-123q-25 0 -20 25l139 780q-109 51 -225 51q-272 0 -318 -266l-98 -570q-4 -20 -25 -20h-121q-25 0 -20 25l100 579q39 209 169 306t319 98q125 0 245 -52l27 152q20 113 -34 169t-169 56q-160 0 -309 -100
q-18 -16 -29 6l-49 100q-10 19 6 29q182 119 380 119z" />
    <glyph glyph-name="uni03BC" unicode="&#x3bc;" horiz-adv-x="1118" 
d="M119 -391h-121q-25 0 -21 24l250 1405q0 20 23 21h123q23 0 18 -25l-112 -643q-23 -117 29 -191t171 -75q119 0 205 79t107 185l112 649q4 20 25 21h123q23 0 18 -25l-178 -1014q-4 -20 -25 -20h-92q-23 0 -22 23l10 106q-41 -68 -122 -110t-171 -42t-153 41
q-62 41 -89 107l-20 -143l-64 -353q-4 -20 -24 -20z" />
    <glyph glyph-name="nu" unicode="&#x3bd;" horiz-adv-x="989" 
d="M475 0h-147q-20 0 -25 20l-186 1014q-4 25 22 25h123q20 0 25 -21l98 -592q12 -90 41 -270h4q68 147 131 273l303 593q8 16 27 17h137q29 0 16 -27l-540 -1018q-9 -14 -29 -14z" />
    <glyph glyph-name="xi" unicode="&#x3be;" horiz-adv-x="901" 
d="M668 1341q-102 0 -187 -65q-84 -66 -102 -176t44 -178q62 -70 179 -70h158q27 0 18 -23l-18 -104q0 -20 -25 -20h-170q-119 0 -216 -77t-121 -196t68 -189q48 -38 116 -73t77 -35q111 -47 157 -80t58 -67q47 -125 -165 -359q-16 -18 -33 -2l-76 70q-14 14 -2 33
q104 119 114 164q10 46 -23 68q-34 22 -111 52q-78 30 -112 47q-34 15 -93 55t-88 80t-46 106t-3 147q20 127 105 214t214 123q-207 102 -164 344q27 154 155 255t318 101t334 -132q14 -14 2 -33l-65 -80q-12 -18 -31 -2q-113 102 -266 102z" />
    <glyph glyph-name="omicron" unicode="&#x3bf;" horiz-adv-x="1056" 
d="M452 125q128 0 210 69t100 183l53 295q20 114 -35 188t-178 74t-205 -69t-104 -181l-51 -295q-20 -119 32 -191q50 -72 178 -73zM928 367q-35 -177 -167 -283t-326 -106t-293 123q-99 124 -66 302l53 295q31 168 165 276t329 108t293 -127q98 -126 65 -296z" />
    <glyph glyph-name="pi" unicode="&#x3c0;" horiz-adv-x="1081" 
d="M254 1059h764q25 0 18 -25l-186 -1014q0 -20 -25 -20h-120q-25 0 -21 25l164 886h-473l-166 -891q0 -20 -25 -20h-121q-25 0 -20 25l186 1013q5 21 25 21z" />
    <glyph glyph-name="rho" unicode="&#x3c1;" horiz-adv-x="1079" 
d="M461 131q127 0 215 67t110 195l48 260q49 274 -211 275q-121 0 -203 -73t-107 -216l-75 -428q96 -80 223 -80zM111 -391h-121q-27 0 -21 24l183 1022q35 211 164 319q130 108 318 108t295 -116q108 -114 70 -323l-49 -270q-35 -197 -164 -296t-331 -100q-125 0 -244 82
l-76 -430q-4 -20 -24 -20z" />
    <glyph glyph-name="sigma1" unicode="&#x3c2;" horiz-adv-x="880" 
d="M597 1081q179 0 312 -104q18 -12 4 -31l-63 -82q-14 -14 -31 -4q-113 74 -233 74t-196 -65q-75 -65 -93 -171l-49 -280q-21 -122 62 -185q46 -35 79 -52t122 -54t135 -72t60 -71t5 -82q-18 -92 -170 -273q-14 -18 -31 -2l-80 70q-16 16 -2 33q109 127 117 171
q8 45 -28 67t-165 73t-196 119q-104 106 -74 278l49 277q31 168 159 267t307 99z" />
    <glyph glyph-name="sigma" unicode="&#x3c3;" horiz-adv-x="1116" 
d="M776 391l47 258q23 125 -32 194t-185 69t-215 -74q-86 -74 -108 -203l-45 -256q-23 -123 33 -189q55 -66 185 -66t214 72t106 195zM623 1059h514q25 0 20 -25l-20 -108q-4 -20 -25 -21h-199q104 -92 72 -270l-45 -256q-35 -186 -168 -295t-331 -108t-298 117t-67 304
l45 256q33 186 167 296t335 110z" />
    <glyph glyph-name="tau" unicode="&#x3c4;" horiz-adv-x="874" 
d="M143 1059h768q25 0 21 -25l-19 -102q-4 -20 -24 -21h-303l-164 -891q0 -20 -23 -20h-123q-23 0 -18 25l162 886h-299q-25 0 -21 23l19 104q4 21 24 21z" />
    <glyph glyph-name="upsilon" unicode="&#x3c5;" horiz-adv-x="1081" 
d="M446 -23q-180 0 -279 119t-71 279l123 663q4 20 25 21h121q25 0 18 -25l-123 -676q-20 -111 36 -172t166 -61t189 68q80 68 101 178l122 667q4 20 25 21h121q25 0 20 -25l-122 -672q-33 -170 -163 -278q-129 -108 -309 -107z" />
    <glyph glyph-name="phi" unicode="&#x3c6;" horiz-adv-x="1433" 
d="M846 147q122 0 198 66t99 186l45 246q51 268 -182 268h-146l-135 -766h121zM571 913q-111 1 -187 -69t-97 -195l-45 -241q-49 -260 188 -261h131l137 766h-127zM608 -389h-119q-23 0 -18 24l64 365h-136q-166 0 -262 115t-61 301l49 252q35 182 161 286t298 105h139
l70 385q4 20 24 20h117q25 0 20 -24l-67 -381h147q178 0 266 -116t54 -306l-47 -254q-37 -187 -164 -285t-316 -98h-129l-65 -369q-5 -20 -25 -20z" />
    <glyph glyph-name="chi" unicode="&#x3c7;" horiz-adv-x="962" 
d="M831 1059h144q14 0 17 -9t-5 -20l-401 -491l252 -512q10 -27 -19 -27h-133q-16 0 -27 16l-192 404l-334 -406q-8 -14 -27 -14h-149q-14 0 -18 8t4 19l436 512l-232 493q-10 27 19 27h131q18 0 25 -17l176 -387l307 389q10 15 26 15z" />
    <glyph glyph-name="psi" unicode="&#x3c8;" horiz-adv-x="1476" 
d="M629 -389h-119q-25 0 -18 24l65 365h-104q-178 0 -281 113q-102 113 -66 317l113 608q0 20 25 21h118q27 0 21 -25l-115 -622q-26 -137 30 -202t198 -65h88l164 893q4 20 24 21h121q25 0 18 -25l-161 -889h77q137 0 225 72q87 72 111 209l111 612q4 20 24 21h121
q25 0 19 -25l-111 -618q-37 -204 -176 -310t-313 -106h-115l-70 -369q-1 -20 -24 -20z" />
    <glyph glyph-name="omega" unicode="&#x3c9;" horiz-adv-x="1503" 
d="M401 125q90 0 153 65q62 66 83 183l53 289q2 20 25 20h119q25 0 20 -25l-53 -297q-39 -231 149 -235q88 0 160 63t90 166l62 334q26 106 -20 170t-146 78q-25 7 -17 27l39 100q8 16 29 16q153 -25 231 -130t47 -269l-59 -336q-33 -178 -153 -272t-269 -95
q-215 0 -258 183q-109 -182 -309 -183q-150 1 -245 107t-62 281l59 335q31 158 141 255q111 97 269 124q25 0 26 -20l19 -103q2 -20 -21 -26q-102 -14 -179 -81t-95 -169l-58 -324q-20 -109 30 -170t140 -61z" />
    <glyph glyph-name="iotadieresis" unicode="&#x3ca;" horiz-adv-x="438" 
d="M484 1433q30 23 73 23t65 -28t14 -73q-9 -44 -39 -69q-30 -24 -73 -24q-42 0 -64 28t-14 74q8 45 38 69zM140 1433q30 23 73 23t65 -28t13 -73q-8 -44 -38 -69q-30 -24 -73 -24q-42 0 -64 28t-14 74q8 45 38 69zM186 0h-120q-25 0 -21 25l182 1013q0 20 23 21h121
q25 0 20 -25l-182 -1014q0 -20 -23 -20z" />
    <glyph glyph-name="upsilondieresis" unicode="&#x3cb;" horiz-adv-x="1081" 
d="M827 1433q31 23 73 23t64 -28t15 -73q-8 -44 -38 -69q-30 -24 -73 -24q-44 0 -66 28t-14 74q8 45 39 69zM436 1433q31 23 74 23q42 0 64 -28t14 -73q-8 -44 -38 -69q-30 -24 -73 -24t-65 28t-15 74q8 45 39 69zM446 -23q-180 0 -279 119t-71 279l123 663q4 20 25 21h121
q25 0 18 -25l-123 -676q-20 -111 36 -172t166 -61t189 68q80 68 101 178l122 667q4 20 25 21h121q25 0 20 -25l-122 -672q-33 -170 -163 -278q-129 -108 -309 -107z" />
    <glyph glyph-name="omicrontonos" unicode="&#x3cc;" horiz-adv-x="1056" 
d="M452 125q128 0 210 69t100 183l53 295q20 114 -35 188t-178 74t-205 -69t-104 -181l-51 -295q-20 -119 32 -191q50 -72 178 -73zM928 367q-35 -177 -167 -283t-326 -106t-293 123q-99 124 -66 302l53 295q31 168 165 276t329 108t293 -127q98 -126 65 -296zM641 1223h-94
q-14 0 -19 9q-4 9 7 17l215 275q8 14 26 14h129q15 0 19 -8t-6 -19l-250 -276q-9 -12 -27 -12z" />
    <glyph glyph-name="upsilontonos" unicode="&#x3cd;" horiz-adv-x="1081" 
d="M662 1223h-95q-14 0 -18 9t6 17l215 275q8 14 27 14h129q14 0 18 -8t-6 -19l-250 -276q-8 -12 -26 -12zM446 -23q-180 0 -279 119t-71 279l123 663q4 20 25 21h121q25 0 18 -25l-123 -676q-20 -111 36 -172t166 -61t189 68q80 68 101 178l122 667q4 20 25 21h121
q25 0 20 -25l-122 -672q-33 -170 -163 -278q-129 -108 -309 -107z" />
    <glyph glyph-name="omegatonos" unicode="&#x3ce;" horiz-adv-x="1503" 
d="M870 1223h-94q-14 0 -18 9t6 17l215 275q8 14 27 14h129q14 0 18 -8t-6 -19l-250 -276q-9 -12 -27 -12zM401 125q90 0 153 65q62 66 83 183l53 289q2 20 25 20h119q25 0 20 -25l-53 -297q-39 -231 149 -235q88 0 160 63t90 166l62 334q26 106 -20 170t-146 78
q-25 7 -17 27l39 100q8 16 29 16q153 -25 231 -130t47 -269l-59 -336q-33 -178 -153 -272t-269 -95q-215 0 -258 183q-109 -182 -309 -183q-150 1 -245 107t-62 281l59 335q31 158 141 255q111 97 269 124q25 0 26 -20l19 -103q2 -20 -21 -26q-102 -14 -179 -81t-95 -169
l-58 -324q-20 -109 30 -170t140 -61z" />
    <glyph glyph-name="uni0401" unicode="&#x401;" horiz-adv-x="1128" 
d="M993 825q25 0 21 -24l-21 -111q-4 -20 -24 -20h-596l-90 -512h659q20 0 21 -23l-21 -115q0 -20 -24 -20h-814q-25 0 -20 25l252 1419q4 20 24 20h789q22 1 18 -24l-18 -111q-4 -23 -25 -22h-641l-84 -482h594zM987 1667q-43 0 -65 29t-15 74q8 44 39 68t73 24
q43 0 65 -29t14 -73t-38 -68t-73 -25zM629 1862q43 0 65 -29t13 -73q-8 -44 -38 -68t-73 -25q-43 0 -66 29q-22 29 -14 74q8 44 39 68t74 24z" />
    <glyph glyph-name="uni0402" unicode="&#x402;" horiz-adv-x="1386" 
d="M897 131q145 0 188 242l45 272q51 264 -227 264q-121 0 -225 -49l-154 -840q-2 -20 -24 -20h-127q-25 0 -21 23l234 1284h-404q-27 0 -18 22l18 115q4 20 25 20h985q25 0 18 -24l-20 -113q-4 -20 -25 -20h-407l-49 -283q106 39 221 39q203 2 304 -118t66 -308l-43 -272
q-37 -207 -123 -297t-229 -91q-39 0 -96 9q-23 4 -16 24l20 107q0 23 24 19t60 -5z" />
    <glyph glyph-name="uni0403" unicode="&#x403;" horiz-adv-x="1003" 
d="M754 1608h-107q-14 0 -18 9t6 17l256 277q12 12 29 12h145q14 0 18 -9t-6 -18l-295 -278q-10 -10 -28 -10zM233 0h-127q-25 0 -20 25l250 1419q4 20 24 20h756q25 0 21 -24l-21 -113q-4 -20 -24 -20h-607l-227 -1287q-5 -20 -25 -20z" />
    <glyph glyph-name="uni0404" unicode="&#x404;" horiz-adv-x="1155" 
d="M530 -23q-214 1 -332 143t-75 386l86 495q39 236 200 361t388 125t395 -144q16 -12 2 -30l-82 -94q-12 -16 -29 -7q-135 115 -304 115t-270 -93t-130 -257l-29 -166h553q23 0 21 -25l-25 -112q-4 -20 -25 -21h-550l-29 -157q-27 -160 45 -259t227 -100q201 0 379 137
q20 20 31 -6l55 -104q12 -19 -6 -31q-223 -156 -496 -156z" />
    <glyph glyph-name="uni0405" unicode="&#x405;" horiz-adv-x="1185" 
d="M537 137q137 0 240 67t123 187q19 120 -87 188q-79 51 -225 95q-434 137 -375 473q33 176 173 258t347 82q133 0 235 -38t212 -124q16 -14 4 -31l-78 -90q-12 -16 -31 -4q-166 127 -360 127q-127 0 -219 -51t-114 -165t53 -175q75 -60 195 -96t189 -68q71 -32 141 -87
q148 -113 111 -329q-67 -376 -571 -378q-124 0 -230 46t-223 146q-16 14 -2 33l76 88q14 14 33 2q188 -156 383 -156z" />
    <glyph glyph-name="uni0406" unicode="&#x406;" horiz-adv-x="524" 
d="M233 0h-129q-25 0 -20 25l252 1419q4 20 24 20h127q25 1 21 -24l-250 -1420q-4 -20 -25 -20z" />
    <glyph glyph-name="uni0407" unicode="&#x407;" horiz-adv-x="524" 
d="M667 1858q45 0 67 -31t16 -75t-36 -71t-76 -27t-68 33q-22 31 -16 73t38 70q31 28 75 28zM314 1858q44 0 66 -31t16 -75q-7 -44 -37 -71q-29 -27 -75 -27t-68 33q-22 31 -16 73t38 70t76 28zM231 0h-127q-25 0 -20 25l252 1419q0 20 24 20h127q25 1 21 -24l-252 -1420
q0 -20 -25 -20z" />
    <glyph glyph-name="uni0408" unicode="&#x408;" horiz-adv-x="997" 
d="M334 -23q-223 0 -371 162q-14 14 0 31l70 88q12 20 30 2q127 -127 293 -127q227 0 279 277l184 1034q0 20 25 20h127q25 0 20 -24l-182 -1041q-35 -199 -161 -311t-314 -111z" />
    <glyph glyph-name="uni0409" unicode="&#x409;" horiz-adv-x="1982" 
d="M1366 158q150 0 242 82t118 239q51 287 -251 287h-297l-109 -608h297zM1497 924q211 0 326 -130t78 -335q-78 -459 -555 -459h-453q-25 0 -21 25l228 1282h-473q-162 -796 -283 -1045q-96 -196 -228 -243q-67 -24 -157 -25q-25 0 -20 24l14 121q2 20 22 21q55 4 95 22
q82 36 151 212q68 176 135 468q66 291 127 582q2 20 25 20h770q27 0 20 -24l-92 -516h291z" />
    <glyph glyph-name="uni040A" unicode="&#x40a;" horiz-adv-x="1910" 
d="M1294 168q145 0 241 72q95 72 117 207t-39 201q-62 66 -220 65h-256l-99 -545h256zM1413 868q233 0 343 -114t73 -322t-185 -320t-372 -112h-416q-25 0 -20 25l125 688h-580l-125 -693q-2 -20 -25 -20h-131q-25 0 -20 25l260 1419q0 20 25 20h131q25 0 18 -24l-102 -572
h579l105 576q2 20 24 20h131q25 0 21 -24l-103 -572h244z" />
    <glyph glyph-name="uni040B" unicode="&#x40b;" horiz-adv-x="1402" 
d="M1176 0h-129q-25 0 -19 25l115 618q27 141 -35 206t-213 62q-111 0 -217 -55l-152 -836q-2 -20 -24 -20h-129q-25 0 -19 25l234 1282h-406q-23 0 -18 24l20 113q4 20 25 20h983q25 0 20 -24l-20 -111q-4 -23 -25 -22h-405l-53 -287q115 43 223 43q209 4 314 -108t65 -334
l-111 -601q-2 -20 -24 -20z" />
    <glyph glyph-name="uni040C" unicode="&#x40c;" horiz-adv-x="1198" 
d="M1124 1464h172q14 0 18 -8t-7 -18l-668 -637l459 -774q14 -27 -17 -27h-149q-18 0 -25 14l-397 670l-160 -139l-92 -525q-4 -20 -25 -20h-127q-25 0 -20 25l248 1419q4 20 24 20h129q25 0 21 -24l-117 -662l705 674q12 12 28 12zM807 1608h-107q-14 0 -18 9t6 17l256 277
q12 12 29 12h145q14 0 18 -9t-6 -18l-294 -278q-11 -10 -29 -10z" />
    <glyph glyph-name="uni040E" unicode="&#x40e;" horiz-adv-x="1067" 
d="M426 1890q0 16 20 25l99 22q23 6 22 -20q0 -170 156 -170t219 176q6 20 27 16l88 -24q22 -7 16 -25q-39 -131 -136 -209q-97 -77 -237 -77t-208 76q-66 76 -66 210zM328 0h-150q-12 0 -16 8t4 19l276 450l-272 961q-6 27 18 26h131q20 0 25 -18l209 -791h4l465 795
q6 14 25 14h147q31 0 16 -26l-856 -1424q-6 -14 -26 -14z" />
    <glyph glyph-name="uni040F" unicode="&#x40f;" horiz-adv-x="1337" 
d="M1174 1464h129q25 0 20 -24l-254 -1420q0 -20 -22 -20h-379l-45 -248q-2 -20 -25 -20h-125q-25 0 -18 24l43 244h-394q-27 0 -20 25l252 1419q4 20 24 20h129q25 0 19 -24l-225 -1282h639l227 1286q5 20 25 20z" />
    <glyph glyph-name="uni0410" unicode="&#x410;" horiz-adv-x="1204" 
d="M739 1272h-6l-356 -731h469zM1079 0h-131q-23 0 -24 20l-54 365h-569l-184 -369q-10 -16 -29 -16h-143q-27 0 -17 27l727 1421q8 16 29 16h160q23 0 24 -20l232 -1419q4 -25 -21 -25z" />
    <glyph glyph-name="uni0411" unicode="&#x411;" horiz-adv-x="1241" 
d="M608 158q304 0 355 299q23 143 -33 209t-213 65h-334l-102 -573h327zM1178 1307h-693l-73 -420h323q242 0 341 -110t59 -343q-76 -434 -541 -434h-490q-25 0 -20 25l252 1419q4 20 24 20h842q21 1 21 -24l-21 -113q-4 -20 -24 -20z" />
    <glyph glyph-name="uni0412" unicode="&#x412;" horiz-adv-x="1251" 
d="M731 850q111 0 191 63t100 172q37 223 -217 224h-320l-82 -459h328zM596 158q147 0 246 71q98 72 121 211q39 254 -244 254h-342l-96 -536h315zM569 0h-465q-25 0 -20 25l254 1419q0 20 24 20h476q209 0 296 -112t58 -287q-39 -211 -227 -287q219 -86 170 -358
q-35 -208 -183 -314t-383 -106z" />
    <glyph glyph-name="uni0413" unicode="&#x413;" horiz-adv-x="1003" 
d="M233 0h-127q-25 0 -20 25l250 1419q4 20 24 20h756q25 0 21 -24l-21 -113q-4 -20 -24 -20h-607l-227 -1287q-5 -20 -25 -20z" />
    <glyph glyph-name="uni0414" unicode="&#x414;" horiz-adv-x="1361" 
d="M649 1309q-102 -508 -189 -775t-190 -376h631l203 1151h-455zM33 -281h-125q-27 0 -21 25l72 397q0 20 23 21h55q80 34 143 144q136 238 332 1138q2 20 25 20h743q25 0 20 -24l-225 -1282h115q25 0 18 -25l-69 -391q-4 -23 -25 -23h-125q-27 0 -22 25l47 256h-912
l-45 -258q-4 -23 -24 -23z" />
    <glyph glyph-name="uni0415" unicode="&#x415;" horiz-adv-x="1128" 
d="M993 825q25 0 21 -24l-21 -111q-4 -20 -24 -20h-596l-90 -512h659q20 0 21 -23l-21 -115q0 -20 -24 -20h-814q-25 0 -20 25l252 1419q4 20 24 20h789q22 1 18 -24l-18 -111q-4 -23 -25 -22h-641l-84 -482h594z" />
    <glyph glyph-name="uni0416" unicode="&#x416;" horiz-adv-x="1738" 
d="M1679 1464h168q13 0 17 -8t-6 -18l-650 -652l402 -759q10 -27 -17 -27h-157q-16 0 -27 16l-319 652l-129 -131l-91 -517q-4 -20 -24 -20h-131q-25 0 -21 25l90 514l-86 129l-546 -654q-8 -14 -29 -14h-174q-35 0 -12 27l673 780l-399 631q-14 27 12 26h166q18 0 25 -14
l411 -678l115 672q4 20 25 20h131q25 0 20 -24l-117 -672l652 684q12 12 28 12z" />
    <glyph glyph-name="uni0417" unicode="&#x417;" horiz-adv-x="1153" 
d="M705 1487q203 0 315 -118t84 -290q-18 -102 -88 -190t-172 -119q104 -41 152 -139t30 -217q-36 -215 -192 -326t-381 -111q-291 0 -453 181q-14 14 0 30l76 93q14 16 30 0q137 -143 371 -144q143 0 249 83q104 83 124 207q20 125 -48 191t-235 66h-190q-29 0 -21 23
l21 110q0 23 24 23h189q143 0 234 72q92 72 108 178q16 104 -49 171q-66 67 -205 66q-209 0 -381 -141q-20 -18 -31 4l-53 102q-6 18 6 31q203 164 486 164z" />
    <glyph glyph-name="uni0418" unicode="&#x418;" horiz-adv-x="1372" 
d="M246 0h-140q-25 0 -20 25l250 1421q0 20 24 20h127q25 0 21 -24l-109 -613q-47 -272 -118 -567h4q211 299 264 369l622 821q10 14 29 14h135q25 0 21 -24l-250 -1422q-4 -20 -25 -20h-129q-25 0 -18 25l100 563q51 289 123 594h-4q-215 -317 -289 -412l-592 -756
q-8 -14 -26 -14z" />
    <glyph glyph-name="uni0419" unicode="&#x419;" horiz-adv-x="1372" 
d="M606 1890q0 16 21 25l98 22q23 6 23 -20q0 -170 156 -170t218 176q6 20 27 16l88 -24q22 -7 16 -25q-39 -131 -136 -209q-97 -77 -237 -77t-207 76t-67 210zM246 0h-140q-25 0 -20 25l250 1421q0 20 24 20h127q25 0 21 -24l-109 -613q-47 -272 -118 -567h4
q211 299 264 369l622 821q10 14 29 14h135q25 0 21 -24l-250 -1422q-4 -20 -25 -20h-129q-25 0 -18 25l100 563q51 289 123 594h-4q-215 -317 -289 -412l-592 -756q-8 -14 -26 -14z" />
    <glyph glyph-name="uni041A" unicode="&#x41a;" horiz-adv-x="1198" 
d="M1124 1464h172q14 0 18 -8t-7 -18l-668 -637l459 -774q14 -27 -17 -27h-149q-18 0 -25 14l-397 670l-160 -139l-92 -525q-4 -20 -25 -20h-127q-25 0 -20 25l248 1419q4 20 24 20h129q25 0 21 -24l-117 -662l705 674q12 12 28 12z" />
    <glyph glyph-name="uni041B" unicode="&#x41b;" horiz-adv-x="1316" 
d="M508 1464h772q25 0 20 -24l-251 -1420q-4 -20 -25 -20h-127q-25 0 -20 25l225 1282h-475q-162 -800 -283 -1044q-96 -194 -228 -243q-67 -25 -157 -26q-25 0 -20 24l14 121q2 20 22 21q55 4 95 22q82 36 151 212q68 176 135 468q66 291 127 582q2 20 25 20z" />
    <glyph glyph-name="uni041C" unicode="&#x41c;" horiz-adv-x="1644" 
d="M106 0q-25 0 -20 25l250 1419q0 20 22 20h154q18 0 25 -18l168 -524q70 -221 112 -385h4q145 240 223 356l381 557q12 14 29 14h154q25 0 20 -24l-250 -1420q-4 -20 -24 -20h-127q-25 0 -21 25l99 563q59 352 106 588h-6q-84 -141 -209 -336l-328 -494q-10 -16 -24 -16
h-105q-18 0 -24 18l-162 514q-49 158 -90 312h-6q-39 -240 -103 -607l-94 -547q-4 -20 -24 -20h-130z" />
    <glyph glyph-name="uni041D" unicode="&#x41d;" horiz-adv-x="1339" 
d="M1176 1464h127q25 0 20 -24l-252 -1420q0 -20 -24 -20h-127q-25 0 -19 25l113 643h-641l-115 -648q-4 -20 -25 -20h-129q-25 0 -20 25l252 1419q4 20 24 20h127q25 0 21 -24l-109 -617h643l109 621q0 20 25 20z" />
    <glyph glyph-name="uni041E" unicode="&#x41e;" horiz-adv-x="1331" 
d="M595 137q167 -1 284 99t145 268l78 444q29 168 -49 274t-250 105q-172 0 -285 -99t-143 -274l-76 -432q-29 -168 50 -276t246 -109zM828 1487q252 0 371 -157q118 -157 75 -398l-74 -436q-41 -242 -210 -380t-421 -138q-253 0 -369 156q-116 157 -73 407l74 430
q41 240 208 378t419 138z" />
    <glyph glyph-name="uni041F" unicode="&#x41f;" horiz-adv-x="1335" 
d="M229 0h-129q-25 0 -18 25l258 1419q2 20 25 20h940q25 0 18 -24l-260 -1420q0 -20 -25 -20h-129q-25 0 -18 25l235 1280h-637l-235 -1285q-2 -20 -25 -20z" />
    <glyph glyph-name="uni0420" unicode="&#x420;" horiz-adv-x="1220" 
d="M659 672q340 0 394 305q27 162 -47 247t-232 85h-289l-112 -637h286zM360 1464h437q225 0 346 -141t83 -358t-186 -333t-399 -116h-295l-88 -496q-4 -20 -25 -20h-129q-25 0 -20 25l252 1419q-1 20 24 20z" />
    <glyph glyph-name="uni0421" unicode="&#x421;" horiz-adv-x="1148" 
d="M530 -23q-218 1 -334 143t-73 386l86 495q41 236 201 361t387 125t395 -144q20 -12 2 -30l-82 -96q-12 -16 -31 -3q-135 113 -302 113t-269 -93t-131 -257l-82 -481q-29 -158 43 -258t227 -101q203 0 379 137q20 20 31 -6l55 -104q12 -19 -4 -29q-223 -158 -498 -158z
" />
    <glyph glyph-name="uni0422" unicode="&#x422;" horiz-adv-x="1093" 
d="M209 1464h1001q25 0 21 -24l-21 -111q-4 -23 -24 -22h-418l-227 -1287q-4 -20 -25 -20h-129q-25 0 -20 25l229 1282h-412q-25 0 -20 24l20 113q5 20 25 20z" />
    <glyph glyph-name="uni0423" unicode="&#x423;" horiz-adv-x="1067" 
d="M328 0h-150q-12 0 -16 8t4 19l276 450l-272 961q-6 27 18 26h131q20 0 25 -18l209 -791h4l465 795q6 14 25 14h147q31 0 16 -26l-856 -1424q-6 -14 -26 -14z" />
    <glyph glyph-name="uni0424" unicode="&#x424;" horiz-adv-x="1675" 
d="M1176 1251h-123l-187 -1048h115q139 1 257 99t151 288l51 282q35 199 -44 289t-220 90zM571 203h123l187 1048h-115q-141 0 -258 -95t-152 -284l-51 -288q-35 -190 46 -286t220 -95zM1217 1409q195 0 319 -142t76 -409l-51 -280q-25 -134 -85 -240t-142 -168
q-162 -124 -349 -125h-147l-29 -160q-4 -20 -25 -20h-127q-25 0 -20 22l29 158h-140q-190 0 -315 143t-80 408l53 289q45 258 213 391t365 133h147l27 150q0 20 22 20h129q25 0 21 -25l-27 -145h136z" />
    <glyph glyph-name="uni0425" unicode="&#x425;" horiz-adv-x="1163" 
d="M1100 1464h151q15 0 19 -8t-4 -18l-545 -707l313 -704q6 -11 1 -19t-17 -8h-141q-18 0 -25 16l-250 582l-444 -584q-8 -14 -27 -14h-162q-14 0 -18 8t4 19l559 712l-299 699q-6 12 -1 19t17 7h140q20 0 26 -16l234 -576l440 578q9 14 29 14z" />
    <glyph glyph-name="uni0426" unicode="&#x426;" horiz-adv-x="1359" 
d="M1155 1464h129q25 0 19 -24l-228 -1282h109q27 0 20 -23l-69 -383q-4 -20 -25 -20h-123q-25 0 -18 24l43 244h-908q-27 0 -20 25l252 1419q4 20 24 20h129q25 0 21 -24l-227 -1282h620l227 1286q5 20 25 20z" />
    <glyph glyph-name="uni0427" unicode="&#x427;" horiz-adv-x="1226" 
d="M1190 1464q25 0 20 -24l-249 -1420q-4 -20 -25 -20h-129q-25 0 -21 25l99 546q-143 -66 -303 -65q-199 0 -317 141t-83 344l82 453q0 20 23 20h129q25 0 20 -24l-82 -455q-27 -151 44 -235q70 -84 220 -84t297 84l123 694q4 20 25 20h127z" />
    <glyph glyph-name="uni0428" unicode="&#x428;" horiz-adv-x="1921" 
d="M1751 1464h133q25 0 21 -24l-252 -1420q-4 -20 -25 -20h-1522q-25 0 -20 25l250 1419q4 20 24 20h134q25 0 20 -24l-225 -1280h518l225 1284q4 20 25 20h131q25 0 20 -24l-225 -1280h518l225 1284q4 20 25 20z" />
    <glyph glyph-name="uni0429" unicode="&#x429;" horiz-adv-x="1912" 
d="M1704 1464h133q25 0 18 -24l-225 -1282h109q25 0 18 -23l-67 -383q-4 -20 -25 -20h-125q-25 0 -18 24l45 244h-1461q-25 0 -20 25l250 1419q4 20 24 20h132q25 0 20 -24l-227 -1282h495l228 1286q4 20 24 20h131q25 0 21 -24l-228 -1282h498l227 1286q0 20 23 20z" />
    <glyph glyph-name="uni042A" unicode="&#x42a;" horiz-adv-x="1345" 
d="M731 160q301 0 356 317q53 293 -251 293h-297l-113 -610h305zM860 930q223 0 333 -126t72 -346q-39 -220 -181 -339t-375 -119h-469q-23 0 -19 25l238 1284h-271q-27 0 -20 24l20 111q2 20 25 20h426q27 0 20 -24l-92 -510h293z" />
    <glyph glyph-name="uni042B" unicode="&#x42b;" horiz-adv-x="1722" 
d="M1432 0h-129q-25 0 -21 25l252 1419q4 20 25 20h127q24 1 20 -24l-250 -1420q-4 -20 -24 -20zM586 158q303 0 358 321q53 297 -252 297h-299l-112 -618h305zM717 936q211 0 325 -133t78 -344q-80 -459 -557 -459h-465q-25 0 -18 25l260 1419q2 20 25 20h129q27 0 20 -24
l-92 -504h295z" />
    <glyph glyph-name="uni042C" unicode="&#x42c;" horiz-adv-x="1200" 
d="M586 158q303 0 358 321q53 297 -252 297h-299l-112 -618h305zM717 936q211 0 325 -133t78 -344q-80 -459 -557 -459h-465q-25 0 -18 25l260 1419q2 20 25 20h129q27 0 20 -24l-92 -504h295z" />
    <glyph glyph-name="uni042D" unicode="&#x42d;" horiz-adv-x="1157" 
d="M436 -23q-264 0 -430 160q-14 14 -2 33l80 98q12 18 31 2q143 -131 340 -131q156 0 259 93t132 255l33 183h-564q-27 0 -20 24l22 113q4 20 25 20h563l25 142q27 162 -44 262t-222 100q-197 0 -357 -114q-20 -14 -31 6l-51 92q-8 20 6 28q205 143 463 144q217 0 334 -142
t76 -387l-86 -495q-41 -236 -203 -361t-379 -125z" />
    <glyph glyph-name="uni042E" unicode="&#x42e;" horiz-adv-x="1767" 
d="M1054 147q144 -1 258 93t144 258l86 481q31 170 -44 254q-76 84 -222 84t-258 -90t-144 -260l-86 -482q-30 -164 46 -251t220 -87zM231 0h-131q-23 0 -18 25l256 1419q2 20 24 20h132q25 0 18 -24l-111 -617h271l26 156q45 246 212 377t384 131t343 -138t81 -382
l-86 -482q-43 -243 -210 -375t-385 -132t-344 138t-81 382l29 159h-268l-117 -637q-2 -20 -25 -20z" />
    <glyph glyph-name="uni042F" unicode="&#x42f;" horiz-adv-x="1261" 
d="M735 1309q-147 0 -241 -78t-122 -220q-28 -143 36 -225t210 -81h322l111 604h-316zM154 0h-166q-35 0 -13 27l480 540q-145 33 -215 158t-37 315t178 308q145 117 373 116h473q25 0 20 -24l-258 -1420q-2 -20 -24 -20h-129q-25 0 -19 25l94 522h-264l-465 -535
q-12 -12 -28 -12z" />
    <glyph glyph-name="uni0430" unicode="&#x430;" horiz-adv-x="1015" 
d="M411 125q121 0 253 37l53 307q-123 25 -232 25q-261 0 -292 -168q-18 -98 39 -150q58 -51 179 -51zM404 -23q-190 1 -299 99q-110 98 -76 270q27 143 152 218q126 75 311 75q125 0 249 -27l17 88q20 118 -26 176t-192 58t-282 -80q-23 -14 -29 10l-39 88q-6 20 7 29
q163 100 367 100q204 1 297 -107t61 -284l-107 -616q-2 -13 -18 -25q-203 -72 -393 -72z" />
    <glyph glyph-name="uni0431" unicode="&#x431;" horiz-adv-x="1075" 
d="M602 852q-150 0 -266 -86l-70 -399q-22 -121 38 -181t171 -59q111 -1 197 65t110 189l33 197q49 274 -213 274zM656 1004q168 0 266 -118q96 -118 61 -317l-35 -196q-33 -193 -170 -294t-315 -101t-286 111q-108 112 -73 308l111 635q31 176 159 282t318 138
q190 31 303 82q20 8 31 -10l41 -99q8 -23 -10 -30q-117 -55 -342 -95q-129 -24 -221 -94t-115 -190l-14 -86q123 74 291 74z" />
    <glyph glyph-name="uni0432" unicode="&#x432;" horiz-adv-x="1032" 
d="M567 610q86 0 147 45q60 45 74 119q23 145 -157 146h-258l-54 -310h248zM481 137q229 0 262 180q14 86 -33 124q-48 38 -157 38h-260l-60 -342h248zM473 0h-405q-27 0 -21 25l180 1013q4 20 25 21h399q160 0 242 -86t57 -211q-27 -147 -180 -209q168 -63 135 -252
q-25 -147 -137 -224t-295 -77z" />
    <glyph glyph-name="uni0433" unicode="&#x433;" horiz-adv-x="782" 
d="M190 0h-122q-25 0 -21 25l180 1013q4 20 25 21h567q25 0 21 -25l-19 -102q-4 -20 -24 -21h-424l-158 -891q-5 -20 -25 -20z" />
    <glyph glyph-name="uni0434" unicode="&#x434;" horiz-adv-x="1140" 
d="M496 911q-135 -641 -269 -764h498l133 764h-362zM31 -281h-117q-23 0 -18 25l67 383q4 20 25 20h49q182 88 330 891q4 20 22 21h639q25 0 21 -25l-158 -887h96q27 0 23 -24l-70 -381q-4 -23 -25 -23h-116q-25 0 -21 25l47 256h-723l-47 -258q1 -23 -24 -23z" />
    <glyph glyph-name="uni0435" unicode="&#x435;" horiz-adv-x="1038" 
d="M797 590l18 98q23 123 -39 184q-62 62 -177 62q-116 0 -198 -65t-104 -181l-18 -98h518zM618 1081q182 0 287 -105q104 -105 68 -300l-37 -205q-2 -20 -25 -20h-659l-16 -89q-25 -115 36 -177t181 -62q162 0 329 121q18 14 31 -4l53 -84q10 -23 -6 -31
q-190 -147 -428 -148q-176 1 -286 105t-74 285l59 333q35 186 170 284t317 97z" />
    <glyph glyph-name="uni0436" unicode="&#x436;" horiz-adv-x="1425" 
d="M1288 1059h156q14 0 17 -8t-7 -21l-430 -440l283 -563q12 -27 -17 -27h-135q-18 0 -25 16l-225 469l-139 -137l-59 -328q0 -20 -23 -20h-121q-25 0 -20 25l59 333l-86 129l-391 -473q-8 -14 -27 -14h-147q-14 0 -18 8q-3 8 6 19l489 581l-270 422q-8 12 -3 20t17 9h143
q18 0 25 -17l180 -286q18 -34 60 -98t59 -99l84 479q4 20 25 21h118q27 0 21 -25l-84 -471q23 23 87 95t101 108l269 281q10 12 28 12z" />
    <glyph glyph-name="uni0437" unicode="&#x437;" horiz-adv-x="942" 
d="M535 1081q168 0 259 -91q91 -90 65 -236t-169 -199q76 -33 109 -103t16 -155q-25 -141 -147 -230t-308 -90q-118 0 -206 35t-168 121q-12 18 2 33l75 78q14 16 31 0q115 -121 279 -121q113 0 189 52t89 137q14 85 -34 127t-152 42h-193q-25 0 -20 23l16 88q0 20 25 20
h192q82 0 142 46q59 46 72 123t-36 115q-50 38 -147 38q-162 0 -291 -107q-20 -14 -30 7l-54 86q-10 18 4 30q175 131 390 131z" />
    <glyph glyph-name="uni0438" unicode="&#x438;" horiz-adv-x="1105" 
d="M211 0h-143q-25 0 -21 25l180 1013q0 20 23 21h121q25 0 18 -25l-94 -536q-12 -76 -51 -250l2 -2q72 106 180 252l438 546q10 14 27 15h145q25 0 21 -25l-180 -1014q-4 -20 -25 -20h-121q-25 0 -20 25l92 518q16 82 55 258h-4q-135 -188 -190 -258l-424 -529
q-13 -14 -29 -14z" />
    <glyph glyph-name="uni0439" unicode="&#x439;" horiz-adv-x="1105" 
d="M659 1223q-127 0 -193 83t-63 193q0 20 23 25l84 12q23 0 25 -23q0 -158 145 -157q154 0 209 164q6 20 26 16l89 -12q26 -4 16 -27q-84 -274 -361 -274zM211 0h-143q-25 0 -21 25l180 1013q0 20 23 21h121q25 0 18 -25l-94 -536q-12 -76 -51 -250l2 -2q72 106 180 252
l438 546q10 14 27 15h145q25 0 21 -25l-180 -1014q-4 -20 -25 -20h-121q-25 0 -20 25l92 518q16 82 55 258h-4q-135 -188 -190 -258l-424 -529q-13 -14 -29 -14z" />
    <glyph glyph-name="uni043A" unicode="&#x43a;" horiz-adv-x="972" 
d="M858 1059h152q14 0 18 -9t-6 -20l-496 -440l342 -563q14 -27 -14 -27h-141q-18 0 -25 14l-280 465l-134 -119l-61 -340q0 -20 -25 -20h-120q-25 0 -21 25l180 1013q4 20 25 21h121q25 0 20 -25l-80 -448l516 463q15 10 29 10z" />
    <glyph glyph-name="uni043B" unicode="&#x43b;" horiz-adv-x="1091" 
d="M1026 1059q25 0 18 -25l-184 -1014q-2 -20 -24 -20h-123q-25 0 -19 25l162 888h-362q-94 -424 -176 -627q-81 -203 -212 -260q-59 -26 -141 -28q-23 0 -20 22l18 115q4 18 23 23q74 4 125 70q101 132 245 810q6 20 27 21h643z" />
    <glyph glyph-name="uni043C" unicode="&#x43c;" horiz-adv-x="1306" 
d="M188 0h-120q-25 0 -21 25l180 1013q4 20 25 21h143q18 0 25 -19l133 -407q39 -119 72 -238h4q80 129 153 238l287 411q10 14 27 15h141q25 0 20 -25l-178 -1014q-4 -20 -24 -20h-121q-25 0 -21 25l88 491l52 272h-2q-74 -123 -164 -256l-225 -329q-12 -14 -29 -15h-74
q-18 0 -22 19l-119 356q-12 37 -35 113t-35 112h-2q-37 -236 -45 -272l-88 -496q-5 -20 -25 -20z" />
    <glyph glyph-name="uni043D" unicode="&#x43d;" horiz-adv-x="1081" 
d="M1016 1059q25 0 18 -25l-184 -1014q-2 -20 -25 -20h-120q-25 0 -21 25l82 450h-473l-84 -455q0 -20 -23 -20h-123q-23 0 -18 25l186 1013q0 20 25 21h121q25 0 18 -25l-76 -411h476l75 415q4 20 25 21h121z" />
    <glyph glyph-name="uni043E" unicode="&#x43e;" horiz-adv-x="1056" 
d="M452 125q128 0 210 69t100 183l53 295q20 114 -35 188t-178 74t-205 -69t-104 -181l-51 -295q-20 -119 32 -191q50 -72 178 -73zM928 367q-35 -177 -167 -283t-326 -106t-293 123q-99 124 -66 302l53 295q31 168 165 276t329 108t293 -127q98 -126 65 -296z" />
    <glyph glyph-name="uni043F" unicode="&#x43f;" horiz-adv-x="1085" 
d="M256 1059h764q25 0 18 -25l-186 -1014q0 -20 -25 -20h-120q-25 0 -21 25l164 886h-473l-166 -891q0 -20 -25 -20h-120q-25 0 -21 25l186 1013q5 21 25 21z" />
    <glyph glyph-name="uni0440" unicode="&#x440;" horiz-adv-x="1069" 
d="M604 934q-136 0 -242 -53l-122 -688q94 -66 227 -66q268 0 315 283l41 233q27 159 -28 225t-191 66zM471 -23q-150 0 -256 68l-76 -414q-4 -20 -24 -20h-121q-25 0 -19 24l238 1332q2 16 16 24q76 41 184 66t201 24q220 0 314 -126t59 -326l-39 -230q-33 -197 -160 -309
t-317 -113z" />
    <glyph glyph-name="uni0441" unicode="&#x441;" horiz-adv-x="925" 
d="M434 -23q-195 0 -293 118t-63 313l51 292q31 174 160 278t308 103q179 0 321 -106q14 -12 2 -31l-64 -82q-12 -16 -31 -4q-102 76 -227 76t-204 -66t-99 -176l-53 -295q-23 -129 33 -201t184 -73q128 0 266 94q20 16 31 -6l51 -90q8 -19 -8 -33q-170 -111 -365 -111z" />
    <glyph glyph-name="uni0442" unicode="&#x442;" horiz-adv-x="874" 
d="M143 1059h768q25 0 21 -25l-19 -102q-4 -20 -24 -21h-303l-164 -891q0 -20 -23 -20h-123q-23 0 -18 25l162 886h-299q-25 0 -21 23l19 104q4 21 24 21z" />
    <glyph glyph-name="uni0443" unicode="&#x443;" horiz-adv-x="1095" 
d="M1026 1059q25 0 21 -25l-181 -1009q-80 -434 -483 -435q-231 0 -369 142q-10 16 0 30l70 82q14 18 33 2q117 -106 272 -106q268 0 313 299l9 43q-137 -47 -246 -47q-186 0 -288 113q-101 114 -64 311l104 579q4 20 25 21h120q25 0 19 -25l-105 -590q-52 -261 224 -261
q130 0 237 63l142 792q4 20 24 21h123z" />
    <glyph glyph-name="uni0444" unicode="&#x444;" horiz-adv-x="1433" 
d="M846 147q122 0 198 66t99 186l45 246q51 268 -182 268h-146l-135 -766h121zM571 913q-111 1 -187 -69t-97 -195l-45 -241q-49 -260 188 -261h131l137 766h-127zM608 -389h-119q-23 0 -18 24l64 365h-136q-166 0 -262 115t-61 301l49 252q35 182 161 286t298 105h139
l70 385q4 20 24 20h117q25 0 20 -24l-67 -381h147q178 0 266 -116t54 -306l-47 -254q-37 -187 -164 -285t-316 -98h-129l-65 -369q-5 -20 -25 -20z" />
    <glyph glyph-name="uni0445" unicode="&#x445;" horiz-adv-x="962" 
d="M831 1059h144q14 0 17 -9t-5 -20l-401 -491l252 -512q10 -27 -19 -27h-133q-16 0 -27 16l-192 404l-334 -406q-8 -14 -27 -14h-149q-14 0 -18 8t4 19l436 512l-232 493q-10 27 19 27h131q18 0 25 -17l176 -387l307 389q10 15 26 15z" />
    <glyph glyph-name="uni0446" unicode="&#x446;" horiz-adv-x="1101" 
d="M870 -268h-110q-25 0 -21 24l45 244h-721q-25 0 -18 25l184 1013q4 20 25 21h121q25 0 18 -25l-160 -887h453l160 891q4 20 24 21h121q25 0 21 -25l-162 -887h96q25 0 19 -24l-70 -371q-2 -20 -25 -20z" />
    <glyph glyph-name="uni0447" unicode="&#x447;" horiz-adv-x="1009" 
d="M944 1059q25 0 19 -25l-187 -1014q-2 -20 -24 -20h-121q-25 0 -21 25l68 362q-117 -45 -236 -45q-180 0 -268 111t-49 327l53 258q4 20 25 21h116q25 0 19 -25l-49 -264q-23 -152 19 -216t159 -65q117 0 238 46l94 503q0 20 24 21h121z" />
    <glyph glyph-name="uni0448" unicode="&#x448;" horiz-adv-x="1529" 
d="M1460 1059q25 0 21 -25l-183 -1014q0 -20 -24 -20h-1208q-23 0 -19 25l178 1013q4 20 25 21h119q25 0 20 -25l-158 -887h381l158 891q4 20 25 21h118q25 0 21 -25l-156 -887h379l158 891q4 20 24 21h121z" />
    <glyph glyph-name="uni0449" unicode="&#x449;" horiz-adv-x="1572" 
d="M1343 -268h-112q-25 0 -21 24l45 244h-1192q-23 0 -18 25l184 1013q4 20 25 21h121q25 0 18 -25l-160 -887h379l164 891q0 20 23 21h121q25 0 18 -25l-162 -887h381l164 891q0 20 25 21h118q25 0 19 -25l-162 -887h98q25 0 19 -24l-70 -371q0 -20 -25 -20z" />
    <glyph glyph-name="uni044A" unicode="&#x44a;" horiz-adv-x="1128" 
d="M584 145q248 0 284 205q46 207 -200 207h-222l-75 -412h213zM709 705q178 1 267 -101t58 -270q-57 -334 -440 -334h-391q-25 0 -21 25l158 888h-219q-23 0 -19 23l19 102q4 20 24 21h363q25 0 20 -25l-59 -329h240z" />
    <glyph glyph-name="uni044B" unicode="&#x44b;" horiz-adv-x="1417" 
d="M1163 0h-121q-25 0 -20 25l182 1013q0 20 23 21h121q25 0 20 -25l-182 -1014q0 -20 -23 -20zM449 145q246 0 284 205q46 207 -201 207h-221l-75 -412h213zM573 705q175 1 265 -101t61 -270q-57 -334 -440 -334h-391q-25 0 -21 25l180 1013q0 20 23 21h123q25 0 20 -25
l-59 -329h239z" />
    <glyph glyph-name="uni044C" unicode="&#x44c;" horiz-adv-x="993" 
d="M449 145q246 0 284 205q46 207 -201 207h-221l-75 -412h213zM573 705q175 1 265 -101t61 -270q-57 -334 -440 -334h-391q-25 0 -21 25l180 1013q0 20 23 21h123q25 0 20 -25l-59 -329h239z" />
    <glyph glyph-name="uni044D" unicode="&#x44d;" horiz-adv-x="899" 
d="M478 1081q183 0 279 -118q95 -119 60 -312l-49 -291q-31 -170 -159 -276t-305 -106t-318 124q-14 12 -2 31l67 84q12 20 31 2q102 -94 224 -94t200 69t96 175l21 108h-375q-23 0 -19 25l19 92q0 23 22 22h375l8 46q23 128 -30 200t-174 72t-234 -86q-18 -16 -33 6l-45 90
q-8 21 8 31q150 106 333 106z" />
    <glyph glyph-name="uni044E" unicode="&#x44e;" horiz-adv-x="1447" 
d="M1000 934q-120 0 -200 -70t-102 -180l-51 -295q-20 -119 30 -191t173 -73q123 1 204 69t99 183l53 295q20 114 -32 188q-54 74 -174 74zM188 0h-120q-25 0 -21 25l180 1013q0 20 23 21h123q23 0 18 -25l-69 -401h198l12 65q29 168 163 276t326 108t288 -127
q96 -126 63 -296l-53 -292q-35 -177 -165 -283t-320 -106t-289 122q-98 123 -66 303l15 76h-201l-80 -459q-4 -20 -25 -20z" />
    <glyph glyph-name="uni044F" unicode="&#x44f;" horiz-adv-x="1019" 
d="M469 537h246l65 376h-235q-223 0 -254 -168q-19 -98 25 -153t153 -55zM125 0h-145q-14 0 -19 8q-4 8 4 19l363 389q-119 35 -172 125q-54 90 -28 227t141 214q116 77 290 77h389q27 0 21 -25l-183 -1014q0 -20 -22 -20h-121q-25 0 -20 25l65 370h-186l-348 -383
q-13 -12 -29 -12z" />
    <glyph glyph-name="uni0451" unicode="&#x451;" horiz-adv-x="1038" 
d="M797 590l18 98q23 123 -39 184q-62 62 -177 62q-116 0 -198 -65t-104 -181l-18 -98h518zM618 1081q182 0 287 -105q104 -105 68 -300l-37 -205q-2 -20 -25 -20h-659l-16 -89q-25 -115 36 -177t181 -62q162 0 329 121q18 14 31 -4l53 -84q10 -23 -6 -31
q-190 -147 -428 -148q-176 1 -286 105t-74 285l59 333q35 186 170 284t317 97zM811 1433q31 23 73 23t64 -28t15 -73q-8 -44 -38 -69q-30 -24 -73 -24t-66 28q-22 28 -14 74q8 45 39 69zM420 1433q32 23 74 23t64 -28t13 -73q-7 -44 -37 -69q-30 -24 -73 -24t-66 28t-15 74
q8 45 40 69z" />
    <glyph glyph-name="uni0452" unicode="&#x452;" horiz-adv-x="1097" 
d="M645 1057q187 0 283 -117t55 -342l-111 -618q-68 -389 -360 -390q-33 0 -86 9q-23 2 -18 26l20 107q2 18 23 18q53 -4 77 -4q137 0 181 244l110 631q53 291 -207 290q-135 0 -258 -77l-143 -814q0 -20 -25 -20h-120q-23 0 -19 25l207 1179h-154q-25 0 -18 23l12 67
q2 20 25 21h155l23 129q4 20 25 20h120q25 0 19 -24l-23 -125h285q25 0 20 -23l-12 -67q-2 -20 -24 -21h-287l-37 -215q125 68 262 68z" />
    <glyph glyph-name="uni0453" unicode="&#x453;" horiz-adv-x="782" 
d="M557 1223h-94q-14 0 -19 9q-4 9 7 17l215 275q8 14 26 14h129q15 0 19 -8t-6 -19l-250 -276q-11 -12 -27 -12zM190 0h-122q-25 0 -21 25l180 1013q4 20 25 21h567q25 0 21 -25l-19 -102q-4 -20 -24 -21h-424l-158 -891q-5 -20 -25 -20z" />
    <glyph glyph-name="uni0454" unicode="&#x454;" horiz-adv-x="907" 
d="M427 -23q-189 0 -285 119q-95 119 -62 312l51 290q31 172 158 278t302 105q175 0 310 -106q18 -12 4 -31l-65 -82q-12 -16 -31 -2q-102 74 -220 74t-196 -68t-96 -176l-12 -74h370q23 0 19 -24l-19 -94q0 -20 -24 -21h-371l-14 -80q-23 -127 30 -199t180 -73
q127 0 253 94q20 12 32 -6l50 -92q7 -21 -9 -31q-166 -113 -355 -113z" />
    <glyph glyph-name="uni0455" unicode="&#x455;" horiz-adv-x="950" 
d="M395 -23q-231 0 -385 138q-14 12 -4 30l60 82q12 18 30 4q131 -109 310 -108q112 0 182 41t85 119t-51 117q-45 28 -161 61q-375 106 -328 358q25 133 145 198t298 65t331 -99q18 -8 4 -31l-65 -88q-12 -16 -31 -6q-111 76 -270 76q-102 0 -170 -36t-80 -113t67 -120
q64 -36 162 -61q162 -41 250 -126t63 -222q-26 -137 -149 -208t-293 -71z" />
    <glyph glyph-name="uni0456" unicode="&#x456;" horiz-adv-x="440" 
d="M346 1257q-42 0 -68 33t-18 75t37 67q29 24 72 24t69 -32t19 -74q-8 -43 -38 -68t-73 -25zM188 0h-120q-27 0 -21 25l180 1013q4 20 25 21h121q27 0 20 -25l-182 -1014q0 -20 -23 -20z" />
    <glyph glyph-name="uni0457" unicode="&#x457;" horiz-adv-x="440" 
d="M559 1456q43 0 65 -28t14 -73q-9 -44 -39 -69q-30 -24 -73 -24q-42 0 -64 28t-14 74q18 93 111 92zM142 1433q30 23 73 23t65 -28t13 -73q-8 -44 -38 -69q-30 -24 -73 -24q-42 0 -64 28t-14 74q8 45 38 69zM188 0h-120q-25 0 -21 25l182 1013q0 20 23 21h121q25 0 20 -25
l-182 -1014q0 -20 -23 -20z" />
    <glyph glyph-name="uni0458" unicode="&#x458;" horiz-adv-x="456" 
d="M370 1257q-42 0 -69 33t-19 75t37 67q29 24 72 24t69 -32t20 -74q-7 -43 -38 -68q-30 -25 -72 -25zM-139 -410q-33 0 -86 9q-23 2 -19 26l21 107q0 23 22 18q53 -4 76 -4q137 0 180 242l189 1050q0 20 22 21h123q25 0 21 -25l-189 -1059q-72 -385 -360 -385z" />
    <glyph glyph-name="uni0459" unicode="&#x459;" horiz-adv-x="1613" 
d="M1071 143q242 0 283 205q46 203 -199 203h-211l-76 -408h203zM1198 690q174 0 262 -97t60 -261q-57 -332 -437 -332h-385q-23 0 -18 25l162 886h-350q-95 -427 -175 -627q-80 -201 -211 -258q-59 -26 -141 -28q-23 0 -20 22l18 113q4 23 23 23q72 6 123 72
q102 131 247 810q6 20 27 21h631q23 0 18 -25l-63 -344h229z" />
    <glyph glyph-name="uni045A" unicode="&#x45a;" horiz-adv-x="1607" 
d="M1063 143q248 0 285 191q20 98 -28 144t-173 46h-223l-70 -381h209zM184 0h-121q-25 0 -18 25l184 1013q4 20 25 21h121q25 0 20 -25l-69 -375h456l72 379q4 20 25 21h120q25 0 19 -25l-68 -370h238q176 0 265 -94t60 -255q-57 -315 -440 -315h-385q-25 0 -20 25l90 487
h-459l-90 -492q-2 -20 -25 -20z" />
    <glyph glyph-name="uni045B" unicode="&#x45b;" horiz-adv-x="1099" 
d="M647 1057q185 0 281 -117t57 -342l-102 -578q-4 -20 -25 -20h-121q-25 0 -20 25l106 596q51 291 -209 290q-135 0 -258 -77l-143 -814q0 -20 -25 -20h-120q-25 0 -21 25l209 1179h-154q-25 0 -18 23l12 67q2 20 25 21h155l23 129q0 20 23 20h122q25 0 19 -24l-23 -125
h285q25 0 20 -23l-12 -67q-2 -20 -24 -21h-287l-37 -215q125 68 262 68z" />
    <glyph glyph-name="uni045C" unicode="&#x45c;" horiz-adv-x="972" 
d="M629 1223h-94q-14 0 -19 9q-4 9 6 17l215 275q8 14 27 14h129q14 0 18 -8t-6 -19l-250 -276q-8 -12 -26 -12zM858 1059h152q14 0 18 -9t-6 -20l-496 -440l342 -563q14 -27 -14 -27h-141q-18 0 -25 14l-280 465l-134 -119l-61 -340q0 -20 -25 -20h-120q-25 0 -21 25
l180 1013q4 20 25 21h121q25 0 20 -25l-80 -448l516 463q15 10 29 10z" />
    <glyph glyph-name="uni045D" unicode="&#x45d;" horiz-adv-x="1105" 
d="M676 1223q-16 0 -27 16l-139 272q-14 27 16 27h121q17 0 27 -16l110 -273q10 -27 -18 -26h-90zM211 0h-143q-25 0 -21 25l180 1013q0 20 23 21h121q25 0 18 -25l-94 -536q-12 -76 -51 -250l2 -2q72 106 180 252l438 546q10 14 27 15h145q25 0 21 -25l-180 -1014
q-4 -20 -25 -20h-121q-25 0 -20 25l92 518q16 82 55 258h-4q-135 -188 -190 -258l-424 -529q-13 -14 -29 -14z" />
    <glyph glyph-name="uni045E" unicode="&#x45e;" horiz-adv-x="1095" 
d="M1026 1059q25 0 21 -25l-181 -1009q-80 -434 -483 -435q-231 0 -369 142q-10 16 0 30l70 82q14 18 33 2q117 -106 272 -106q268 0 313 299l9 43q-137 -47 -246 -47q-186 0 -288 113q-101 114 -64 311l104 579q4 20 25 21h120q25 0 19 -25l-105 -590q-52 -261 224 -261
q130 0 237 63l142 792q4 20 24 21h123zM653 1223q-127 0 -193 83t-63 193q0 20 23 25l84 12q23 0 24 -23q0 -158 146 -157q154 0 209 164q6 20 26 16l88 -12q27 -4 17 -27q-84 -274 -361 -274z" />
    <glyph glyph-name="uni045F" unicode="&#x45f;" horiz-adv-x="1083" 
d="M451 -268h-115q-25 0 -19 24l48 244h-302q-25 0 -18 25l184 1013q4 20 25 21h121q25 0 18 -25l-162 -887h478l163 891q4 20 25 21h121q25 0 18 -25l-184 -1014q-2 -20 -25 -20h-301l-51 -248q-4 -20 -24 -20z" />
    <glyph glyph-name="uni0490" unicode="&#x490;" horiz-adv-x="985" 
d="M233 0h-127q-25 0 -20 25l250 1419q4 20 24 20h596l48 267q4 20 24 20h121q25 0 20 -25l-71 -399q0 -20 -23 -20h-590l-227 -1287q-5 -20 -25 -20z" />
    <glyph glyph-name="uni0491" unicode="&#x491;" horiz-adv-x="776" 
d="M184 0h-116q-25 0 -21 25l182 1013q0 20 23 21h434l41 223q4 20 25 21h104q25 0 21 -23l-64 -350q-4 -23 -25 -23h-423l-156 -887q-5 -20 -25 -20z" />
    <glyph glyph-name="Wgrave" unicode="&#x1e80;" horiz-adv-x="1841" 
d="M1188 1608h-101q-18 0 -26 14l-178 274q-8 10 -4 18t18 9h131q20 0 27 -16l149 -273q15 -26 -16 -26zM485 0h-155q-20 0 -23 20l-125 1420q-4 25 23 24h133q23 0 22 -22l58 -799q6 -84 22 -438h9q152 383 186 461l338 761q10 16 26 17h156q20 0 23 -21l75 -772
q14 -137 31 -446h10q94 281 176 481l320 762q6 16 25 16h141q31 0 16 -26l-618 -1422q-6 -16 -25 -16h-155q-23 0 -23 20l-74 693q-25 266 -39 479h-8q-78 -215 -194 -475l-324 -701q-11 -16 -27 -16z" />
    <glyph glyph-name="wgrave" unicode="&#x1e81;" horiz-adv-x="1472" 
d="M791 1221q-16 0 -27 16l-139 272q-14 27 16 27h121q16 0 26 -16l111 -273q10 -27 -18 -26h-90zM260 0q-23 0 -24 20l-113 1014q-2 8 4 16t16 7h123q25 0 25 -21l41 -452q14 -172 24 -396h6q72 205 158 390l209 446q6 16 25 16h135q23 0 22 -20l54 -471q18 -176 22 -361h4
q78 209 166 406l201 446q6 16 24 17h127q31 0 17 -25l-471 -1016q-10 -16 -27 -16h-139q-25 0 -25 23l-51 497q-14 150 -18 328h-4q-61 -174 -134 -330l-231 -502q-6 -16 -25 -16h-141z" />
    <glyph glyph-name="Wacute" unicode="&#x1e82;" horiz-adv-x="1841" 
d="M1130 1608h-106q-14 0 -18 9t6 17l256 277q12 12 28 12h146q14 0 18 -9t-6 -18l-295 -278q-11 -10 -29 -10zM485 0h-155q-20 0 -23 20l-125 1420q-4 25 23 24h133q23 0 22 -22l58 -799q6 -84 22 -438h9q152 383 186 461l338 761q10 16 26 17h156q20 0 23 -21l75 -772
q14 -137 31 -446h10q94 281 176 481l320 762q6 16 25 16h141q31 0 16 -26l-618 -1422q-6 -16 -25 -16h-155q-23 0 -23 20l-74 693q-25 266 -39 479h-8q-78 -215 -194 -475l-324 -701q-11 -16 -27 -16z" />
    <glyph glyph-name="wacute" unicode="&#x1e83;" horiz-adv-x="1472" 
d="M831 1221h-94q-14 0 -18 8t6 18l215 275q8 14 27 14h129q14 0 18 -8t-6 -19l-250 -276q-11 -12 -27 -12zM260 0q-23 0 -24 20l-113 1014q-2 8 4 16t16 7h123q25 0 25 -21l41 -452q14 -172 24 -396h6q72 205 158 390l209 446q6 16 25 16h135q23 0 22 -20l54 -471
q18 -176 22 -361h4q78 209 166 406l201 446q6 16 24 17h127q31 0 17 -25l-471 -1016q-10 -16 -27 -16h-139q-25 0 -25 23l-51 497q-14 150 -18 328h-4q-61 -174 -134 -330l-231 -502q-6 -16 -25 -16h-141z" />
    <glyph glyph-name="Wdieresis" unicode="&#x1e84;" horiz-adv-x="1841" 
d="M485 0h-155q-20 0 -23 20l-125 1420q-4 25 23 24h133q23 0 22 -22l58 -799q6 -84 22 -438h9q152 383 186 461l338 761q10 16 26 17h156q20 0 23 -21l75 -772q14 -137 31 -446h10q94 281 176 481l320 762q6 16 25 16h141q31 0 16 -26l-618 -1422q-6 -16 -25 -16h-155
q-23 0 -23 20l-74 693q-25 266 -39 479h-8q-78 -215 -194 -475l-324 -701q-11 -16 -27 -16zM1337 1653q-51 -1 -71 31t-14 76t36 72q31 28 76 28q44 0 68 -31t16 -78q-14 -98 -111 -98zM930 1860q46 0 68 -31t16 -77t-36 -73t-78 -27t-70 34t-16 76t39 70q32 28 77 28z" />
    <glyph glyph-name="wdieresis" unicode="&#x1e85;" horiz-adv-x="1472" 
d="M260 0q-23 0 -24 20l-113 1014q-2 8 4 16t16 7h123q25 0 25 -21l41 -452q14 -172 24 -396h6q72 205 158 390l209 446q6 16 25 16h135q23 0 22 -20l54 -471q18 -176 22 -361h4q78 209 166 406l201 446q6 16 24 17h127q31 0 17 -25l-471 -1016q-10 -16 -27 -16h-139
q-25 0 -25 23l-51 497q-14 150 -18 328h-4q-61 -174 -134 -330l-231 -502q-6 -16 -25 -16h-141zM1010 1432q30 24 72 24t64 -30t14 -73q-9 -44 -39 -68q-31 -23 -73 -23t-64 28t-14 73q8 44 40 69zM608 1432q31 24 73 24q41 0 63 -30t14 -73q-8 -44 -38 -68q-30 -23 -73 -23
t-65 28t-13 73q8 44 39 69z" />
    <glyph glyph-name="Ygrave" unicode="&#x1ef2;" horiz-adv-x="1105" 
d="M819 1608h-100q-18 0 -27 14l-178 274q-8 10 -4 18t18 9h131q20 0 27 -16l150 -273q14 -26 -17 -26zM526 0h-133q-25 0 -18 25l94 526l-305 887q-6 27 18 26h137q18 0 25 -18l236 -739l479 743q8 14 24 14h152q12 0 17 -8t-3 -18l-602 -887l-96 -531q-2 -20 -25 -20z" />
    <glyph glyph-name="ygrave" unicode="&#x1ef3;" horiz-adv-x="1095" 
d="M655 1223q-16 0 -26 16l-140 272q-14 27 17 27h121q16 0 26 -16l111 -273q10 -27 -19 -26h-90zM1026 1059q25 0 21 -25l-181 -1009q-80 -434 -483 -435q-231 0 -369 142q-10 16 0 30l70 82q14 18 33 2q117 -106 272 -106q268 0 313 299l9 43q-137 -47 -246 -47
q-186 0 -288 113q-101 114 -64 311l104 579q4 20 25 21h120q25 0 19 -25l-105 -590q-52 -261 224 -261q130 0 237 63l142 792q4 20 24 21h123z" />
    <glyph glyph-name="endash" unicode="&#x2013;" horiz-adv-x="1173" 
d="M154 535q-25 0 -19 24l21 117q0 20 24 20h864q25 1 21 -24l-21 -115q-4 -23 -24 -22h-866z" />
    <glyph glyph-name="emdash" unicode="&#x2014;" horiz-adv-x="1908" 
d="M1755 535h-1601q-25 0 -19 24l21 117q0 20 24 20h1600q24 1 20 -24l-22 -117q-4 -20 -23 -20z" />
    <glyph glyph-name="quoteleft" unicode="&#x2018;" horiz-adv-x="442" 
d="M406 1464h102q29 0 16 -26l-178 -412q-6 -18 -24 -18h-132q-28 -1 -18 26l205 414q10 16 29 16z" />
    <glyph glyph-name="quoteright" unicode="&#x2019;" horiz-adv-x="438" 
d="M297 1008h-102q-29 0 -19 26l178 414q10 16 27 16h131q26 1 16 -26l-204 -412q-8 -18 -27 -18z" />
    <glyph glyph-name="quotesinglbase" unicode="&#x201a;" horiz-adv-x="428" 
d="M-72 -242q-12 0 -17 8t-1 19l178 414q6 16 25 16h131q26 0 16 -25l-203 -415q-10 -16 -28 -17h-101z" />
    <glyph glyph-name="quotedblleft" unicode="&#x201c;" horiz-adv-x="755" 
d="M637 1008h-131q-27 0 -17 26l205 414q6 16 27 16h100q29 0 19 -26l-178 -412q-9 -18 -25 -18zM322 1008h-132q-27 0 -16 26l205 414q6 16 27 16h102q27 0 16 -26l-178 -412q-8 -18 -24 -18z" />
    <glyph glyph-name="quotedblright" unicode="&#x201d;" horiz-adv-x="751" 
d="M610 1008h-100q-31 0 -16 26l176 414q10 16 26 16h129q27 0 17 -26l-203 -414q-11 -16 -29 -16zM295 1008h-100q-27 0 -17 26l176 414q10 16 27 16h129q27 0 16 -26l-202 -414q-11 -16 -29 -16z" />
    <glyph glyph-name="quotedblbase" unicode="&#x201e;" horiz-adv-x="741" 
d="M344 -240h-100q-27 0 -17 25l176 414q10 18 27 18h129q29 0 16 -27l-202 -415q-9 -15 -29 -15zM31 -240h-103q-27 0 -16 25l176 414q10 18 27 18h131q29 0 14 -27l-203 -415q-6 -15 -26 -15z" />
    <glyph glyph-name="dagger" unicode="&#x2020;" horiz-adv-x="1079" 
d="M459 -285h-121q-25 0 -21 25l205 1161h-342q-25 0 -18 25l20 108q0 20 25 21h344l78 450q4 20 24 21h121q25 0 21 -25l-78 -446h338q25 0 20 -23l-20 -110q-2 -20 -25 -21h-344l-203 -1165q-4 -21 -24 -21z" />
    <glyph glyph-name="daggerdbl" unicode="&#x2021;" horiz-adv-x="1079" 
d="M459 -285h-121q-25 0 -21 25l80 455h-342q-25 0 -18 22l18 111q4 20 25 20h344l98 553h-342q-25 0 -18 25l20 108q0 20 25 21h344l78 450q4 20 24 21h121q25 0 21 -25l-78 -446h338q25 0 20 -23l-20 -110q-2 -20 -25 -21h-344l-96 -553h340q25 0 18 -24l-18 -111
q-4 -18 -25 -18h-342l-80 -459q-4 -21 -24 -21z" />
    <glyph glyph-name="bullet" unicode="&#x2022;" horiz-adv-x="708" 
d="M404 868q84 0 134 -61t34 -149t-78 -143q-60 -54 -146 -54t-135 61q-49 60 -34 150t77 143t148 53z" />
    <glyph glyph-name="ellipsis" unicode="&#x2026;" horiz-adv-x="1343" 
d="M1052 -6q-50 0 -78 36t-19 87t41 80t82 29t79 -37q29 -36 21 -87q-8 -52 -42 -80t-84 -28zM588 -6q-49 0 -78 36q-30 36 -20 87t42 80q33 29 83 29t79 -37q29 -36 19 -87q-10 -52 -43 -80t-82 -28zM124 -6q-50 0 -78 36t-18 87t41 80t81 29t79 -37q29 -36 21 -87
q-8 -52 -42 -80t-84 -28z" />
    <glyph glyph-name="perthousand" unicode="&#x2030;" horiz-adv-x="2228" 
d="M1156 94q56 0 104 42q47 42 61 116l43 225q12 70 -18 109q-32 39 -90 39t-106 -42t-63 -118l-38 -227q-13 -72 19 -108t88 -36zM1440 242q-23 -123 -107 -192q-85 -68 -191 -68t-168 76t-42 196l39 223q23 123 109 192t190 69t166 -78q62 -77 43 -195zM393 831
q57 0 104 41q46 41 60 115l43 227q12 70 -17 109q-30 39 -89 39q-58 0 -106 -42t-62 -118l-41 -227q-13 -72 19 -108t89 -36zM238 0h-95q-14 0 -17 8t5 19l1233 1415q12 12 29 12h92q30 0 12 -29l-1233 -1413q-10 -12 -26 -12zM508 1475q104 0 166 -77t43 -198l-39 -223
q-23 -123 -107 -191q-83 -68 -191 -68t-170 77q-62 76 -42 196l41 223q23 123 109 192t190 69zM1819 94q57 0 103 42t60 116l43 225q14 70 -16 109q-31 39 -90 39t-107 -42t-61 -118l-41 -227q-12 -72 20 -108t89 -36zM2103 242q-23 -125 -107 -193q-84 -67 -191 -67
q-108 0 -170 76t-42 196l41 223q23 123 110 192t190 69q104 0 166 -78q62 -77 42 -195z" />
    <glyph glyph-name="guilsinglleft" unicode="&#x2039;" horiz-adv-x="616" 
d="M444 145h-131q-20 0 -26 17l-199 418q-10 16 2 30l348 422q8 14 29 15h133q14 1 20 -9t-6 -18l-354 -424l201 -424q10 -27 -17 -27z" />
    <glyph glyph-name="guilsinglright" unicode="&#x203a;" horiz-adv-x="612" 
d="M188 1047h131q20 0 27 -17l199 -418q10 -16 -2 -30l-348 -422q-8 -14 -29 -15h-133q-13 -1 -19 9t4 18l355 424l-201 424q-11 27 16 27z" />
    <glyph glyph-name="fraction" unicode="&#x2044;" horiz-adv-x="387" 
d="M-354 0h-78q-14 0 -18 8q-3 8 6 19l1228 1425q10 12 27 12h78q30 1 12 -26l-1227 -1426q-10 -12 -28 -12z" />
    <glyph glyph-name="zero.sups" unicode="&#x2070;" horiz-adv-x="698" 
d="M417 942q67 0 118 38t63 110l53 294q14 72 -19 110q-34 38 -103 38t-119 -38t-62 -112l-53 -297q-17 -71 19 -107t103 -36zM405 829q-115 0 -183 76t-44 199l53 291q23 121 113 185t201 65q111 0 179 -79t44 -194l-53 -291q-25 -123 -110 -187t-200 -65z" />
    <glyph glyph-name="four.sups" unicode="&#x2074;" horiz-adv-x="643" 
d="M682 1120q25 0 18 -24l-12 -66q-2 -20 -26 -20h-52l-26 -150q-2 -20 -25 -20h-72q-25 0 -20 24l25 146h-340q-25 0 -21 24l8 53q2 12 15 27l352 506q12 14 31 14h81q14 0 18 -8t-3 -18l-338 -488h219l29 160q4 20 24 20h72q25 0 20 -24l-26 -156h49z" />
    <glyph glyph-name="five.sups" unicode="&#x2075;" horiz-adv-x="667" 
d="M385 829q-162 0 -242 111q-8 14 7 29l47 49q12 14 32 -6q57 -68 172 -68q72 0 124 44t67 120q27 147 -121 147q-86 0 -170 -63q-16 -16 -33 -6l-51 22q-23 8 -14 29l84 379q6 18 28 18h428q27 0 21 -24l-12 -68q-4 -20 -27 -20h-346l-47 -211q68 53 171 53t165 -76
t39 -192q-19 -127 -107 -197t-215 -70z" />
    <glyph glyph-name="six.sups" unicode="&#x2076;" horiz-adv-x="679" 
d="M420 948q72 0 121 41t63 117q25 133 -125 133q-74 1 -124 -37t-61 -107q-10 -69 22 -108t104 -39zM412 829q-120 0 -189 83q-68 83 -45 196l53 291q19 115 109 181t211 65q121 0 213 -99q14 -14 -2 -28l-47 -50q-14 -16 -31 0q-62 62 -144 62t-132 -42t-62 -108l-20 -100
q66 70 177 70t173 -68t42 -191q-22 -122 -104 -192t-202 -70z" />
    <glyph glyph-name="seven.sups" unicode="&#x2077;" horiz-adv-x="602" 
d="M266 840h-88q-12 0 -17 8t3 18l424 656h-350q-25 0 -19 24l12 68q4 20 25 20h475q25 0 21 -24l-11 -51q0 -10 -8 -27l-440 -678q-9 -14 -27 -14z" />
    <glyph glyph-name="eight.sups" unicode="&#x2078;" horiz-adv-x="684" 
d="M408 942q74 0 124 40t60 97t-24 89t-108 32t-124 -35t-61 -93t24 -94t109 -36zM524 1534q-64 0 -108 -30t-54 -81t20 -85t98 -34t112 36q45 36 53 86q7 50 -25 80q-32 28 -96 28zM709 1065q-19 -111 -105 -173t-206 -62t-190 73q-70 74 -46 180q27 133 160 183
q-94 51 -72 174q14 92 94 148t193 56t176 -65q63 -66 45 -158q-25 -119 -140 -166q55 -25 78 -76t13 -114z" />
    <glyph glyph-name="nine.sups" unicode="&#x2079;" horiz-adv-x="675" 
d="M506 1530q-70 0 -118 -38t-60 -112q-20 -141 118 -141q74 -1 122 37t62 108q13 70 -21 108q-33 38 -103 38zM517 1645q122 0 185 -78t43 -199l-53 -293q-20 -115 -108 -181t-201 -65q-113 0 -221 105q-14 12 0 29l47 51q16 14 31 0q66 -70 146 -70t130 41q49 41 62 109
l22 102q-68 -70 -175 -70t-171 74q-62 74 -42 190t101 186q82 69 204 69z" />
    <glyph glyph-name="zero.sinf" unicode="&#x2080;" horiz-adv-x="698" 
d="M109 41q-15 -72 21 -108q36 -35 102 -35t118 38q51 38 64 109l53 295q14 72 -20 110q-35 38 -103 38t-118 -38t-62 -112zM530 37q-26 -123 -110 -188t-199 -65t-183 77q-68 76 -44 198l53 291q23 121 112 186q89 64 201 64t179 -79q68 -79 45 -193z" />
    <glyph glyph-name="one.sinf" unicode="&#x2081;" horiz-adv-x="415" 
d="M160 -205h-72q-25 0 -20 25l112 622l-104 -65q-18 -12 -31 8l-27 55q-12 20 7 31l180 111q14 8 28 8h66q25 0 20 -25l-135 -749q-4 -21 -24 -21z" />
    <glyph glyph-name="two.sinf" unicode="&#x2082;" horiz-adv-x="634" 
d="M424 -205h-477q-27 0 -23 23l13 65q2 10 16 25l244 211q104 92 157 152t62 114q18 102 -103 102q-90 0 -184 -77q-20 -18 -33 6l-30 57q-6 20 6 31q121 96 245 96t177 -71q52 -71 38 -153t-73 -156t-159 -164t-179 -150h321q27 0 21 -25l-12 -65q-4 -21 -27 -21z" />
    <glyph glyph-name="three.sinf" unicode="&#x2083;" horiz-adv-x="641" 
d="M182 -215q-164 0 -245 117q-8 16 4 30l47 45q16 14 32 -2q63 -78 173 -77q69 0 119 44t62 110t-18 104q-31 38 -83 39t-81 -5t-30 15l-8 35q-4 16 8 28l131 125q57 51 102 86h-301q-25 0 -18 25l12 65q4 20 27 21h436q29 0 20 -23l-6 -41q-4 -14 -16 -26l-252 -226
q113 0 162 -70t31 -176q-18 -104 -104 -174t-204 -69z" />
    <glyph glyph-name="four.sinf" unicode="&#x2084;" horiz-adv-x="643" 
d="M498 76q23 0 18 -25l-12 -65q-2 -20 -27 -21h-51l-29 -149q0 -20 -22 -21h-72q-25 0 -20 25l24 145h-340q-25 0 -20 25l8 53q2 12 14 27l353 505q12 14 28 15h84q14 0 18 -8t-3 -19l-340 -487h221l28 160q0 20 25 20h72q23 0 18 -25l-27 -155h52z" />
    <glyph glyph-name="five.sinf" unicode="&#x2085;" horiz-adv-x="667" 
d="M201 -215q-176 0 -242 111q-6 12 6 28l47 49q12 14 33 -6q57 -68 172 -67q72 0 124 44t67 119q27 147 -121 148q-98 0 -170 -64q-16 -16 -33 -6l-51 23q-18 6 -15 29l86 378q2 18 27 19h430q25 0 19 -25l-13 -67q-4 -20 -26 -21h-346l-48 -211q71 53 173 53
q102 1 162 -75t40 -198t-107 -192t-214 -69z" />
    <glyph glyph-name="six.sinf" unicode="&#x2086;" horiz-adv-x="679" 
d="M238 -96q72 0 120 41t62 116q25 133 -123 134q-76 0 -126 -38t-61 -108q-12 -69 22 -107t106 -38zM227 -215q-121 0 -187 83t-46 195l53 291q21 117 111 182t194 64q135 0 228 -98q14 -14 0 -29l-48 -49q-16 -16 -32 0q-62 61 -144 61t-132 -42t-62 -107l-21 -100
q69 70 179 70t174 -69t42 -190t-105 -191t-204 -71z" />
    <glyph glyph-name="seven.sinf" unicode="&#x2087;" horiz-adv-x="602" 
d="M82 -205h-88q-12 0 -17 8q-4 8 5 19l421 655h-350q-25 0 -18 25l12 67q4 20 27 21h475q23 0 18 -25l-8 -51q-2 -16 -10 -27l-440 -677q-9 -15 -27 -15z" />
    <glyph glyph-name="eight.sinf" unicode="&#x2088;" horiz-adv-x="684" 
d="M296 260q68 0 112 36q45 36 54 86t-24 79t-96 29t-109 -30q-45 -30 -55 -81t20 -85t98 -34zM276 156q-74 0 -123 -35t-61 -93t23 -94t109 -36t124 40q52 40 62 97t-25 89t-109 32zM214 -215q-120 0 -190 74t-47 180q27 131 160 182q-94 51 -71 174q16 93 96 149t192 56
t176 -66q63 -66 43 -157q-25 -119 -139 -166q117 -52 90 -191q-20 -111 -105 -173t-205 -62z" />
    <glyph glyph-name="nine.sinf" unicode="&#x2089;" horiz-adv-x="675" 
d="M262 195q74 -1 122 37t61 108t-21 108t-102 37q-70 0 -118 -38t-61 -111q-20 -141 119 -141zM333 600q122 0 185 -78t43 -198l-53 -293q-20 -115 -108 -181t-202 -66q-112 0 -221 105q-14 12 0 29l48 51q16 14 30 0q66 -69 147 -69t129 41t62 108l21 103
q-64 -70 -172 -70t-172 74q-62 74 -42 190t102 186q82 68 203 68z" />
    <glyph glyph-name="Euro" unicode="&#x20ac;" horiz-adv-x="1269" 
d="M631 -23q-209 1 -325 137t-81 373l4 31h-129q-25 0 -20 23l16 88q2 18 25 18h133l25 152h-129q-23 0 -19 24l14 86q4 20 25 21h131l12 71q41 236 200 361t387 125t392 -144q16 -12 2 -30l-82 -90q-12 -16 -28 -6q-136 117 -304 117t-270 -96q-102 -95 -131 -261l-8 -47
h471q25 0 21 -25l-17 -86q-4 -20 -24 -20h-473l-25 -152h469q20 0 20 -22l-16 -86q-4 -20 -25 -21h-473l-4 -33q-25 -158 47 -255t226 -97q203 0 379 137q20 16 30 -6l58 -100q9 -19 -9 -31q-221 -156 -495 -156z" />
    <glyph glyph-name="uni20BD" unicode="&#x20bd;" horiz-adv-x="1286" 
d="M733 657q330 0 383 326q29 164 -39 243t-235 79h-314l-112 -648h317zM403 1464h467q229 0 345 -136t77 -365q-84 -461 -583 -461h-320l-24 -144h354q20 0 20 -24l-18 -94q-2 -20 -25 -21h-356l-35 -199q-4 -20 -24 -20h-129q-25 0 -21 25l33 194h-125q-27 0 -23 25l19 94
q4 20 24 20h129l191 1086q4 20 24 20z" />
    <glyph glyph-name="uni2113" unicode="&#x2113;" horiz-adv-x="784" 
d="M594 1356q-145 0 -188 -283l-72 -381q150 92 232 190t106 224q41 250 -78 250zM367 -23q-139 1 -197 107t-33 283l15 88l-64 -31q-27 -9 -25 20l13 103q2 18 18 24l84 43l86 473q72 399 344 400q126 1 182 -105t23 -290q-57 -332 -504 -560l-28 -167q-20 -119 10 -182
q31 -62 105 -62t173 90q23 18 33 -4l39 -84q10 -19 -10 -33q-125 -113 -264 -113z" />
    <glyph glyph-name="uni2116" unicode="&#x2116;" horiz-adv-x="2170" 
d="M1745 754q98 0 164 56t82 148l34 187q16 94 -24 147q-41 54 -139 54t-163 -56t-81 -157l-35 -187q-16 -90 24 -141t138 -51zM1736 612q-160 0 -242 98q-83 98 -56 248l32 187q29 156 138 249q108 93 268 93q160 1 239 -103t54 -251l-31 -187q-26 -152 -134 -243t-268 -91
zM1982 365h-581q-25 0 -21 24l19 103q4 20 24 20h582q23 0 20 -25l-18 -102q-5 -20 -25 -20zM233 0h-129q-25 0 -20 25l250 1419q4 20 24 20h138q20 0 26 -16l332 -807q109 -272 147 -377l11 6q33 238 88 570l106 604q4 20 25 20h127q25 0 20 -24l-250 -1420q-4 -20 -24 -20
h-137q-18 0 -25 16l-344 793q-72 166 -143 373l-9 -4q-39 -303 -84 -557l-104 -601q-5 -20 -25 -20z" />
    <glyph glyph-name="trademark" unicode="&#x2122;" horiz-adv-x="1259" 
d="M307 850q-16 0 -14 18l92 521h-162q-18 0 -14 16l8 47q4 12 16 12h414q16 0 15 -14l-9 -51q-4 -10 -18 -10h-166l-90 -523q-4 -16 -19 -16h-53zM637 850q-18 0 -16 18l104 582q4 14 14 14h62q10 0 14 -10l111 -401l250 401q6 10 20 10h59q18 0 17 -18l-105 -580
q-4 -16 -20 -16h-47q-18 0 -17 18l47 262q18 88 39 183h-2q-43 -84 -73 -131l-138 -209q-6 -10 -18 -10h-53q-8 0 -13 12l-61 209q-16 55 -33 131h-2q-10 -84 -26 -185l-45 -264q-4 -16 -19 -16h-49z" />
    <glyph glyph-name="estimated" unicode="&#x212e;" horiz-adv-x="1740" 
d="M1335 780v412q-182 158 -426 158t-417 -174v-396h843zM913 117q379 0 488 219q4 6 12 6h180q14 0 6 -12q-117 -178 -303 -265t-385 -88q-322 0 -550 213t-228 527q0 313 228 541t551 228t551 -226q228 -227 229 -551v-64q0 -10 -11 -10h-1189v-346q72 -78 188 -125
t233 -47z" />
    <glyph glyph-name="onethird" unicode="&#x2153;" horiz-adv-x="1740" 
d="M1300 102q68 0 119 44t63 110t-18 105q-31 38 -83 38t-80 -5t-31 16l-6 34q-6 16 6 29l131 125q57 51 102 86h-301q-25 0 -18 25l12 65q4 20 27 21h436q29 0 20 -23l-6 -41q-6 -16 -16 -26l-250 -226q111 -1 160 -71q48 -70 30 -174t-103 -175q-85 -70 -204 -69
q-164 0 -246 116q-8 16 5 31l47 45q14 14 32 -2q63 -78 172 -78zM207 0h-78q-14 0 -17 8t5 19l1229 1425q10 12 26 12h78q30 1 12 -26l-1226 -1426q-10 -12 -29 -12zM338 670h-70q-25 0 -20 24l112 623l-104 -66q-18 -12 -31 9l-26 55q-12 20 6 31l180 110q14 8 29 8h65
q25 0 21 -24l-135 -750q-4 -20 -27 -20z" />
    <glyph glyph-name="twothirds" unicode="&#x2154;" horiz-adv-x="1880" 
d="M1446 102q68 0 119 44t63 110t-18 105q-31 38 -83 38t-80 -5t-32 16l-6 34q-6 16 6 29l131 125q57 51 103 86h-301q-25 0 -19 25l12 65q4 20 27 21h436q29 0 21 -23l-6 -41q-4 -16 -17 -26l-250 -226q111 -1 160 -71t31 -174q-17 -104 -103 -175q-86 -70 -204 -69
q-164 0 -246 116q-8 16 4 31l47 45q16 14 33 -2q63 -78 172 -78zM367 0h-78q-14 0 -18 8q-3 8 5 19l1229 1425q10 12 27 12h78q30 1 12 -26l-1227 -1426q-10 -12 -28 -12zM604 670h-479q-25 0 -21 24l11 64q2 12 16 26l244 209q104 89 157 151t62 116q18 104 -102 104
q-88 0 -183 -78q-23 -18 -33 4l-32 58q-6 18 8 30q117 96 242 96t178 -69q53 -70 39 -154q-15 -85 -75 -157t-196 -195l-139 -119h320q27 0 20 -24l-12 -66q-5 -20 -25 -20z" />
    <glyph glyph-name="oneeighth" unicode="&#x215b;" horiz-adv-x="1722" 
d="M1286 102q74 0 125 39t61 97t-24 91q-35 31 -109 31t-123 -35t-60 -93t23 -94q33 -36 107 -36zM1358 465q68 0 112 35t54 86t-23 80q-33 28 -96 28t-109 -29q-45 -30 -55 -81t20 -85q29 -34 97 -34zM1278 -10q-118 0 -188 74t-46 192q24 119 156 170q-96 51 -72 174
q18 92 98 148t192 57q112 0 173 -66t45 -157q-25 -119 -139 -166q117 -52 90 -191q-20 -111 -105 -173t-204 -62zM193 0h-78q-14 0 -18 8q-3 8 5 19l1229 1425q8 12 27 12h78q30 1 12 -26l-1227 -1426q-8 -12 -28 -12zM338 670h-70q-25 0 -20 24l112 623l-104 -66
q-18 -12 -31 9l-26 55q-12 20 6 31l180 110q14 8 29 8h65q25 0 21 -24l-135 -750q-4 -20 -27 -20z" />
    <glyph glyph-name="threeeighths" unicode="&#x215c;" horiz-adv-x="1929" 
d="M1500 102q74 0 124 39q52 39 62 97t-25 91q-35 31 -109 31t-123 -35t-60 -93t23 -94t108 -36zM1572 465q68 0 112 35t54 86t-24 80q-33 28 -96 28t-109 -29q-45 -30 -55 -81t20 -85t98 -34zM1491 -10q-119 0 -189 74t-46 192q24 119 157 170q-96 51 -72 174q17 92 97 148
t192 57q112 0 174 -66q61 -66 45 -157q-25 -119 -139 -166q117 -52 90 -191q-20 -111 -105 -173t-204 -62zM406 0h-78q-14 0 -18 8q-3 8 5 19l1229 1425q8 12 27 12h78q30 1 12 -26l-1227 -1426q-10 -12 -28 -12zM365 774q69 0 119 44t62 110t-18 105q-31 38 -83 38t-80 -5
t-31 15l-6 35q-6 14 6 27l131 127q57 51 102 86h-301q-25 0 -18 24l12 66q4 20 27 20h436q27 0 20 -24l-6 -41q-4 -12 -16 -25l-250 -227q18 4 45 -2q76 -11 120 -75t26 -168t-104 -173q-86 -70 -204 -69q-162 0 -245 114q-8 16 4 33l47 45q16 12 33 -2q63 -78 172 -78z" />
    <glyph glyph-name="fiveeighths" unicode="&#x215d;" horiz-adv-x="1937" 
d="M1508 102q74 0 124 39q52 39 62 97t-25 91q-35 31 -109 31t-122 -35q-50 -35 -61 -93t23 -94t108 -36zM1580 465q68 0 112 35q45 35 54 86t-24 80q-33 28 -96 28q-62 0 -108 -30t-56 -80q-10 -51 20 -85t98 -34zM1499 -10q-119 0 -189 74t-45 192q24 119 156 170
q-96 51 -71 174q18 92 97 148t191 57q112 0 174 -66q61 -66 46 -157q-25 -119 -140 -166q117 -52 90 -191q-20 -111 -105 -173t-204 -62zM406 0h-78q-14 0 -18 8q-3 8 5 19l1229 1425q8 12 27 12h78q30 1 12 -26l-1227 -1426q-10 -12 -28 -12zM371 659q-162 0 -242 111
q-8 14 6 29l47 49q14 12 33 -6q57 -68 172 -68q72 0 124 44t67 120q27 147 -121 147q-86 0 -170 -63q-16 -16 -33 -6l-51 22q-23 6 -15 29l84 379q6 18 29 18h428q27 0 21 -24l-13 -68q-4 -20 -26 -20h-346l-48 -211q67 53 171 53t166 -76t38 -192q-20 -127 -107 -197
t-214 -70z" />
    <glyph glyph-name="seveneighths" unicode="&#x215e;" horiz-adv-x="1839" 
d="M1410 102q74 0 124 39q51 39 61 97t-24 91q-35 31 -109 31t-123 -35t-60 -93t23 -94t108 -36zM1481 465q69 0 113 35t54 86t-24 80q-33 28 -96 28t-109 -29q-45 -30 -55 -81t20 -85t97 -34zM1401 -10q-119 0 -189 74t-46 192q24 119 157 170q-96 51 -72 174q17 92 97 148
t192 57q112 0 174 -66q61 -66 45 -157q-25 -119 -139 -166q117 -52 90 -191q-20 -111 -105 -173t-204 -62zM264 0h-78q-14 0 -17 8t5 19l1229 1425q10 12 27 12h77q31 1 13 -26l-1227 -1426q-10 -12 -29 -12zM254 670h-88q-12 0 -16 8t4 18l421 656h-350q-25 0 -18 24l12 68
q4 20 27 20h475q25 0 18 -24l-8 -51q-2 -16 -10 -27l-438 -678q-13 -14 -29 -14z" />
    <glyph glyph-name="arrowleft" unicode="&#x2190;" horiz-adv-x="1267" 
d="M1194 788q23 0 18 -24l-16 -102q-4 -20 -25 -21h-856l183 -211q14 -16 -2 -33l-74 -65q-16 -16 -33 0l-264 327q-10 14 -8 27l6 55q4 16 14 27l387 344q18 18 31 -2l51 -63q14 -14 -2 -31l-264 -228h854z" />
    <glyph glyph-name="arrowup" unicode="&#x2191;" horiz-adv-x="874" 
d="M416 162h-94q-25 0 -21 24l156 895l-246 -219q-18 -16 -31 2l-49 60q-14 14 2 30l381 340q10 10 27 11h49q18 -1 26 -15l267 -340q12 -18 -2 -30l-72 -66q-16 -16 -31 4l-180 229l-160 -905q0 -20 -22 -20z" />
    <glyph glyph-name="arrowright" unicode="&#x2192;" horiz-adv-x="1263" 
d="M135 655q-23 0 -18 25l16 102q4 20 25 21h858l-182 211q-16 16 2 30l71 68q16 16 33 -2l266 -326q8 -10 8 -28l-8 -54q-4 -18 -14 -26l-387 -346q-18 -14 -31 2l-51 63q-12 16 4 31l262 229h-854z" />
    <glyph glyph-name="arrowdown" unicode="&#x2193;" horiz-adv-x="876" 
d="M344 145q-18 0 -27 15l-260 332q-16 18 0 30l72 66q16 16 31 -4l176 -222l158 906q4 20 24 20h96q25 0 21 -24l-160 -897l256 229q18 18 31 -2l49 -62q14 -18 -2 -30l-387 -346q-10 -10 -27 -11h-51z" />
    <glyph glyph-name="arrowboth" unicode="&#x2194;" horiz-adv-x="1527" 
d="M1102 1055l74 67q16 16 32 -2l267 -327q8 -10 8 -27l-10 -55q0 -14 -13 -27l-387 -344q-18 -18 -31 2l-51 64q-14 14 2 30l264 230h-944l185 -228q14 -18 -2 -30l-74 -68q-16 -14 -33 2l-262 340q-10 16 -8 29l6 55q2 12 14 25l385 331q18 14 31 -2l51 -63q12 -16 -2 -31
l-258 -215h936l-180 211q-18 19 0 33z" />
    <glyph glyph-name="arrowupdn" unicode="&#x2195;" horiz-adv-x="944" 
d="M408 29h-50q-18 0 -26 12l-262 332q-12 18 2 30l69 68q16 16 33 -4l174 -219l174 975l-250 -224q-18 -18 -30 2l-49 60q-14 14 2 31l380 340q10 10 27 10h49q18 0 27 -15l266 -340q12 -16 -2 -30l-70 -66q-16 -16 -30 4l-178 228l-177 -975l258 229q16 16 31 0l49 -61
q12 -18 -2 -31l-387 -348q-10 -8 -28 -8z" />
    <glyph glyph-name="uni2196" unicode="&#x2196;" horiz-adv-x="1009" 
d="M129 545q-25 0 -20 24l84 486q2 12 16 24l43 43q14 10 27 11h452q25 0 19 -25l-15 -90q-4 -20 -24 -21h-303l491 -635q16 -20 0 -32l-80 -74q-14 -14 -31 2l-495 637l-57 -328q-4 -23 -25 -22h-82z" />
    <glyph glyph-name="uni2197" unicode="&#x2197;" horiz-adv-x="1017" 
d="M489 1133h451q16 0 27 -15l26 -35q8 -14 6 -28l-81 -488q-4 -20 -25 -20l-82 -2q-27 0 -23 24l58 322l-713 -635q-18 -18 -31 2l-57 70q-12 16 2 30l717 639h-293q-27 0 -22 25l16 90q4 21 24 21z" />
    <glyph glyph-name="uni2198" unicode="&#x2198;" horiz-adv-x="1013" 
d="M934 838q25 0 20 -25l-82 -473q0 -12 -14 -27l-45 -41q-10 -10 -29 -10h-460q-25 0 -19 25l17 90q0 20 22 20h313l-493 635q-12 16 2 31l80 74q16 20 30 -2l494 -635l55 317q4 20 25 21h84z" />
    <glyph glyph-name="uni2199" unicode="&#x2199;" horiz-adv-x="1013" 
d="M614 397q25 0 21 -24l-14 -90q-4 -20 -25 -21h-461q-18 0 -26 14l-27 33q-8 14 -6 31l82 477q0 20 22 21h86q25 0 21 -25l-56 -307l713 631q19 18 31 -2l55 -70q12 -16 -2 -31l-715 -637h301z" />
    <glyph glyph-name="partialdiff" unicode="&#x2202;" horiz-adv-x="1005" 
d="M417 133q117 0 199 96q82 95 111 267t-21 260t-164 88t-195 -92t-111 -262t17 -264q46 -94 164 -93zM544 993q171 0 240 -143q23 233 -74 361t-302 135q-25 -1 -21 24l16 96q0 20 23 21q637 -12 477 -883l-22 -123q-94 -502 -469 -501q-209 0 -288 154t-38 378
q41 223 164 352t294 129z" />
    <glyph glyph-name="emptyset" unicode="&#x2205;" horiz-adv-x="1236" 
d="M584 260q150 0 292 120q140 120 166 284t-51 286l-643 -604q86 -86 236 -86zM717 1104q-164 0 -301 -121t-164 -285t43 -282l641 604q-90 84 -219 84zM1112 1171h74q14 0 17 -8t-7 -18l-129 -121q111 -156 74 -367t-204 -350t-380 -139q-170 0 -283 108l-88 -83
q-14 -10 -26 -11h-72q-14 0 -17 9t7 20l139 133q-102 152 -65 361q35 209 199 350q165 141 376 141q166 0 283 -104l73 69q13 10 29 10z" />
    <glyph glyph-name="product" unicode="&#x220f;" horiz-adv-x="1257" 
d="M1233 1526q25 0 20 -25l-311 -1765q-4 -20 -24 -21h-132q-25 0 -20 25l285 1618h-553l-287 -1622q-4 -20 -25 -21h-133q-24 0 -20 25l313 1765q4 20 25 21h862z" />
    <glyph glyph-name="summation" unicode="&#x2211;" horiz-adv-x="1038" 
d="M795 -285h-842q-25 0 -21 25l15 84q2 12 12 26l610 820l-333 716q-8 10 -5 29l15 90q0 20 22 21h842q25 0 20 -25l-20 -115q-4 -20 -25 -20h-655l291 -645q6 -16 4 -33l-14 -82q-2 -8 -15 -28l-518 -703h641q25 0 21 -25l-21 -114q-4 -21 -24 -21z" />
    <glyph glyph-name="minus" unicode="&#x2212;" horiz-adv-x="1189" 
d="M1022 606h-829q-25 0 -19 25l21 108q0 20 22 21h830q25 0 18 -25l-18 -106q-5 -23 -25 -23z" />
    <glyph glyph-name="radical" unicode="&#x221a;" horiz-adv-x="1124" 
d="M463 -285h-131q-20 0 -23 21l-80 936h-147q-25 0 -21 22l17 107q4 20 24 20h248q20 0 25 -22l43 -637q10 -94 14 -234h4q39 123 60 176l596 1405q6 16 24 17h119q29 0 18 -27l-764 -1767q-10 -17 -26 -17z" />
    </font>
</defs>
</svg>
